<?xml version="1.0" encoding="utf-8"?>
<!-- Generator: Adobe Illustrator 25.4.1, SVG Export Plug-In . SVG Version: 6.00 Build 0)  -->
<svg version="1.1" id="Layer_1" xmlns="http://www.w3.org/2000/svg" xmlns:xlink="http://www.w3.org/1999/xlink" x="0px" y="0px"
	 viewBox="0 0 525.9 240.7" style="enable-background:new 0 0 525.9 240.7;" xml:space="preserve">
<style type="text/css">
	.st0{fill:#636363;}
	.st1{fill:none;}
	.st2{fill:#B9210A;}
</style>
<g id="Layer_2_00000161626844845353101230000010534246061210781875_">
	<g id="Layer_1-2">
		<path class="st0" d="M340.5,6.1l9.8-2.5c0.3-0.1,0.5-0.3,0.7-0.5c0.5-0.9,0.3-2.1-0.6-2.7c-0.2-0.2-0.6-0.3-0.9-0.3
			c-3,0.2-6,0.8-8.8,1.8c-3.7,1.3-5.1,1.7-6.2,5.4c-1,3.5-1.4,7.2-1.1,10.9c0.1,1.1,1,2,2.1,2c1.6,0,2.6-0.5,2.8-2.2
			c0.3-3.1,0.5-6.3,0.6-9.5C338.7,7.3,339.4,6.4,340.5,6.1 M347.2,13c1.7-0.7,8.3-1.5,8-3.8c-0.1-0.6-0.6-1.1-1.2-1.2
			c-3.1-0.2-9.6,1.1-10.8,4.5c-0.6,1.6-2.8,10.4,1.3,10c0.6-0.1,1.2-0.6,1.2-1.2l0.8-7.5C346.6,13.4,346.9,13.1,347.2,13"/>
		<path class="st1" d="M383.4,151.5L383.4,151.5"/>
		<path class="st1" d="M391.8,144.2c-3.4,0.4-6.2,3.9-8.3,7.3"/>
		<path class="st0" d="M340.5,6.1l9.8-2.5c0.3-0.1,0.5-0.3,0.7-0.5c0.5-0.9,0.3-2.1-0.6-2.7c-0.2-0.2-0.6-0.3-0.9-0.3
			c-3,0.2-6,0.8-8.8,1.8c-3.7,1.3-5.1,1.7-6.2,5.4c-1,3.5-1.4,7.2-1.1,10.9c0.1,1.1,1,2,2.1,2c1.6,0,2.6-0.5,2.8-2.2
			c0.3-3.1,0.5-6.3,0.6-9.5C338.7,7.3,339.4,6.4,340.5,6.1"/>
		<path class="st0" d="M347.2,12.9c1.7-0.7,8.3-1.5,8-3.8c-0.1-0.6-0.6-1.1-1.2-1.1c-3.1-0.2-9.6,1.1-10.8,4.5
			c-0.6,1.6-2.8,10.4,1.3,10c0.6-0.1,1.2-0.6,1.2-1.2l0.8-7.5C346.6,13.4,346.9,13.1,347.2,12.9"/>
		<path class="st0" d="M353.7,17l4-1c0.3-0.1,0.6-0.3,0.7-0.7c0.8-2.9-5.5-0.6-6.2-0.1c-2.9,1.7-2.8,5.3-2.4,8.3
			c0,0.3,0.3,0.6,0.6,0.6c0.1,0,0.1,0,0.2,0l0.8-0.2c0.3-0.1,0.5-0.3,0.6-0.6l1-5.5C353,17.4,353.3,17.1,353.7,17"/>
		<path class="st0" d="M296.2,203.8c0-0.5-0.4-0.9-0.9-0.9h-0.6c-0.5,0-0.9,0.4-0.9,0.9v18c0,0.5,0.4,0.9,0.9,0.9h0.6
			c0.5,0,0.9-0.4,0.9-0.9V203.8"/>
		<path class="st0" d="M212.8,204c0-0.6-0.4-1-1-1h-0.9c-0.6,0-1,0.4-1,1l-0.1,17.7c0,0.6,0.4,1,1,1h0.9c0.6,0,1-0.4,1-1L212.8,204"
			/>
		<path class="st0" d="M351.5,203.9c0-0.5-0.4-0.9-0.9-0.9h-0.8c-0.5,0-0.9,0.4-0.9,0.9v17.8c0,0.5,0.4,0.9,0.9,0.9h0.8
			c0.5,0,0.9-0.4,0.9-0.9V203.9"/>
		<path class="st0" d="M280,206.7c0-0.5-0.4-0.9-0.9-0.9l0,0h-4.9c-0.5,0-0.9,0.4-0.9,0.9v0v0.9c0,0.5,0.4,0.9,0.9,0.9l0,0h4.9
			c0.5,0,0.9-0.4,0.9-0.9v0V206.7"/>
		<path class="st0" d="M377.8,209.6c1,0.3,2-0.3,2.3-1.3c0.3-1-0.3-2-1.3-2.3s-2,0.3-2.3,1.3c0,0.1,0,0.2-0.1,0.3
			C376.3,208.5,376.9,209.4,377.8,209.6"/>
		<path class="st0" d="M404.3,210.2c1,0.5,2.3,0.1,2.8-0.9s0.1-2.3-0.9-2.8c-1-0.5-2.3-0.1-2.8,0.9c-0.1,0.1-0.1,0.3-0.2,0.4
			C402.8,208.8,403.3,209.9,404.3,210.2"/>
		<path class="st0" d="M338.2,208.3c0-0.5-0.4-0.9-0.9-0.9c0,0,0,0-0.1,0l-4.7,0.1c-0.5,0-1,0.5-1,1v0.7c0,0.5,0.5,1,1,0.9l4.7-0.1
			c0.5,0,0.9-0.5,0.9-1L338.2,208.3"/>
		<path class="st0" d="M147.4,213.1l3.9,0.4c0.4,0.1,0.7-0.2,0.8-0.5l0.3-1c0.2-0.5-0.1-1.1-0.6-1.3c0,0,0,0-0.1,0
			c-3.4-1.1-9.4-0.5-7.7,4.9c0.6,2,3.1,3,4.9,3.9c0.3,0.2,0.6,0.4,0.8,0.7l0.4,0.8c0.1,0.2,0,0.5-0.2,0.6c0,0-0.1,0-0.1,0
			c-4.6,0.9-15.2,2.2-12.6-6.6c0.1-0.4-0.1-0.8-0.5-0.9c-0.1,0-0.1,0-0.2,0c-1.2,0-2.2,0.9-2.2,2.1c-1.7,13,18.7,10.4,18.9,4.8
			c0.1-4.6-7-4.7-6.6-7.3c0-0.4,0.3-0.6,0.7-0.6C147.3,213.1,147.4,213.1,147.4,213.1"/>
		<path class="st0" d="M306.6,225.5l-2.4,0.5c-0.3,0-0.6,0.3-0.5,0.6c0,0,0,0.1,0,0.1c0.1,1,1,1.7,2,1.6c6.4,0.4,5.5-8.7,5.2-14.1
			c-0.1-1.2-0.7-2-1.9-1.3c-0.5,0.3-0.8,0.8-0.8,1.3l-0.1,9.4C308.2,224.5,307.5,225.3,306.6,225.5"/>
		<path class="st0" d="M396.4,226.7c0-1-0.8-1.7-1.7-1.7c-1,0-1.7,0.8-1.7,1.7c0,1,0.8,1.7,1.7,1.7l0,0
			C395.6,228.4,396.4,227.6,396.4,226.7"/>
		<path class="st0" d="M327.6,226.2c0-0.4-0.3-0.6-0.6-0.6c0,0,0,0,0,0l-5.5,0.1c-0.4,0-0.6,0.3-0.6,0.6c0,0,0,0,0,0v1.2
			c0,0.4,0.3,0.6,0.6,0.6l5.5-0.1c0.4,0,0.6-0.3,0.6-0.6V226.2"/>
		<path class="st0" d="M143.2,227.5c-0.2,0.1-0.4,0-0.5-0.1c-0.3-0.3-0.7-0.4-1.1-0.4c-3.1,0.3-1.7,5,1.3,3.1c0.3-0.2,0.6-0.2,0.9,0
			c0.5,0.3,1.2,0.5,1.8,0.5c0.9,0,1.6-0.6,1.6-1.5c0-0.2,0-0.5-0.1-0.7c-0.3-1-1.3-1.6-2.3-1.3c-0.2,0.1-0.4,0.1-0.6,0.3
			C143.8,227.4,143.5,227.5,143.2,227.5"/>
		<path class="st0" d="M230.2,231.5c-1-0.6-2.2-0.5-3.2,0.1c-0.4,0.2-0.6,0.6-0.4,1c0,0.1,0.1,0.1,0.1,0.2l0.6,1.1
			c0.2,0.4,0.6,0.5,1,0.4c1.5-0.6,3.1-0.6,4.6,0c0.3,0.1,0.6,0,0.8-0.2c0,0,0-0.1,0-0.1c0.6-1,0.3-2.4-0.7-3.1c-0.3-0.3-0.7-0.3-1,0
			l-0.9,0.7C230.9,231.7,230.4,231.8,230.2,231.5"/>
		<path class="st0" d="M340.5,6.1c-1,0.3-1.8,1.2-1.8,2.2c-0.1,3.2-0.3,6.4-0.6,9.5c-0.2,1.8-1.1,2.3-2.8,2.2c-1.1,0-2-0.9-2.1-2
			c-0.3-3.7,0.1-7.3,1.1-10.8c1.1-3.7,2.5-4.1,6.2-5.4c2.8-1,5.8-1.6,8.8-1.8c0.3,0,0.6,0.1,0.9,0.3c0.9,0.6,1.1,1.8,0.6,2.7
			c-0.1,0.3-0.4,0.5-0.7,0.5C350.2,3.5,340.5,6.1,340.5,6.1z"/>
		<path class="st0" d="M346.6,13.8l-0.8,7.5c-0.1,0.6-0.6,1.1-1.2,1.2c-4.1,0.4-1.9-8.4-1.3-10c1.1-3.3,7.6-4.7,10.8-4.5
			c0.6,0,1.1,0.5,1.2,1.1c0.4,2.3-6.2,3.1-8,3.8C346.9,13.1,346.6,13.4,346.6,13.8L346.6,13.8z"/>
		<path class="st0" d="M353,17.8l-1,5.5c0,0.3-0.3,0.5-0.6,0.6l-0.8,0.2c-0.3,0.1-0.7,0-0.8-0.3c0-0.1,0-0.1,0-0.2
			c-0.5-2.9-0.5-6.5,2.4-8.3c0.8-0.4,7.1-2.8,6.2,0.1c-0.1,0.3-0.4,0.6-0.7,0.7l-4,1C353.3,17.1,353,17.4,353,17.8L353,17.8z"/>
		<path class="st0" d="M524,39.5l-55.5,0.2c-0.3,0-0.6-0.2-0.7-0.5c-3.9-10.3-8.9-23.3-21.8-24.7c-17-1.8-26.8,21.7-29.6,34.5
			c-0.6,2.2-0.8,4.5-0.6,6.7c-0.2,1.8,0.1,3.1,1,4c9.9,9.5,22.5,15.6,36,17.6l0.1-0.1c-0.3,0.4-0.7,0.7-1.1,1
			c-5.1,7.9-25,4.4-32.6,2.1c-0.6-0.2-1.2,0.2-1.4,0.8c0,0.1,0,0.2,0,0.2c-0.2,6-0.7,14.1,2,18.1c2,3,12.3,6.6,12.3,6.6v10.3
			c21.5-0.3,42.1-0.3,63,0c0.5-3.9,0.4-7.8-0.1-11.6c0-0.8-0.7-1.4-1.5-1.4c0,0-0.1,0-0.1,0l-40.3-0.2c6.1-3.4,10.9-8.8,13.7-15.2
			c1-2.2,4.7-21.6,3.8-32.7l-0.2-4.7c-0.1-0.3,0-0.5,0.3-0.6c0.1,0,0.2,0,0.3,0c14,0,31.2,0,45.2,0l-0.7,98.1c0,0.3-0.3,0.6-0.6,0.6
			c0,0,0,0,0,0c-31,0-67.6-0.9-99-0.9c-0.4-13.4-8.5-33.2-25.7-27.5c-12.2,4.1-19.6,19.5-26.4,29.3c-1.1,1.6-2.5,2.9-4.1,4
			c-0.3,0.2-0.6,0.3-1,0.3c-32.5,0.5-65.8-0.4-101.4,0.1c-2.6,0.1-7.6-1-7.8-4.8c-0.8-12.9-8.1-32.9-23.2-34.1
			c-10.6-0.9-25.2,10.6-33.2,16.7c-0.3,0.3-0.8,0.2-1.1-0.1c-0.1-0.1-0.2-0.3-0.2-0.5v-7.2c0-0.6-0.4-1-1-1h-14.3
			c-0.7,0-1.4,0.6-1.4,1.3c0,0,0,0,0,0l-0.2,28.7c0.1,0.5-0.3,0.9-0.8,1c-0.1,0-0.2,0-0.2,0c-27.6-0.4-55.3-0.5-83.1-0.1
			c-3.2,0-6.3-0.6-9.4-1.6c-0.3-0.1-0.6-0.3-0.7-0.6c-0.7-2.3-0.4-21.1-0.6-28.3c0-0.3-0.2-0.5-0.5-0.5l-15.3,0.1
			c-0.4,0-0.7,0.2-0.7,0.6c-0.2,1.4,0.1,30.7-0.2,44.2c-0.3,17.3-8.6,17.5-22.3,14.6c-0.6-0.1-1.2,0.3-1.3,0.9c0,0.1,0,0.1,0,0.2
			v3.8c0,0.2-0.1,0.5-0.4,0.5c0,0-0.1,0-0.1,0h-28c-0.3,0-0.5-0.2-0.5-0.5l0.3-98.9c-0.1-0.4,0.1-0.7,0.6-0.7
			c8.4,0.2,172,0.3,245.4-0.2c0.3,0,0.6,0.2,0.7,0.5c13.5,28.2,57.4,20.2,79.8,10.4c0.8-0.4,6.9-13.4,5.6-20.7l-9.3-8.3
			c-0.8-0.7-0.7-0.9,0.3-0.4c5.6,2.5,9.6,3.7,12.2,3.7c18.8,0,37.5,0.2,56.2,0.8c1.5-6.3,2.4-12.8,2.6-19.3c0-0.5-0.3-0.8-0.8-0.9
			c0,0,0,0,0,0c-13.5-0.2-26.6,1.4-32.8-13.4c-0.6-1.2-0.9-2.4-0.8-3.7c0-0.3,0.2-0.6,0.5-0.8c8.6-5.3,19.9-4.2,29.5-2.7
			c0-4.2,1-16.2-0.5-19.3c-0.1-0.3-0.4-0.5-0.8-0.6c-12.5-3.1-23.4-1.1-32.7,5.8c-11.2,8.4-16.1,20.2-9,33.2
			c0.2,0.4,0.1,0.9-0.4,1.2c-0.1,0.1-0.3,0.1-0.4,0.1c-10.9,0-23.3,1-33.7-1c-4.2-0.8-8.3-1.9-12.3-3.3c-2.2-0.8-2.9-0.4-3.7,1.7
			c-1,2.6-2.2,5.1-3.1,7.7c-0.8,2.3-1.8,5.2-1,7.7c1,0.2,1.9,0.4,2.8,0.8c0.8,0.3,1.5,0.6,2.2,0.9c1.8,0.9,3.5,2,5.1,3.2
			c3.6,2.6,7.1,5.4,10.4,8.3c1.4,1.3,2.9,2.6,4.2,3.9c0.3,0.3,0.3,0.7,0.1,1c-1.5,0.9-3.2,1.7-4.9,2.2c-15.9,3-56.8,8.3-52.5-20.5
			c0.8-5.4,1.5-11.1,2.2-16.9c0.1-0.5-0.3-0.9-0.7-0.9c-0.1,0-0.1,0-0.2,0c-3.4,0.4-6.7,0.9-10,1.7c-3.1,0.7-3.1,1.6-4,4.3
			c-2.4,7.2-3.4,14.9-2.7,22.4c0,0.5-0.3,1-0.8,1c0,0-0.1,0-0.1,0c-81.8-0.1-163.6,0-245.6,0.2c-2.3,0-5.7,0.1-8.1,0.2
			C0,77.4,0,141,0,198.2c0,0,28.8-0.6,39.6-0.4c1.2,0,2.4,0.7,3.1,1.7c0.2,0.3,0.5,0.5,0.8,0.6c10.1,3.6,19.3,1.9,27.5-4.5
			c1.8-1.4,9-14.4,8.9-19.5c-0.1-0.8,0.2-1.6,0.7-2.2h0.5c0.3,0,0.5,0.1,0.7,0.3c4,3.5,8.1,5.2,12.3,5.2h141.9c3.7,0,5.6-5.6,7.3-8
			c0.1-0.3,0.4-0.4,0.7-0.2c0.1,0,0.1,0.1,0.2,0.1c5.5,5,8.3,8,16.4,8c30.8,0,61.7,0,92.5,0c8.1,0,13.3-1,17.9-7.4
			c0.2-0.3,0.5-0.5,0.8-0.5c0.9-0.2,1.9,0,2.8,0.4c10.5,4.4,18.1,7.6,22.8,9.6c1.2,0.5,2.6,0.2,3.5-0.8c4.6-4.4,14-20.3,14.2-21.6
			l110.6,0.6l0.1-118.3C525.8,40.3,525,39.5,524,39.5z M453.3,54.7c-6.1-0.6-15.7-3.1-20.1-7.6c4.1-10.8,13.5-8.7,18.4-0.3
			c1.2,2.3,1.9,4.8,2.2,7.3C453.8,54.5,453.7,54.7,453.3,54.7L453.3,54.7z M232,154h-38.9c-0.6,0-1.1-0.4-1.2-1
			c-0.2-0.8,0.3-1.3,1.4-1.7c9.1-5.5,28.6-18.3,36.8-5.3l2.8,6.5c0.3,0.5,0,1.2-0.5,1.5C232.3,154,232.2,154,232,154z M398.8,158.8
			c-0.1,0.3-0.5,0.4-0.8,0.3c-1.9-0.8-14.7-5.9-14.7-7.5l0,0c2.1-3.5,5-7,8.4-7.3c0.4,0,0.8,0,1.2,0c1.6,0.2,3,1,4.2,2.1
			C400.4,149.9,400.9,154,398.8,158.8L398.8,158.8z"/>
		<path class="st0" d="M273.4,219.2c-4.7-7.4,10.3-14,7.8,0.3c-0.1,0.4,0.1,0.6,0.5,0.6l4.1-0.2c0.3,0,0.6-0.2,0.6-0.6
			c0,0,0-0.1,0-0.1V204c0-0.5,0.4-0.9,0.9-0.9l1.4-0.1c0.5,0,0.7,0.2,0.7,0.7v18.2c0,0.4-0.3,0.8-0.7,0.8c0,0,0,0,0,0l-20.3-0.2
			c-0.4,0-0.8,0.3-0.9,0.7c-1.1,4.8-4,6.5-8.8,5.1c-0.3-0.1-0.5-0.3-0.7-0.5c-0.5-0.6-0.6-1.4-0.3-2.2c0.1-0.4,0.5-0.6,0.9-0.4
			c2.2,0.4,5.1,1.6,6.1-1.5c0.1-0.2,0-0.5-0.2-0.7c-0.1,0-0.1-0.1-0.2-0.1c-1.9-0.3-3.7-0.9-5.4-1.8c-5.8-3.4,5.5-18.5,9-1.5
			c0,0.4,0.4,0.6,0.7,0.6h4.4C273.6,220.1,273.8,219.8,273.4,219.2 M274.8,217.3l2.8,1.6c0.4,0.2,0.9,0.1,1.2-0.3c0,0,0,0,0,0
			l0.1-0.2c0.9-1.6,0.8-3.4-0.3-4.1l-0.2-0.1c-1.1-0.7-2.8,0.1-3.7,1.7l-0.1,0.2C274.2,216.5,274.3,217,274.8,217.3
			C274.7,217.3,274.8,217.3,274.8,217.3 M259.6,218.3l4.3,1.7c0.3,0.1,0.5,0,0.6-0.3c0,0,0,0,0,0l0.1-0.4c0.7-1.9,0.2-3.9-1.2-4.4
			l0,0c-1.4-0.6-3.2,0.5-3.9,2.4l-0.1,0.4C259.3,217.9,259.4,218.2,259.6,218.3L259.6,218.3z"/>
		<path class="st0" d="M161.2,223.1c0.1,6.4-7.3,6.6-6.9,3.4c0-0.2,0.2-0.4,0.4-0.5l3-0.8c0.4-0.1,0.7-0.4,0.8-0.9
			c0.6-3.5,0.6-7.1,0.1-10.6c-0.1-0.3,0.1-0.6,0.4-0.7c0.1,0,0.1,0,0.2,0l1.6-0.1c0.5-0.1,0.8,0.2,0.8,0.7v5.6
			c0,0.3,0.2,0.6,0.5,0.6c0,0,0.1,0,0.1,0h4.3c0.3,0,0.7-0.2,0.7-0.5c0-0.1,0-0.1,0-0.2l0.1-5.3c0-0.3,0.2-0.6,0.4-0.8
			c1.1-0.7,1.7,0.7,2.4,1.2c0.3,0.2,0.6,0.2,0.9,0c7.5-5,9.2-2.4,11.5,5c0.1,0.3,0.4,0.6,0.7,0.6c4.3,0.7,4.8-3.4,6.9-6
			c4.4-5.6,8,0.9,7.5,5.3c0,0.5,0.2,0.7,0.6,0.7l3.9,0.1c0.4,0,0.7-0.3,0.7-0.7c0,0,0,0,0,0v-15.6c0-0.3,0.2-0.5,0.4-0.5
			c2-0.3,2.6,0.1,2.5,2.2c-0.2,5.1-0.3,10.6-0.2,16.3c0,0.6-0.4,1.1-1,1.1c-2.4,0.3-4.9,0.1-7.3-0.5c-0.3-0.1-0.7-0.1-1,0
			c-2.1,0.8-4.5,0.4-6.2-1.1c-0.3-0.2-0.7-0.3-1-0.1l-3.2,1.7c-0.3,0.1-0.6,0.2-0.9,0.1c-2-0.5-4.1-0.5-6.2-0.1
			c-2.4,0.4-8.1,0.3-17.2-0.3c-0.3-0.1-0.6,0.1-0.7,0.4c0,0.1,0,0.2,0,0.2 M170.1,220l9.5-0.2c0.2,0,0.3-0.1,0.3-0.3v-0.1
			c-0.1-2.7-2.3-4.9-5-4.8h-0.3c-2.7,0.1-4.8,2.4-4.8,5.1v0.1C169.9,219.9,170,220,170.1,220C170.2,220,170.2,220,170.1,220
			 M195.2,219.1v-3.3c0-0.5-0.4-0.9-0.8-0.9h0h-0.1c-1.9,0-3.4,1-3.4,2.3v0.3c0,1.3,1.5,2.3,3.4,2.3h0.1
			C194.8,219.9,195.2,219.5,195.2,219.1L195.2,219.1L195.2,219.1z"/>
		<path class="st0" d="M342,219v-15c0-0.6,0.4-1,1-1c0,0,0,0,0.1,0h0.9c0.4,0,0.7,0.2,0.8,0.6c0,0.1,0,0.1,0,0.2v17.7
			c0,0.5-0.4,1-0.9,1c-3.6,0.3-6.8-0.5-10.5-0.1c-2.7,0.3-5.9-0.1-8.2,0c-2.7,0.1-5.5,0.2-8.2,0.4c-1.1,0.1-2.1-0.8-2.2-1.9
			c0,0,0,0,0-0.1l-0.2-17c-0.1-0.3,0.2-0.6,0.5-0.7c0.1,0,0.1,0,0.2,0l1.5-0.1c0.3,0,0.5,0.1,0.5,0.4c0,0,0,0.1,0,0.1l0,15
			c-0.1,0.7,0.4,1.4,1.1,1.5c0.1,0,0.2,0,0.4,0h5c0.4,0,0.7-0.3,0.8-0.8v-5.5c0-0.3,0.2-0.6,0.5-0.6c0,0,0,0,0,0l0.9-0.1
			c0.4,0,0.5,0.1,0.5,0.4l0.2,5.6c0,0.3,0.2,0.6,0.6,0.7c0,0,0,0,0.1,0l6,0.4c0.4,0,0.7-0.3,0.7-0.6c0,0,0,0,0,0
			c0-1.2-0.8-7.1,1.7-6.4c0.4,0.1,0.7,0.4,0.6,0.8l0.3,5.4c0,0.3,0.2,0.6,0.6,0.7c0,0,0.1,0,0.1,0h3.9c0.4,0,0.7-0.3,0.7-0.6
			C342,219.1,342,219,342,219z"/>
		<path class="st2" d="M410.3,204.6c0-0.1,0.1-0.2,0.2-0.2l0,0h5.8c8.5,0.1,15.3,0.9,15.3,1.9v0.3c0,1-6.9,1.7-15.3,1.7l-5.8-0.1
			c-0.1,0-0.2-0.1-0.2-0.2c0,0,0,0,0,0L410.3,204.6L410.3,204.6z"/>
		<path class="st0" d="M402.8,219.6c0.4-2.9-0.6-6.5,1.1-8.1c0.4-0.4,1-0.3,1.4,0.1c0.1,0.2,0.2,0.4,0.2,0.6l0.2,9.6
			c0.1,0.4-0.2,0.7-0.6,0.8c-0.1,0-0.2,0-0.2,0h-29.8c-0.4,0-0.7,0.2-0.8,0.6l-0.5,1.5c-0.1,0.3-0.3,0.5-0.5,0.7
			c-5.5,4.4-13.6,0.9-12.9-6.9c0.1-1.1,0.6-2.1,1.6-2.8c0.3-0.2,0.8-0.1,1,0.2c0.1,0.1,0.1,0.3,0.1,0.5c-0.7,5.4,1.8,9.1,7.6,7.3
			c0.3-0.1,0.5-0.4,0.5-0.7l0.1-8.9c0-0.6,0.4-1,1-1c0.2,0,0.4,0,0.5,0.1l1.3,0.7c0.3,0.2,0.7,0.2,1,0c8.3-4.9,8.7-2.2,11.5,5.1
			c0.1,0.3,0.4,0.6,0.8,0.6l5.1,0.2c0.3,0.1,0.6-0.1,0.7-0.5c0-0.1,0-0.1,0-0.2l0.1-5.3c0-0.5,0.3-0.9,0.8-1.1
			c2.7-0.9,1.9,4.8,2,6.1c0,0.4,0.3,0.7,0.6,0.7c0,0,0,0,0.1,0l5.1,0.4C402.4,220.2,402.7,220,402.8,219.6
			C402.8,219.6,402.8,219.6,402.8,219.6 M375,220.1h8.6c0.4,0,0.7-0.3,0.7-0.7l0,0c0-2.7-2.2-4.9-4.9-4.9c0,0,0,0,0,0h-0.2
			c-2.7,0-4.9,2.2-4.9,4.9c0,0,0,0,0,0l0,0C374.3,219.9,374.6,220.2,375,220.1C374.9,220.2,374.9,220.2,375,220.1L375,220.1z"/>
		<path class="st0" d="M250.4,211.6c-3,0.1-5.2,5.1-6.8,7.3c-0.2,0.3-0.5,0.4-0.8,0.5c-2.5,0.4-5.1,0.2-7.5-0.6
			c-0.7-0.3-1.6,0-1.9,0.7c-0.1,0.2-0.1,0.3-0.1,0.5c-0.1,0.3,0.1,0.7,0.4,0.9l4.2,2.8c0.5,0.3,0.6,0.9,0.3,1.4
			c-0.1,0.2-0.4,0.4-0.6,0.5c-3.3,0.9-6.8,0.9-10.1-0.1c-0.4-0.1-0.7-0.4-0.9-0.8c-0.9-1.8-1.2-3.8-0.9-5.8c0.1-0.4-0.1-0.6-0.5-0.6
			c-2.8-0.1-2.2,5-1.8,6.5c2,7.6,21.4,5.2,17.1-1.4c-0.3-0.5-0.2-0.7,0.4-0.8c1.8-0.1,3.6-0.7,5.1-1.9c0.3-0.2,0.7-0.3,1-0.1
			c2.5,1.2,6,3.7,7.3-0.7C255.1,216.8,254.8,211.5,250.4,211.6z M251.4,219.6L251.4,219.6c-1.9,0.1-3.4-0.8-3.5-2v-0.3
			c-0.1-1.3,1.3-2.4,3.1-2.6l0,0c0.4,0,0.8,0.3,0.9,0.7l0.3,3.3C252.1,219.2,251.7,219.6,251.4,219.6L251.4,219.6z"/>
		<path class="st2" d="M144.7,238.9c0,0.9-0.8,1.7-1.7,1.7h-20.2c-0.9,0-1.7-0.8-1.7-1.7v-1.5c0-0.9,0.8-1.7,1.7-1.7H143
			c0.9,0,1.7,0.8,1.7,1.7V238.9z"/>
		
			<rect x="282.1" y="116.2" transform="matrix(0.7071 -0.7071 0.7071 0.7071 -3.0707 242.0793)" class="st0" width="17.1" height="17.1"/>
		
			<rect x="302.7" y="116.2" transform="matrix(0.7071 -0.7071 0.7071 0.7071 2.9479 256.6114)" class="st0" width="17.1" height="17.1"/>
		<rect x="39.3" y="202.1" class="st0" width="63.3" height="13.1"/>
	</g>
</g>
</svg>
