<svg xmlns="http://www.w3.org/2000/svg" viewBox="0 0 525.86 240.66"><defs><style>.cls-1{fill:#fff;}.cls-2,.cls-3{fill:none;stroke-miterlimit:10;stroke-width:0;}.cls-2{stroke:#dc9084;}.cls-3{stroke:#e9f2f7;}.cls-4{fill:#d3e5ef;}.cls-5{fill:#b9210a;}</style></defs><g id="Layer_2" data-name="Layer 2"><g id="Layer_1-2" data-name="Layer 1"><path class="cls-1" d="M340.47,6.07l9.78-2.55a1,1,0,0,0,.66-.52A2.06,2.06,0,0,0,350.3.31a1.16,1.16,0,0,0-.88-.31,30.8,30.8,0,0,0-8.81,1.77c-3.68,1.33-5.13,1.73-6.21,5.45a29.93,29.93,0,0,0-1.13,10.88,2.14,2.14,0,0,0,2.07,2c1.61.05,2.6-.5,2.76-2.25q.43-4.72.58-9.51a2.39,2.39,0,0,1,1.79-2.23m6.78,6.87c1.7-.71,8.3-1.47,7.95-3.76A1.3,1.3,0,0,0,354,8.06c-3.14-.2-9.61,1.15-10.76,4.48-.56,1.63-2.76,10.38,1.3,10a1.35,1.35,0,0,0,1.22-1.2l.83-7.49a1.07,1.07,0,0,1,.68-.91"/><path class="cls-2" d="M410.29,207.56l0,3.42a.21.21,0,0,0,.21.22l5.82.05c8.46.07,15.33-.67,15.34-1.67v-.26c0-1-6.84-1.86-15.3-1.93l-5.82,0a.22.22,0,0,0-.22.22"/><path class="cls-3" d="M383.42,151.55h-.05"/><path class="cls-3" d="M391.75,144.21c-3.36.42-6.25,3.89-8.33,7.34"/><path class="cls-1" d="M340.47,6.07l9.78-2.55a1,1,0,0,0,.66-.52A2.06,2.06,0,0,0,350.3.31a1.16,1.16,0,0,0-.88-.31,30.8,30.8,0,0,0-8.81,1.77c-3.68,1.33-5.13,1.73-6.21,5.45a29.93,29.93,0,0,0-1.13,10.88,2.14,2.14,0,0,0,2.07,2c1.61.05,2.6-.5,2.76-2.25q.43-4.72.58-9.51a2.39,2.39,0,0,1,1.79-2.23"/><path class="cls-1" d="M347.25,12.94c1.7-.71,8.3-1.47,7.95-3.76A1.3,1.3,0,0,0,354,8.06c-3.14-.2-9.61,1.15-10.76,4.48-.56,1.63-2.76,10.38,1.3,10a1.35,1.35,0,0,0,1.22-1.2l.83-7.49a1.07,1.07,0,0,1,.68-.91"/><path class="cls-4" d="M353.69,17l4-.95a1,1,0,0,0,.73-.69c.84-2.91-5.48-.6-6.23-.15-2.86,1.74-2.84,5.32-2.35,8.26a.61.61,0,0,0,.83.56l.76-.17a.69.69,0,0,0,.56-.59l1-5.49a.91.91,0,0,1,.73-.78"/><path class="cls-1" d="M296.19,203.82a.93.93,0,0,0-.93-.93h-.64a.93.93,0,0,0-.93.93v18a.93.93,0,0,0,.93.93h.64a.93.93,0,0,0,.93-.93v-18"/><path class="cls-1" d="M212.76,204.05a1,1,0,0,0-1-1h-.86a1,1,0,0,0-1,1l-.1,17.7a1,1,0,0,0,1,1h.86a1,1,0,0,0,1-1l.1-17.7"/><path class="cls-1" d="M351.46,203.9a.87.87,0,0,0-.86-.86h-.78a.87.87,0,0,0-.86.86v17.78a.87.87,0,0,0,.86.86h.78a.87.87,0,0,0,.86-.86V203.9"/><path class="cls-1" d="M280,206.7a.89.89,0,0,0-.89-.89h-4.94a.89.89,0,0,0-.89.89v.92a.89.89,0,0,0,.89.89h4.94a.89.89,0,0,0,.89-.89v-.92"/><path class="cls-1" d="M377.8,209.56a1.83,1.83,0,1,0-1.31-2,1.7,1.7,0,0,0,1.31,2"/><path class="cls-1" d="M404.27,210.21a2.07,2.07,0,1,0-1.08-2.35,1.84,1.84,0,0,0,1.08,2.35"/><path class="cls-1" d="M338.17,208.26a.94.94,0,0,0-1-.94l-4.74.07a1,1,0,0,0-.95,1l0,.7a1,1,0,0,0,1,.95l4.74-.07a1,1,0,0,0,.94-1v-.7"/><path class="cls-1" d="M410.29,207.56l0,3.42a.21.21,0,0,0,.21.22l5.82.05c8.46.07,15.33-.67,15.34-1.67v-.26c0-1-6.84-1.86-15.3-1.93l-5.82,0a.22.22,0,0,0-.22.22"/><path class="cls-1" d="M147.4,213.12l3.92.36a.7.7,0,0,0,.81-.53l.33-1a1,1,0,0,0-.67-1.29c-3.36-1.1-9.45-.53-7.72,4.87.64,2,3.06,3,4.87,3.93a1.92,1.92,0,0,1,.78.74l.45.76a.44.44,0,0,1-.29.65c-4.62.94-15.19,2.2-12.64-6.6a.72.72,0,0,0-.68-.91,2.16,2.16,0,0,0-2.19,2.1c-1.74,13,18.71,10.35,18.85,4.82.11-4.55-7-4.72-6.62-7.26a.65.65,0,0,1,.8-.61"/><path class="cls-1" d="M306.62,225.5l-2.38.47a.57.57,0,0,0-.5.75,1.88,1.88,0,0,0,2,1.59c6.37.37,5.53-8.69,5.21-14.07-.07-1.16-.66-2-1.9-1.27a1.54,1.54,0,0,0-.79,1.32l-.07,9.35a1.91,1.91,0,0,1-1.54,1.86"/><path class="cls-1" d="M396.39,226.67a1.74,1.74,0,1,0-1.74,1.74,1.74,1.74,0,0,0,1.74-1.74"/><path class="cls-1" d="M327.63,226.18a.64.64,0,0,0-.65-.63l-5.5.09a.64.64,0,0,0-.63.65l0,1.24a.65.65,0,0,0,.65.63l5.5-.09a.65.65,0,0,0,.63-.65l0-1.24"/><path class="cls-1" d="M143.2,227.53a.55.55,0,0,1-.52-.11,1.36,1.36,0,0,0-1.06-.35c-3.05.29-1.73,5,1.28,3.06a.82.82,0,0,1,.9,0,4,4,0,0,0,1.77.47,1.55,1.55,0,0,0,1.48-2.18,1.9,1.9,0,0,0-2.9-1.08,8.78,8.78,0,0,1-1,.23"/><path class="cls-1" d="M230.18,231.48a3,3,0,0,0-3.2.1.76.76,0,0,0-.28,1.17l.65,1.1a.76.76,0,0,0,1,.35,6.37,6.37,0,0,1,4.55,0,.56.56,0,0,0,.79-.33,2.36,2.36,0,0,0-.68-3.05.76.76,0,0,0-1,0l-.88.67a.81.81,0,0,1-1,.06"/><path class="cls-1" d="M340.47,6.07a2.39,2.39,0,0,0-1.79,2.23q-.15,4.79-.58,9.51c-.16,1.75-1.15,2.3-2.76,2.25a2.14,2.14,0,0,1-2.07-2A29.93,29.93,0,0,1,334.4,7.22c1.08-3.72,2.53-4.12,6.21-5.45A30.8,30.8,0,0,1,349.42,0a1.16,1.16,0,0,1,.88.31A2.06,2.06,0,0,1,350.91,3a1,1,0,0,1-.66.52l-9.78,2.55Z"/><path class="cls-1" d="M346.57,13.85l-.83,7.49a1.35,1.35,0,0,1-1.22,1.2c-4.06.38-1.86-8.37-1.3-10,1.15-3.33,7.62-4.68,10.76-4.48a1.3,1.3,0,0,1,1.22,1.12c.35,2.29-6.25,3.05-7.95,3.76a1.07,1.07,0,0,0-.68.91Z"/><path class="cls-1" d="M353,17.82l-1,5.49a.69.69,0,0,1-.56.59l-.76.17a.61.61,0,0,1-.83-.56c-.49-2.94-.51-6.52,2.35-8.26.75-.45,7.07-2.76,6.23.15a1,1,0,0,1-.73.69l-4,.95a.91.91,0,0,0-.73.78Z"/><path class="cls-1" d="M524,39.46l-55.52.25a.64.64,0,0,1-.67-.46c-3.92-10.32-8.88-23.31-21.81-24.69-17-1.81-26.81,21.68-29.6,34.48a21.69,21.69,0,0,0-.6,6.74c-.24,1.8.09,3.12,1,4a65.57,65.57,0,0,0,36,17.55l.09-.07a5.26,5.26,0,0,1-1.06,1c-5.13,7.91-25,4.39-32.56,2.12a1.1,1.1,0,0,0-1.4,1c-.19,6-.66,14.1,2,18.1,2,3,12.27,6.58,12.27,6.58v10.34c21.45-.35,42.11-.33,63,0a42.85,42.85,0,0,0-.12-11.63,1.45,1.45,0,0,0-1.59-1.39l-40.27-.17A32.23,32.23,0,0,0,466.88,88c1-2.23,4.67-21.59,3.78-32.67l-.21-4.68A.49.49,0,0,1,471,50c14,0,31.24,0,45.22,0l-.69,98.15a.59.59,0,0,1-.6.59c-31,0-67.6-.87-99-.9-.35-13.41-8.47-33.2-25.71-27.47-12.23,4.07-19.59,19.49-26.42,29.26a15.65,15.65,0,0,1-4.15,4,1.78,1.78,0,0,1-.95.3c-32.45.48-65.84-.45-101.45.11-2.64.05-7.59-1-7.83-4.76-.84-12.88-8.11-32.86-23.22-34.13-10.6-.9-25.25,10.56-33.24,16.72a.78.78,0,0,1-1.26-.62l0-7.18a1,1,0,0,0-1-1H176.37A1.34,1.34,0,0,0,175,124.4l-.16,28.74a.89.89,0,0,1-1,1q-41.34-.65-83.11-.07a30.26,30.26,0,0,1-9.36-1.59.93.93,0,0,1-.65-.65c-.72-2.34-.36-21.06-.64-28.31a.53.53,0,0,0-.53-.5l-15.33.07a.65.65,0,0,0-.69.59c-.23,1.36.06,30.75-.19,44.19C63,185.17,54.7,185.41,41,182.45a1.12,1.12,0,0,0-1.35,1.09v3.76a.44.44,0,0,1-.5.49l-28,0a.51.51,0,0,1-.51-.51l.28-98.95c-.06-.45.14-.66.59-.65,8.37.23,172,.34,245.4-.19a.76.76,0,0,1,.74.47c13.48,28.16,57.42,20.23,79.77,10.37.81-.36,6.87-13.39,5.56-20.7l-9.33-8.34q-1.21-1.08.27-.42,8.35,3.7,12.22,3.69,28.17-.07,56.19.78A99.46,99.46,0,0,0,404.93,54a.83.83,0,0,0-.82-.87c-13.55-.23-26.61,1.42-32.83-13.42a7.45,7.45,0,0,1-.84-3.74.91.91,0,0,1,.46-.79c8.63-5.27,19.94-4.21,29.47-2.65,0-4.24,1-16.2-.47-19.34a1.12,1.12,0,0,0-.76-.61q-18.79-4.61-32.67,5.77c-11.21,8.36-16.06,20.2-9,33.2a.86.86,0,0,1-.75,1.26c-10.88,0-23.31,1-33.74-1a92.67,92.67,0,0,1-12.29-3.34c-2.22-.77-2.89-.37-3.66,1.72-1,2.59-2.16,5.09-3.06,7.7-.8,2.34-1.76,5.25-1,7.71a13.6,13.6,0,0,1,2.82.81,16.06,16.06,0,0,1,2.22.94,41.68,41.68,0,0,1,5.14,3.16,117.8,117.8,0,0,1,10.42,8.34c1.44,1.28,2.86,2.57,4.23,3.92a.77.77,0,0,1,.08,1,23.11,23.11,0,0,1-4.92,2.2c-15.92,3-56.75,8.31-52.48-20.54q1.22-8.16,2.19-16.89a.84.84,0,0,0-.92-.93,80.21,80.21,0,0,0-10,1.7c-3.13.74-3.11,1.57-4,4.33A56.39,56.39,0,0,0,255,76.08a.92.92,0,0,1-.92,1Q131.42,77,8.47,77.27c-2.35,0-5.73.06-8.11.15C0,77.43,0,141,0,198.22c0,0,28.77-.6,39.64-.36a3.9,3.9,0,0,1,3.08,1.67,1.59,1.59,0,0,0,.78.57C53.64,203.66,62.78,202,71,195.56c1.81-1.43,9-14.35,8.91-19.51a3.11,3.11,0,0,1,.69-2.25h.53a1,1,0,0,1,.68.26q6,5.24,12.35,5.23H236.09c3.68,0,5.62-5.6,7.33-8a.51.51,0,0,1,.85-.09c5.53,5,8.34,8,16.39,8q46.26,0,92.52,0c8.15,0,13.33-1,17.93-7.37a1.28,1.28,0,0,1,.82-.53,4.69,4.69,0,0,1,2.75.37q15.82,6.65,22.8,9.63a3,3,0,0,0,3.5-.76c4.59-4.35,14-20.26,14.25-21.58l110.56.64.07-118.32A1.9,1.9,0,0,0,524,39.46Zm-70.7,15.21c-6.15-.61-15.69-3.14-20.12-7.58,4.1-10.79,13.48-8.72,18.42-.28a22.7,22.7,0,0,1,2.23,7.31C453.83,54.53,453.66,54.71,453.25,54.67ZM232,154.05H193.15a1.27,1.27,0,0,1-1.23-1c-.19-.76.27-1.33,1.36-1.7,9.1-5.54,28.63-18.33,36.84-5.34l2.84,6.47A1.09,1.09,0,0,1,232,154.05Zm166.82,4.75a.58.58,0,0,1-.75.29c-1.91-.81-14.67-5.93-14.67-7.53h0c2.09-3.47,5-7,8.38-7.34a4.82,4.82,0,0,1,1.2,0,7.35,7.35,0,0,1,4.17,2.1Q402,151.63,398.79,158.8Z"/><path class="cls-1" d="M273.38,219.16c-4.68-7.4,10.3-14,7.8.31-.07.41.1.61.52.58l4.13-.24a.6.6,0,0,0,.63-.66V204a1,1,0,0,1,.88-.95l1.39-.1c.49,0,.73.19.73.68v18.24a.75.75,0,0,1-.76.76l-20.27-.21a.79.79,0,0,0-.87.69q-1.59,7.15-8.84,5.1a1.18,1.18,0,0,1-.68-.5,2.18,2.18,0,0,1-.29-2.16.69.69,0,0,1,.86-.45c2.16.45,5.14,1.61,6.06-1.53a.5.5,0,0,0-.44-.73,17.52,17.52,0,0,1-5.41-1.8c-5.84-3.36,5.45-18.46,9-1.52a.69.69,0,0,0,.74.6l4.36,0c.71,0,.87-.31.49-.91m1.35-1.95,2.75,1.63a.85.85,0,0,0,1.18-.3l.14-.23c.93-1.58.78-3.41-.34-4.07l-.17-.1c-1.12-.66-2.79.08-3.73,1.66l-.13.24a.84.84,0,0,0,.3,1.17m-15.11,1,4.26,1.67a.49.49,0,0,0,.64-.28l.14-.35c.74-1.89.19-3.87-1.23-4.43h0c-1.42-.56-3.17.52-3.91,2.41l-.14.35a.5.5,0,0,0,.28.64Z"/><path class="cls-1" d="M161.19,223.09c.13,6.44-7.26,6.63-6.91,3.42a.52.52,0,0,1,.41-.48l3-.79a1,1,0,0,0,.77-.85,35.87,35.87,0,0,0,.15-10.65.56.56,0,0,1,.57-.72l1.56-.15c.51-.05.76.18.76.69v5.58a.58.58,0,0,0,.65.65l4.31,0a.63.63,0,0,0,.71-.71l.12-5.34a.94.94,0,0,1,.44-.81c1.05-.71,1.71.69,2.45,1.2a.74.74,0,0,0,.9,0c7.48-5,9.24-2.38,11.54,5a.8.8,0,0,0,.69.59c4.28.68,4.84-3.38,6.91-6,4.43-5.56,8,.94,7.48,5.27,0,.47.16.72.63.73l3.92.15a.71.71,0,0,0,.74-.71l0-15.63a.51.51,0,0,1,.44-.51c2-.26,2.6.13,2.5,2.16q-.34,7.72-.16,16.3a1.13,1.13,0,0,1-1,1.15,20.39,20.39,0,0,1-7.3-.52,1.71,1.71,0,0,0-1,0,6.25,6.25,0,0,1-6.19-1.09.84.84,0,0,0-1-.08l-3.19,1.68a1.1,1.1,0,0,1-.87.09,15,15,0,0,0-6.16-.11q-3.56.54-17.16-.26a.56.56,0,0,0-.68.65m8.93-3,9.48-.24a.29.29,0,0,0,.27-.29v-.14a4.91,4.91,0,0,0-5-4.81h-.28a4.92,4.92,0,0,0-4.75,5.07v.14a.28.28,0,0,0,.29.27m25-.91v-3.26a.85.85,0,0,0-.85-.85h-.1c-1.9,0-3.45,1-3.45,2.32v.32c0,1.28,1.54,2.32,3.45,2.32h.1a.85.85,0,0,0,.85-.85Z"/><path class="cls-1" d="M342,219V204a1,1,0,0,1,1.06-1l.93,0a.7.7,0,0,1,.76.79v17.71a1,1,0,0,1-.91,1c-3.65.34-6.81-.53-10.52-.12-2.74.31-5.86-.1-8.19,0q-4.12.15-8.19.37a2.06,2.06,0,0,1-2.17-2l-.25-17a.6.6,0,0,1,.66-.69l1.52-.06a.46.46,0,0,1,.53.52l.05,15a1.31,1.31,0,0,0,1.48,1.48h5a.76.76,0,0,0,.75-.75v-5.53a.54.54,0,0,1,.52-.6l.86-.11q.53-.06.54.45l.24,5.55a.63.63,0,0,0,.66.67l6,.37a.68.68,0,0,0,.72-.67c0-1.22-.77-7.11,1.66-6.44a.81.81,0,0,1,.65.8l.34,5.35a.62.62,0,0,0,.69.66h3.92A.66.66,0,0,0,342,219Z"/><path class="cls-5" d="M410.29,207.56a.22.22,0,0,1,.22-.22l5.82,0c8.46.07,15.31.94,15.3,1.93v.26c0,1-6.88,1.74-15.34,1.67l-5.82-.05a.21.21,0,0,1-.21-.22l0-3.42Z"/><path class="cls-1" d="M402.78,219.6c.37-2.89-.57-6.46,1.12-8.07a1,1,0,0,1,1.65.68l.21,9.64a.7.7,0,0,1-.8.82l-29.79,0a.79.79,0,0,0-.8.6l-.45,1.48a1.41,1.41,0,0,1-.49.71c-5.52,4.35-13.65.91-12.86-6.88a3.53,3.53,0,0,1,1.57-2.76.74.74,0,0,1,1.13.71c-.72,5.43,1.76,9.08,7.62,7.33a.69.69,0,0,0,.53-.7l.1-8.93a1,1,0,0,1,1.51-.86l1.27.74a1,1,0,0,0,1,0c8.29-4.85,8.72-2.22,11.48,5.14a.78.78,0,0,0,.76.55l5.15.17a.57.57,0,0,0,.67-.63l.11-5.33a1.16,1.16,0,0,1,.78-1.08c2.66-.94,1.93,4.82,2,6.12a.66.66,0,0,0,.68.7l5.13.39a.59.59,0,0,0,.71-.57m-27.82.55,8.6,0a.68.68,0,0,0,.67-.68v0a4.89,4.89,0,0,0-4.9-4.88h-.18a4.9,4.9,0,0,0-4.86,4.94v0a.66.66,0,0,0,.67.66Z"/><path class="cls-1" d="M250.35,211.62c-3,.09-5.24,5.07-6.84,7.29a1.18,1.18,0,0,1-.81.48,17.53,17.53,0,0,1-7.49-.57,1.43,1.43,0,0,0-2,1.24.79.79,0,0,0,.37.9l4.19,2.76a1,1,0,0,1-.28,1.83,17.67,17.67,0,0,1-10.14-.15,1.45,1.45,0,0,1-.9-.76,9.45,9.45,0,0,1-.88-5.84c.06-.38-.1-.57-.49-.58-2.81-.07-2.21,5-1.81,6.5,2,7.56,21.45,5.18,17.14-1.35-.31-.47-.19-.72.38-.75a8.66,8.66,0,0,0,5.07-1.86.88.88,0,0,1,1-.09c2.49,1.24,6,3.74,7.33-.67C255.13,216.76,254.83,211.48,250.35,211.62Zm1,8h-.05c-1.82.15-3.38-.77-3.48-2l0-.28c-.11-1.28,1.29-2.43,3.11-2.58h0a.8.8,0,0,1,.86.73l.27,3.31A.81.81,0,0,1,251.3,219.59Z"/><path class="cls-5" d="M144.71,238.92a1.7,1.7,0,0,1-1.7,1.7l-20.16,0a1.7,1.7,0,0,1-1.7-1.7v-1.52a1.7,1.7,0,0,1,1.7-1.7l20.16,0a1.7,1.7,0,0,1,1.7,1.7v1.52Z"/><rect class="cls-1" x="282.13" y="116.2" width="17.09" height="17.09" transform="translate(173.35 -169) rotate(45)"/><rect class="cls-1" x="302.68" y="116.2" width="17.09" height="17.09" transform="translate(179.37 -183.53) rotate(45)"/><rect class="cls-1" x="39.27" y="202.14" width="63.27" height="13.05"/></g></g></svg>