<?xml version="1.0" encoding="utf-8"?>
<!-- Generator: Adobe Illustrator 25.4.1, SVG Export Plug-In . SVG Version: 6.00 Build 0)  -->
<svg version="1.1" id="Capa_1" xmlns="http://www.w3.org/2000/svg" xmlns:xlink="http://www.w3.org/1999/xlink" x="0px" y="0px"
	 viewBox="0 0 55.3 36.7" style="enable-background:new 0 0 55.3 36.7;" xml:space="preserve">
<g>
	<path d="M24.2,0C10.8,0,0,10.8,0,24.2c0,0.1,0,0.1,0,0.2c0,0.2,0,0.5,0,0.7c0,6.2,5,11.2,11.2,11.2s11.2-5,11.2-11.2
		s-5-11.2-11.2-11.2c-2.1,0-4.1,0.6-5.8,1.6c3.3-7.1,10.5-12,18.8-12c1,0,1.7-0.8,1.7-1.7C25.9,0.8,25.1,0,24.2,0z"/>
	<path d="M53.6,0C40.2,0,29.4,10.8,29.4,24.2c0,0.1,0,0.1,0,0.2c0,0.2,0,0.5,0,0.7c0,6.2,5,11.2,11.2,11.2s11.2-5,11.2-11.2
		s-5-11.2-11.2-11.2c-2.1,0-4.1,0.6-5.8,1.6c3.3-7.1,10.5-12,18.8-12c1,0,1.7-0.8,1.7-1.7C55.3,0.8,54.5,0,53.6,0z"/>
</g>
</svg>
