<?xml version="1.0" encoding="utf-8"?>
<!-- Generator: Adobe Illustrator 25.4.1, SVG Export Plug-In . SVG Version: 6.00 Build 0)  -->
<svg version="1.1" id="Layer_1" xmlns="http://www.w3.org/2000/svg" xmlns:xlink="http://www.w3.org/1999/xlink" x="0px" y="0px"
	 viewBox="0 0 677.4 240.7" style="enable-background:new 0 0 677.4 240.7;" xml:space="preserve">
<style type="text/css">
	.st0{fill:#FFFFFF;}
	.st1{fill:#B9210A;}
</style>
<g id="Layer_2_00000178924946784831900450000009918005043711873682_">
	<g id="Layer_1-2">
		<path class="st0" d="M492,6.1l9.8-2.5c0.3-0.1,0.5-0.3,0.7-0.5c0.5-0.9,0.3-2.1-0.6-2.7c-0.2-0.2-0.6-0.3-0.9-0.3
			c-3,0.2-6,0.8-8.8,1.8c-3.7,1.3-5.1,1.7-6.2,5.4c-1,3.5-1.4,7.2-1.1,10.9c0.1,1.1,1,2,2.1,2c1.6,0,2.6-0.5,2.8-2.2
			c0.3-3.1,0.5-6.3,0.6-9.5C490.2,7.3,490.9,6.4,492,6.1 M498.7,13c1.7-0.7,8.3-1.5,8-3.8c-0.1-0.6-0.6-1.1-1.2-1.2
			c-3.1-0.2-9.6,1.1-10.8,4.5c-0.6,1.6-2.8,10.4,1.3,10c0.6-0.1,1.2-0.6,1.2-1.2l0.8-7.5C498.1,13.4,498.4,13.1,498.7,13"/>
		<path class="st0" d="M492,6.1l9.8-2.5c0.3-0.1,0.5-0.3,0.7-0.5c0.5-0.9,0.3-2.1-0.6-2.7c-0.2-0.2-0.6-0.3-0.9-0.3
			c-3,0.2-6,0.8-8.8,1.8c-3.7,1.3-5.1,1.7-6.2,5.4c-1,3.5-1.4,7.2-1.1,10.9c0.1,1.1,1,2,2.1,2c1.6,0,2.6-0.5,2.8-2.2
			c0.3-3.1,0.5-6.3,0.6-9.5C490.2,7.3,490.9,6.4,492,6.1"/>
		<path class="st0" d="M498.7,12.9c1.7-0.7,8.3-1.5,8-3.8c-0.1-0.6-0.6-1.1-1.2-1.1c-3.1-0.2-9.6,1.1-10.8,4.5
			c-0.6,1.6-2.8,10.4,1.3,10c0.6-0.1,1.2-0.6,1.2-1.2l0.8-7.5C498.1,13.4,498.4,13.1,498.7,12.9"/>
		<path class="st0" d="M447.7,203.8c0-0.5-0.4-0.9-0.9-0.9h-0.6c-0.5,0-0.9,0.4-0.9,0.9v18c0,0.5,0.4,0.9,0.9,0.9h0.6
			c0.5,0,0.9-0.4,0.9-0.9V203.8"/>
		<path class="st0" d="M364.3,204c0-0.6-0.4-1-1-1h-0.9c-0.6,0-1,0.4-1,1l-0.1,17.7c0,0.6,0.4,1,1,1h0.9c0.6,0,1-0.4,1-1L364.3,204"
			/>
		<path class="st0" d="M503,203.9c0-0.5-0.4-0.9-0.9-0.9h-0.8c-0.5,0-0.9,0.4-0.9,0.9v17.8c0,0.5,0.4,0.9,0.9,0.9h0.8
			c0.5,0,0.9-0.4,0.9-0.9V203.9"/>
		<path class="st0" d="M431.5,206.7c0-0.5-0.4-0.9-0.9-0.9l0,0h-4.9c-0.5,0-0.9,0.4-0.9,0.9l0,0v0.9c0,0.5,0.4,0.9,0.9,0.9l0,0h4.9
			c0.5,0,0.9-0.4,0.9-0.9l0,0V206.7"/>
		<path class="st0" d="M529.3,209.6c1,0.3,2-0.3,2.3-1.3s-0.3-2-1.3-2.3s-2,0.3-2.3,1.3c0,0.1,0,0.2-0.1,0.3
			C527.8,208.5,528.4,209.4,529.3,209.6"/>
		<path class="st0" d="M555.8,210.2c1,0.5,2.3,0.1,2.8-0.9s0.1-2.3-0.9-2.8s-2.3-0.1-2.8,0.9c-0.1,0.1-0.1,0.3-0.2,0.4
			C554.3,208.8,554.8,209.9,555.8,210.2"/>
		<path class="st0" d="M489.7,208.3c0-0.5-0.4-0.9-0.9-0.9c0,0,0,0-0.1,0l-4.7,0.1c-0.5,0-1,0.5-1,1v0.7c0,0.5,0.5,1,1,0.9l4.7-0.1
			c0.5,0,0.9-0.5,0.9-1L489.7,208.3"/>
		<path class="st0" d="M561.8,207.6v3.4c0,0.1,0.1,0.2,0.2,0.2l0,0l5.8,0.1c8.5,0.1,15.3-0.7,15.3-1.7v-0.3c0-1-6.8-1.9-15.3-1.9
			H562C561.9,207.4,561.8,207.5,561.8,207.6L561.8,207.6"/>
		<path class="st0" d="M298.9,213.1l3.9,0.4c0.4,0.1,0.7-0.2,0.8-0.5l0.3-1c0.2-0.5-0.1-1.1-0.6-1.3c0,0,0,0-0.1,0
			c-3.4-1.1-9.4-0.5-7.7,4.9c0.6,2,3.1,3,4.9,3.9c0.3,0.2,0.6,0.4,0.8,0.7l0.4,0.8c0.1,0.2,0,0.5-0.2,0.6h-0.1
			c-4.6,0.9-15.2,2.2-12.6-6.6c0.1-0.4-0.1-0.8-0.5-0.9c-0.1,0-0.1,0-0.2,0c-1.2,0-2.2,0.9-2.2,2.1c-1.7,13,18.7,10.4,18.9,4.8
			c0.1-4.6-7-4.7-6.6-7.3c0-0.4,0.3-0.6,0.7-0.6C298.8,213.1,298.9,213.1,298.9,213.1"/>
		<path class="st0" d="M458.1,225.5l-2.4,0.5c-0.3,0-0.6,0.3-0.5,0.6v0.1c0.1,1,1,1.7,2,1.6c6.4,0.4,5.5-8.7,5.2-14.1
			c-0.1-1.2-0.7-2-1.9-1.3c-0.5,0.3-0.8,0.8-0.8,1.3l-0.1,9.4C459.7,224.5,459,225.3,458.1,225.5"/>
		<path class="st0" d="M547.9,226.7c0-1-0.8-1.7-1.7-1.7c-1,0-1.7,0.8-1.7,1.7c0,1,0.8,1.7,1.7,1.7l0,0
			C547.1,228.4,547.9,227.6,547.9,226.7"/>
		<path class="st0" d="M479.1,226.2c0-0.4-0.3-0.6-0.6-0.6l0,0l-5.5,0.1c-0.4,0-0.6,0.3-0.6,0.6l0,0v1.2c0,0.4,0.3,0.6,0.6,0.6
			l5.5-0.1c0.4,0,0.6-0.3,0.6-0.6V226.2"/>
		<path class="st0" d="M294.7,227.5c-0.2,0.1-0.4,0-0.5-0.1c-0.3-0.3-0.7-0.4-1.1-0.4c-3.1,0.3-1.7,5,1.3,3.1c0.3-0.2,0.6-0.2,0.9,0
			c0.5,0.3,1.2,0.5,1.8,0.5c0.9,0,1.6-0.6,1.6-1.5c0-0.2,0-0.5-0.1-0.7c-0.3-1-1.3-1.6-2.3-1.3c-0.2,0.1-0.4,0.1-0.6,0.3
			C295.3,227.4,295,227.5,294.7,227.5"/>
		<path class="st0" d="M381.7,231.5c-1-0.6-2.2-0.5-3.2,0.1c-0.4,0.2-0.6,0.6-0.4,1c0,0.1,0.1,0.1,0.1,0.2l0.6,1.1
			c0.2,0.4,0.6,0.5,1,0.4c1.5-0.6,3.1-0.6,4.6,0c0.3,0.1,0.6,0,0.8-0.2V234c0.6-1,0.3-2.4-0.7-3.1c-0.3-0.3-0.7-0.3-1,0l-0.9,0.7
			C382.4,231.7,381.9,231.8,381.7,231.5"/>
		<path class="st0" d="M492,6.1c-1,0.3-1.8,1.2-1.8,2.2c-0.1,3.2-0.3,6.4-0.6,9.5c-0.2,1.8-1.1,2.3-2.8,2.2c-1.1,0-2-0.9-2.1-2
			c-0.3-3.7,0.1-7.3,1.1-10.8c1.1-3.7,2.5-4.1,6.2-5.4c2.8-1,5.8-1.6,8.8-1.8c0.3,0,0.6,0.1,0.9,0.3c0.9,0.6,1.1,1.8,0.6,2.7
			c-0.1,0.3-0.4,0.5-0.7,0.5C501.7,3.5,492,6.1,492,6.1z"/>
		<path class="st0" d="M498.1,13.8l-0.8,7.5c-0.1,0.6-0.6,1.1-1.2,1.2c-4.1,0.4-1.9-8.4-1.3-10c1.1-3.3,7.6-4.7,10.8-4.5
			c0.6,0,1.1,0.5,1.2,1.1c0.4,2.3-6.2,3.1-8,3.8C498.4,13.1,498.1,13.4,498.1,13.8L498.1,13.8z"/>
		<path class="st0" d="M504.5,17.8l-1,5.5c0,0.3-0.3,0.5-0.6,0.6l-0.8,0.2c-0.3,0.1-0.7,0-0.8-0.3c0-0.1,0-0.1,0-0.2
			c-0.5-2.9-0.5-6.5,2.4-8.3c0.8-0.4,7.1-2.8,6.2,0.1c-0.1,0.3-0.4,0.6-0.7,0.7l-4,1C504.8,17.1,504.5,17.4,504.5,17.8L504.5,17.8z"
			/>
		<path class="st0" d="M675.5,39.5L620,39.7c-0.3,0-0.6-0.2-0.7-0.5c-3.9-10.3-8.9-23.3-21.8-24.7c-17-1.8-26.8,21.7-29.6,34.5
			c-0.6,2.2-0.8,4.5-0.6,6.7c-0.2,1.8,0.1,3.1,1,4c9.9,9.5,22.5,15.6,36,17.6l0.1-0.1c-0.3,0.4-0.7,0.7-1.1,1
			c-5.1,7.9-25,4.4-32.6,2.1c-0.6-0.2-1.2,0.2-1.4,0.8c0,0.1,0,0.2,0,0.2c-0.2,6-0.7,14.1,2,18.1c2,3,12.3,6.6,12.3,6.6v10.3
			c21.5-0.3,42.1-0.3,63,0c0.5-3.9,0.4-7.8-0.1-11.6c0-0.8-0.7-1.4-1.5-1.4h-0.1l-40.3-0.2c6.1-3.4,10.9-8.8,13.7-15.2
			c1-2.2,4.7-21.6,3.8-32.7l-0.2-4.7c-0.1-0.3,0-0.5,0.3-0.6c0.1,0,0.2,0,0.3,0c14,0,31.2,0,45.2,0L667,148c0,0.3-0.3,0.6-0.6,0.6
			l0,0c-31,0-67.6-0.9-99-0.9c-0.4-13.4-8.5-33.2-25.7-27.5c-12.2,4.1-19.6,19.5-26.4,29.3c-1.1,1.6-2.5,2.9-4.1,4
			c-0.3,0.2-0.6,0.3-1,0.3c-32.5,0.5-65.8-0.4-101.4,0.1c-2.6,0.1-7.6-1-7.8-4.8c-0.8-12.9-8.1-32.9-23.2-34.1
			c-10.6-0.9-25.2,10.6-33.2,16.7c-0.3,0.3-0.8,0.2-1.1-0.1c-0.1-0.1-0.2-0.3-0.2-0.5v-7.2c0-0.6-0.4-1-1-1H328
			c-0.7,0-1.4,0.6-1.4,1.3l0,0l-0.2,28.7c0.1,0.5-0.3,0.9-0.8,1c-0.1,0-0.2,0-0.2,0c-27.6-0.4-55.3-0.5-83.1-0.1
			c-3.2,0-6.3-0.6-9.4-1.6c-0.3-0.1-0.6-0.3-0.7-0.6c-0.7-2.3-0.4-21.1-0.6-28.3c0-0.3-0.2-0.5-0.5-0.5l-15.3,0.1
			c-0.4,0-0.7,0.2-0.7,0.6c-0.2,1.4,0.1,30.7-0.2,44.2c-0.3,17.3-8.6,17.5-22.3,14.6c-0.6-0.1-1.2,0.3-1.3,0.9c0,0.1,0,0.1,0,0.2
			v3.8c0,0.2-0.1,0.5-0.4,0.5h-0.1h-28c-0.3,0-0.5-0.2-0.5-0.5l0.3-98.9c-0.1-0.4,0.1-0.7,0.6-0.7c8.4,0.2,172,0.3,245.4-0.2
			c0.3,0,0.6,0.2,0.7,0.5c13.5,28.2,57.4,20.2,79.8,10.4c0.8-0.4,6.9-13.4,5.6-20.7l-9.3-8.3c-0.8-0.7-0.7-0.9,0.3-0.4
			c5.6,2.5,9.6,3.7,12.2,3.7c18.8,0,37.5,0.2,56.2,0.8c1.5-6.3,2.4-12.8,2.6-19.3c0-0.5-0.3-0.8-0.8-0.9l0,0
			c-13.5-0.2-26.6,1.4-32.8-13.4c-0.6-1.2-0.9-2.4-0.8-3.7c0-0.3,0.2-0.6,0.5-0.8c8.6-5.3,19.9-4.2,29.5-2.7c0-4.2,1-16.2-0.5-19.3
			c-0.1-0.3-0.4-0.5-0.8-0.6c-12.5-3.1-23.4-1.1-32.7,5.8c-11.2,8.4-16.1,20.2-9,33.2c0.2,0.4,0.1,0.9-0.4,1.2
			c-0.1,0.1-0.3,0.1-0.4,0.1c-10.9,0-23.3,1-33.7-1c-4.2-0.8-8.3-1.9-12.3-3.3c-2.2-0.8-2.9-0.4-3.7,1.7c-1,2.6-2.2,5.1-3.1,7.7
			c-0.8,2.3-1.8,5.2-1,7.7c1,0.2,1.9,0.4,2.8,0.8c0.8,0.3,1.5,0.6,2.2,0.9c1.8,0.9,3.5,2,5.1,3.2c3.6,2.6,7.1,5.4,10.4,8.3
			c1.4,1.3,2.9,2.6,4.2,3.9c0.3,0.3,0.3,0.7,0.1,1c-1.5,0.9-3.2,1.7-4.9,2.2c-15.9,3-56.8,8.3-52.5-20.5c0.8-5.4,1.5-11.1,2.2-16.9
			c0.1-0.5-0.3-0.9-0.7-0.9c-0.1,0-0.1,0-0.2,0c-3.4,0.4-6.7,0.9-10,1.7c-3.1,0.7-3.1,1.6-4,4.3c-2.4,7.2-3.4,14.9-2.7,22.4
			c0,0.5-0.3,1-0.8,1h-0.1c-81.8-0.1-163.6,0-245.6,0.2c-2.3,0-5.7,0.1-8.1,0.2c-0.6-0.2-0.6,63.4-0.6,120.6c0,0,28.8-0.6,39.6-0.4
			c1.2,0,2.4,0.7,3.1,1.7c0.2,0.3,0.5,0.5,0.8,0.6c10.1,3.6,19.3,1.9,27.5-4.5c1.8-1.4,9-14.4,8.9-19.5c-0.1-0.8,0.2-1.6,0.7-2.2
			h0.5c0.3,0,0.5,0.1,0.7,0.3c4,3.5,8.1,5.2,12.3,5.2h141.9c3.7,0,5.6-5.6,7.3-8c0.1-0.3,0.4-0.4,0.7-0.2c0.1,0,0.1,0.1,0.2,0.1
			c5.5,5,8.3,8,16.4,8c30.8,0,61.7,0,92.5,0c8.1,0,13.3-1,17.9-7.4c0.2-0.3,0.5-0.5,0.8-0.5c0.9-0.2,1.9,0,2.8,0.4
			c10.5,4.4,18.1,7.6,22.8,9.6c1.2,0.5,2.6,0.2,3.5-0.8c4.6-4.4,14-20.3,14.2-21.6l110.6,0.6l0.1-118.3
			C677.3,40.3,676.5,39.5,675.5,39.5z M604.8,54.7c-6.1-0.6-15.7-3.1-20.1-7.6c4.1-10.8,13.5-8.7,18.4-0.3c1.2,2.3,1.9,4.8,2.2,7.3
			C605.3,54.5,605.2,54.7,604.8,54.7L604.8,54.7z M383.5,154h-38.9c-0.6,0-1.1-0.4-1.2-1c-0.2-0.8,0.3-1.3,1.4-1.7
			c9.1-5.5,28.6-18.3,36.8-5.3l2.8,6.5c0.3,0.5,0,1.2-0.5,1.5C383.8,154,383.7,154,383.5,154z M550.3,158.8
			c-0.1,0.3-0.5,0.4-0.8,0.3c-1.9-0.8-14.7-5.9-14.7-7.5l0,0c2.1-3.5,5-7,8.4-7.3c0.4,0,0.8,0,1.2,0c1.6,0.2,3,1,4.2,2.1
			C551.9,149.9,552.4,154,550.3,158.8L550.3,158.8z"/>
		<path class="st0" d="M424.9,219.2c-4.7-7.4,10.3-14,7.8,0.3c-0.1,0.4,0.1,0.6,0.5,0.6l4.1-0.2c0.3,0,0.6-0.2,0.6-0.6v-0.1V204
			c0-0.5,0.4-0.9,0.9-0.9l1.4-0.1c0.5,0,0.7,0.2,0.7,0.7v18.2c0,0.4-0.3,0.8-0.7,0.8l0,0l-20.3-0.2c-0.4,0-0.8,0.3-0.9,0.7
			c-1.1,4.8-4,6.5-8.8,5.1c-0.3-0.1-0.5-0.3-0.7-0.5c-0.5-0.6-0.6-1.4-0.3-2.2c0.1-0.4,0.5-0.6,0.9-0.4c2.2,0.4,5.1,1.6,6.1-1.5
			c0.1-0.2,0-0.5-0.2-0.7c-0.1,0-0.1-0.1-0.2-0.1c-1.9-0.3-3.7-0.9-5.4-1.8c-5.8-3.4,5.5-18.5,9-1.5c0,0.4,0.4,0.6,0.7,0.6h4.4
			C425.1,220.1,425.3,219.8,424.9,219.2 M426.3,217.3l2.8,1.6c0.4,0.2,0.9,0.1,1.2-0.3l0,0l0.1-0.2c0.9-1.6,0.8-3.4-0.3-4.1
			l-0.2-0.1c-1.1-0.7-2.8,0.1-3.7,1.7l-0.1,0.2C425.7,216.5,425.8,217,426.3,217.3C426.2,217.3,426.3,217.3,426.3,217.3
			 M411.1,218.3l4.3,1.7c0.3,0.1,0.5,0,0.6-0.3l0,0l0.1-0.4c0.7-1.9,0.2-3.9-1.2-4.4l0,0c-1.4-0.6-3.2,0.5-3.9,2.4l-0.1,0.4
			C410.8,217.9,410.9,218.2,411.1,218.3L411.1,218.3z"/>
		<path class="st0" d="M312.7,223.1c0.1,6.4-7.3,6.6-6.9,3.4c0-0.2,0.2-0.4,0.4-0.5l3-0.8c0.4-0.1,0.7-0.4,0.8-0.9
			c0.6-3.5,0.6-7.1,0.1-10.6c-0.1-0.3,0.1-0.6,0.4-0.7c0.1,0,0.1,0,0.2,0l1.6-0.1c0.5-0.1,0.8,0.2,0.8,0.7v5.6
			c0,0.3,0.2,0.6,0.5,0.6h0.1h4.3c0.3,0,0.7-0.2,0.7-0.5c0-0.1,0-0.1,0-0.2l0.1-5.3c0-0.3,0.2-0.6,0.4-0.8c1.1-0.7,1.7,0.7,2.4,1.2
			c0.3,0.2,0.6,0.2,0.9,0c7.5-5,9.2-2.4,11.5,5c0.1,0.3,0.4,0.6,0.7,0.6c4.3,0.7,4.8-3.4,6.9-6c4.4-5.6,8,0.9,7.5,5.3
			c0,0.5,0.2,0.7,0.6,0.7l3.9,0.1c0.4,0,0.7-0.3,0.7-0.7l0,0v-15.6c0-0.3,0.2-0.5,0.4-0.5c2-0.3,2.6,0.1,2.5,2.2
			c-0.2,5.1-0.3,10.6-0.2,16.3c0,0.6-0.4,1.1-1,1.1c-2.4,0.3-4.9,0.1-7.3-0.5c-0.3-0.1-0.7-0.1-1,0c-2.1,0.8-4.5,0.4-6.2-1.1
			c-0.3-0.2-0.7-0.3-1-0.1l-3.2,1.7c-0.3,0.1-0.6,0.2-0.9,0.1c-2-0.5-4.1-0.5-6.2-0.1c-2.4,0.4-8.1,0.3-17.2-0.3
			c-0.3-0.1-0.6,0.1-0.7,0.4c0,0.1,0,0.2,0,0.2 M321.6,220l9.5-0.2c0.2,0,0.3-0.1,0.3-0.3v-0.1c-0.1-2.7-2.3-4.9-5-4.8h-0.3
			c-2.7,0.1-4.8,2.4-4.8,5.1v0.1C321.4,219.9,321.5,220,321.6,220C321.7,220,321.7,220,321.6,220 M346.7,219.1v-3.3
			c0-0.5-0.4-0.9-0.8-0.9l0,0h-0.1c-1.9,0-3.4,1-3.4,2.3v0.3c0,1.3,1.5,2.3,3.4,2.3h0.1C346.3,219.9,346.7,219.5,346.7,219.1
			L346.7,219.1L346.7,219.1z"/>
		<path class="st0" d="M493.5,219v-15c0-0.6,0.4-1,1-1c0,0,0,0,0.1,0h0.9c0.4,0,0.7,0.2,0.8,0.6c0,0.1,0,0.1,0,0.2v17.7
			c0,0.5-0.4,1-0.9,1c-3.6,0.3-6.8-0.5-10.5-0.1c-2.7,0.3-5.9-0.1-8.2,0c-2.7,0.1-5.5,0.2-8.2,0.4c-1.1,0.1-2.1-0.8-2.2-1.9
			c0,0,0,0,0-0.1l-0.2-17c-0.1-0.3,0.2-0.6,0.5-0.7c0.1,0,0.1,0,0.2,0l1.5-0.1c0.3,0,0.5,0.1,0.5,0.4v0.1v15
			c-0.1,0.7,0.4,1.4,1.1,1.5c0.1,0,0.2,0,0.4,0h5c0.4,0,0.7-0.3,0.8-0.8v-5.5c0-0.3,0.2-0.6,0.5-0.6l0,0l0.9-0.1
			c0.4,0,0.5,0.1,0.5,0.4l0.2,5.6c0,0.3,0.2,0.6,0.6,0.7c0,0,0,0,0.1,0l6,0.4c0.4,0,0.7-0.3,0.7-0.6l0,0c0-1.2-0.8-7.1,1.7-6.4
			c0.4,0.1,0.7,0.4,0.6,0.8l0.3,5.4c0,0.3,0.2,0.6,0.6,0.7h0.1h3.9c0.4,0,0.7-0.3,0.7-0.6C493.5,219.1,493.5,219,493.5,219z"/>
		<path class="st1" d="M561.8,207.6c0-0.1,0.1-0.2,0.2-0.2l0,0h5.8c8.5,0.1,15.3,0.9,15.3,1.9v0.3c0,1-6.9,1.7-15.3,1.7l-5.8-0.1
			c-0.1,0-0.2-0.1-0.2-0.2l0,0V207.6L561.8,207.6z"/>
		<path class="st0" d="M554.3,219.6c0.4-2.9-0.6-6.5,1.1-8.1c0.4-0.4,1-0.3,1.4,0.1c0.1,0.2,0.2,0.4,0.2,0.6l0.2,9.6
			c0.1,0.4-0.2,0.7-0.6,0.8c-0.1,0-0.2,0-0.2,0h-29.8c-0.4,0-0.7,0.2-0.8,0.6l-0.5,1.5c-0.1,0.3-0.3,0.5-0.5,0.7
			c-5.5,4.4-13.6,0.9-12.9-6.9c0.1-1.1,0.6-2.1,1.6-2.8c0.3-0.2,0.8-0.1,1,0.2c0.1,0.1,0.1,0.3,0.1,0.5c-0.7,5.4,1.8,9.1,7.6,7.3
			c0.3-0.1,0.5-0.4,0.5-0.7l0.1-8.9c0-0.6,0.4-1,1-1c0.2,0,0.4,0,0.5,0.1l1.3,0.7c0.3,0.2,0.7,0.2,1,0c8.3-4.9,8.7-2.2,11.5,5.1
			c0.1,0.3,0.4,0.6,0.8,0.6l5.1,0.2c0.3,0.1,0.6-0.1,0.7-0.5c0-0.1,0-0.1,0-0.2l0.1-5.3c0-0.5,0.3-0.9,0.8-1.1
			c2.7-0.9,1.9,4.8,2,6.1c0,0.4,0.3,0.7,0.6,0.7c0,0,0,0,0.1,0l5.1,0.4C553.9,220.2,554.2,220,554.3,219.6L554.3,219.6 M526.5,220.1
			h8.6c0.4,0,0.7-0.3,0.7-0.7l0,0c0-2.7-2.2-4.9-4.9-4.9l0,0h-0.2c-2.7,0-4.9,2.2-4.9,4.9l0,0l0,0
			C525.8,219.9,526.1,220.2,526.5,220.1C526.4,220.2,526.4,220.2,526.5,220.1L526.5,220.1z"/>
		<path class="st0" d="M401.9,211.6c-3,0.1-5.2,5.1-6.8,7.3c-0.2,0.3-0.5,0.4-0.8,0.5c-2.5,0.4-5.1,0.2-7.5-0.6
			c-0.7-0.3-1.6,0-1.9,0.7c-0.1,0.2-0.1,0.3-0.1,0.5c-0.1,0.3,0.1,0.7,0.4,0.9l4.2,2.8c0.5,0.3,0.6,0.9,0.3,1.4
			c-0.1,0.2-0.4,0.4-0.6,0.5c-3.3,0.9-6.8,0.9-10.1-0.1c-0.4-0.1-0.7-0.4-0.9-0.8c-0.9-1.8-1.2-3.8-0.9-5.8c0.1-0.4-0.1-0.6-0.5-0.6
			c-2.8-0.1-2.2,5-1.8,6.5c2,7.6,21.4,5.2,17.1-1.4c-0.3-0.5-0.2-0.7,0.4-0.8c1.8-0.1,3.6-0.7,5.1-1.9c0.3-0.2,0.7-0.3,1-0.1
			c2.5,1.2,6,3.7,7.3-0.7C406.6,216.8,406.3,211.5,401.9,211.6z M402.9,219.6L402.9,219.6c-1.9,0.1-3.4-0.8-3.5-2v-0.3
			c-0.1-1.3,1.3-2.4,3.1-2.6l0,0c0.4,0,0.8,0.3,0.9,0.7l0.3,3.3C403.6,219.2,403.2,219.6,402.9,219.6L402.9,219.6z"/>
		<path class="st1" d="M296.2,238.9c0,0.9-0.8,1.7-1.7,1.7h-20.2c-0.9,0-1.7-0.8-1.7-1.7v-1.5c0-0.9,0.8-1.7,1.7-1.7h20.2
			c0.9,0,1.7,0.8,1.7,1.7V238.9z"/>
		
			<rect x="433.6" y="116.2" transform="matrix(0.7071 -0.7071 0.7071 0.7071 41.281 349.204)" class="st0" width="17.1" height="17.1"/>
		
			<rect x="454.2" y="116.2" transform="matrix(0.7071 -0.7071 0.7071 0.7071 47.3343 363.7497)" class="st0" width="17.1" height="17.1"/>
		<rect x="190.8" y="202.1" class="st0" width="63.3" height="13.1"/>
	</g>
</g>
<g>
	<polygon class="st0" points="102.3,103.5 0.1,103.5 33.2,192.4 0.1,240.7 102.3,240.7 69.2,192.4 	"/>
	<path class="st0" d="M39.7,50.4L0.1,95.5h102.2L62.6,50.4h-8.9v-4.8c6-0.9,11.3-4.2,14.8-8.8c-3.6,3.6-8.6,5.8-14.1,5.8
		c-0.2,0-0.5,0-0.7,0V20.9h8.5v-5.1h-8.5V7.4h-5.1v8.3h-8.5v5.1h8.5v20.9c-8.2-2.5-14.2-10.1-14.2-19.1c0-11.1,9-20,20-20
		c4.3,0,8.3,1.3,11.5,3.7C61.9,2.4,56.3,0,50.2,0c-12.7,0-23,10.3-23,23c0,12.2,9.4,22.1,21.4,22.9v4.6H39.7z"/>
</g>
</svg>
