<?xml version="1.0" standalone="no"?>
<!DOCTYPE svg PUBLIC "-//W3C//DTD SVG 20010904//EN"
 "http://www.w3.org/TR/2001/REC-SVG-20010904/DTD/svg10.dtd">
<svg version="1.0" xmlns="http://www.w3.org/2000/svg"
 width="1080.000000pt" height="1080.000000pt" viewBox="0 0 1080.000000 1080.000000"
 preserveAspectRatio="xMidYMid meet">

<g transform="translate(0.000000,1080.000000) scale(0.100000,-0.100000)"
fill="#000000" stroke="none">
<path d="M3792 9502 c-31 -28 -34 -54 -4 -29 13 9 14 9 8 0 -5 -9 -2 -11 9 -7
8 4 22 1 29 -6 8 -6 32 -10 53 -8 31 2 39 7 41 27 3 16 -1 22 -10 19 -7 -3
-17 1 -23 8 -5 7 -24 15 -40 18 -25 5 -37 1 -63 -22z"/>
<path d="M7075 9470 c-3 -5 -1 -10 4 -10 6 0 11 5 11 10 0 6 -2 10 -4 10 -3 0
-8 -4 -11 -10z"/>
<path d="M7200 9449 c0 -18 4 -19 38 -13 20 4 39 8 41 10 8 7 -3 11 -41 17
-33 5 -38 3 -38 -14z"/>
<path d="M3667 9433 c-24 -10 -37 -22 -37 -33 0 -10 -3 -25 -6 -33 -3 -8 2
-17 13 -21 10 -4 19 -2 21 3 7 21 24 11 19 -10 -3 -12 1 -36 10 -53 15 -32 14
-34 -12 -60 -32 -32 -85 -38 -111 -12 -11 11 -25 15 -40 12 -33 -9 -38 9 -9
28 21 14 23 19 13 41 -6 13 -15 22 -20 19 -6 -4 -5 -11 1 -17 6 -6 11 -18 11
-26 0 -12 -3 -12 -12 -3 -7 7 -20 12 -30 12 -10 0 -18 5 -18 11 0 7 -7 17 -17
24 -15 11 -14 14 5 33 21 21 8 33 -13 13 -6 -5 -32 -6 -60 -1 -51 8 -75 0 -75
-26 0 -16 -46 -41 -103 -58 -37 -11 -39 -12 -24 -28 35 -35 16 -63 -48 -72
-22 -3 -41 -5 -42 -6 -1 0 0 -6 3 -14 3 -8 19 -20 36 -27 33 -13 108 -79 90
-79 -13 0 -10 -24 7 -44 19 -23 34 -20 49 11 16 36 15 43 -7 43 -25 0 -34 14
-26 40 8 25 72 28 89 5 9 -13 34 -16 116 -17 92 0 111 -4 152 -26 51 -27 70
-62 70 -128 0 -44 17 -44 73 1 55 46 65 90 30 142 l-25 35 21 30 c15 20 21 45
21 80 0 42 6 58 34 95 26 34 33 50 28 70 -5 18 -3 24 5 19 13 -8 14 3 2 23 -7
11 -11 10 -20 -5 -9 -13 -14 -15 -17 -6 -3 6 -12 12 -20 12 -9 0 -13 3 -11 8
9 13 -79 10 -116 -5z m93 -243 c0 -5 -2 -10 -4 -10 -3 0 -8 5 -11 10 -3 6 -1
10 4 10 6 0 11 -4 11 -10z m-530 -160 c0 -5 -5 -10 -11 -10 -5 0 -7 5 -4 10 3
6 8 10 11 10 2 0 4 -4 4 -10z"/>
<path d="M7794 9390 c-14 -22 -26 -30 -53 -32 -29 -2 -37 -7 -39 -27 -6 -43
-25 -53 -76 -39 -37 10 -47 9 -62 -3 -11 -9 -34 -13 -65 -11 -30 3 -60 -2 -80
-12 -42 -21 -109 -22 -109 -1 0 19 -78 21 -128 3 -28 -10 -36 -10 -39 0 -8 21
-23 13 -23 -12 0 -13 7 -26 15 -30 8 -3 15 -10 15 -16 0 -5 -7 -10 -15 -10
-25 0 -17 -34 12 -47 15 -7 33 -13 41 -13 9 0 12 -6 8 -16 -4 -10 -2 -13 6 -8
8 5 9 2 3 -12 -20 -47 -18 -84 6 -103 20 -16 25 -17 32 -5 4 8 18 14 29 14 21
0 21 1 3 13 -12 10 -14 16 -7 21 7 4 12 4 12 -1 0 -4 26 -7 57 -6 42 1 50 0
28 -6 l-30 -7 35 -6 c19 -4 43 -9 53 -13 11 -5 17 -2 17 8 0 28 73 39 84 12 8
-22 44 -18 56 6 10 17 8 21 -9 26 -25 6 -48 63 -25 63 7 0 14 5 14 10 0 20 41
50 69 50 16 0 31 5 33 11 5 16 118 16 128 -1 7 -11 13 -11 39 0 17 7 31 18 31
25 0 7 6 18 14 24 30 25 26 50 -15 79 -37 26 -50 54 -29 67 15 9 12 35 -4 35
-8 0 -23 -13 -32 -30z m-587 -332 c-3 -8 -6 -5 -6 6 -1 11 2 17 5 13 3 -3 4
-12 1 -19z m43 -38 c0 -5 -5 -10 -11 -10 -5 0 -7 5 -4 10 3 6 8 10 11 10 2 0
4 -4 4 -10z"/>
<path d="M4490 9381 c0 -12 5 -21 10 -21 6 0 10 6 10 14 0 8 -4 18 -10 21 -5
3 -10 -3 -10 -14z"/>
<path d="M8018 9213 c-23 -6 -23 -15 2 -31 11 -6 17 -18 14 -26 -3 -8 4 -16
18 -20 l23 -7 -22 -11 c-25 -12 -39 -70 -15 -66 10 2 15 -10 18 -42 5 -50 14
-59 52 -53 23 3 24 2 7 -6 -19 -9 -19 -10 3 -10 12 -1 22 5 23 12 0 6 2 20 4
30 2 9 1 17 -2 17 -3 0 -12 -8 -19 -17 -12 -17 -14 -17 -31 0 -10 10 -13 17
-5 17 7 0 12 5 12 11 0 5 -6 7 -12 3 -10 -5 -10 -4 -2 5 7 7 34 15 60 18 27 2
53 8 58 13 12 12 -2 30 -25 30 -21 0 -26 25 -6 33 7 3 4 6 -7 6 -12 1 -16 6
-12 16 3 8 0 15 -7 16 -7 1 -20 2 -29 3 -10 0 -17 3 -16 6 4 9 -45 60 -56 59
-6 -1 -19 -3 -28 -6z"/>
<path d="M4759 9203 c-9 -2 -42 -54 -74 -116 -31 -62 -61 -116 -65 -122 -12
-15 -74 -170 -99 -247 -13 -38 -27 -68 -32 -68 -6 0 -8 -4 -5 -8 9 -14 -25
-71 -40 -65 -8 3 -15 -4 -19 -19 -7 -28 -68 -70 -90 -62 -8 3 -15 1 -15 -5 0
-6 -9 -11 -20 -11 -11 0 -20 7 -20 15 0 20 -24 29 -46 17 -13 -7 -26 -4 -48 9
-33 20 -82 26 -71 9 3 -5 -3 -10 -15 -10 -12 0 -19 4 -15 10 9 15 -73 94 -88
83 -6 -5 -27 -10 -44 -12 -34 -3 -37 1 -33 50 1 24 -3 27 -39 31 -32 3 -41 0
-41 -12 0 -8 -3 -25 -6 -37 -4 -15 -2 -23 6 -23 7 0 10 6 7 13 -3 9 5 13 28
13 18 0 31 -5 30 -10 -14 -47 -14 -64 1 -70 8 -3 13 -2 10 3 -4 5 3 7 15 4 12
-3 18 -11 15 -19 -3 -7 7 -25 22 -39 98 -90 114 -105 119 -105 3 0 22 -17 43
-39 21 -21 42 -40 48 -42 6 -2 47 -38 93 -79 45 -41 85 -76 89 -78 4 -2 11 7
15 20 l8 23 4 -25 c10 -53 -61 -251 -109 -301 -36 -39 -39 -45 -25 -72 10 -19
17 -23 28 -16 21 13 39 11 39 -6 0 -8 -4 -15 -10 -15 -5 0 -10 -7 -10 -15 0
-14 -46 -44 -53 -34 -1 2 -15 27 -29 54 -15 28 -33 50 -40 50 -7 0 -19 -20
-27 -45 -8 -25 -18 -46 -23 -48 -9 -4 -11 -32 -2 -32 3 0 14 5 25 10 15 9 19
7 19 -7 0 -10 2 -94 5 -187 3 -109 1 -174 -6 -182 -16 -20 9 -28 30 -10 26 23
41 20 41 -10 0 -14 5 -56 11 -94 11 -64 15 -71 50 -96 46 -31 47 -39 15 -68
-34 -29 -43 -71 -19 -84 17 -9 21 -5 32 34 7 24 19 44 26 44 13 0 27 -53 21
-80 -23 -114 -32 -140 -43 -140 -8 0 -33 20 -56 45 -24 25 -47 45 -51 45 -12
0 -45 43 -46 59 0 8 -6 11 -16 7 -22 -8 -44 11 -44 39 0 35 -28 106 -48 121
-9 7 -23 11 -31 8 -15 -5 -31 12 -31 34 0 6 8 12 18 12 14 0 15 2 2 9 -8 6
-18 7 -23 4 -5 -3 -8 12 -5 35 2 22 0 38 -4 36 -4 -3 -11 8 -14 23 -5 17 -3
28 4 31 26 8 11 24 -18 19 -25 -6 -30 -3 -30 14 0 11 7 22 15 25 16 7 21 44 6
44 -14 0 -34 108 -26 144 5 26 11 69 17 124 1 6 5 12 10 12 4 0 8 9 8 20 0 12
7 20 17 20 15 0 14 2 -3 15 -18 14 -18 15 10 38 24 19 28 29 22 50 -3 15 -10
26 -14 26 -4 -1 -15 -1 -26 0 -14 1 -16 4 -7 15 12 15 -4 26 -37 26 -16 -1
-15 -2 1 -14 9 -7 17 -16 17 -20 0 -12 -28 -6 -40 9 -7 8 -25 15 -40 15 -16 0
-30 5 -32 11 -3 8 -10 8 -26 -2 -33 -21 -49 0 -34 47 11 36 9 54 -6 54 -4 0
-15 -75 -25 -167 -24 -218 -26 -236 -37 -313 -5 -36 -12 -85 -15 -110 -3 -25
-10 -70 -15 -100 -5 -30 -14 -100 -20 -155 -6 -55 -13 -118 -16 -140 -3 -22
-12 -94 -19 -160 -8 -66 -19 -140 -24 -165 -6 -25 -10 -60 -11 -77 l0 -33 168
1 167 2 -83 11 c-45 6 -81 16 -80 21 2 6 57 10 138 10 220 1 260 4 260 18 0 8
16 11 55 9 30 -2 55 -7 55 -12 0 -4 23 -10 50 -13 63 -8 76 -15 55 -31 -16
-11 -15 -14 6 -27 18 -11 53 -13 142 -11 64 2 117 7 117 11 0 7 -70 26 -130
35 -24 3 -24 3 3 5 15 0 27 5 27 9 0 15 -35 41 -70 53 -45 16 -112 82 -104
103 8 20 36 36 63 36 29 0 33 -13 14 -50 -16 -32 -15 -34 6 -52 17 -13 28 -15
41 -8 10 6 30 10 44 10 20 0 26 -5 26 -22 0 -13 12 -31 26 -41 24 -18 25 -18
59 3 l35 22 0 -21 c0 -17 6 -21 33 -21 34 0 87 20 87 33 0 4 7 7 15 7 8 0 18
12 21 28 8 31 33 64 44 57 13 -8 27 18 35 64 9 54 22 67 121 121 90 50 92 51
100 103 6 34 8 36 20 20 8 -11 13 -13 14 -5 0 17 20 15 20 -3 0 -20 10 -19 40
5 20 15 21 20 8 20 -9 0 -20 5 -24 12 -5 8 -2 9 9 5 22 -8 22 12 2 60 -9 20
-25 73 -36 116 -16 65 -18 82 -7 88 53 34 284 71 275 45 -2 -6 -14 -13 -28
-14 -13 -2 -28 -8 -34 -13 -6 -6 4 -7 25 -2 19 4 46 7 60 8 24 0 25 -2 25 -65
0 -55 3 -66 18 -70 18 -5 18 -7 -2 -32 -13 -16 -17 -29 -11 -33 18 -11 10 -35
-16 -45 -14 -6 -22 -14 -19 -20 4 -7 12 -7 25 0 38 20 90 6 90 -25 0 -6 -13
-16 -30 -22 -71 -27 -6 -55 68 -29 26 10 67 23 92 30 25 7 59 20 77 29 39 20
40 21 46 3 3 -7 0 -13 -6 -13 -49 1 -55 -3 -48 -30 l7 -28 162 -3 c140 -2 162
0 162 13 0 20 4 19 53 -9 23 -13 78 -36 122 -51 101 -35 232 -110 241 -137 3
-11 -2 -37 -12 -59 -17 -39 -17 -40 8 -67 14 -15 28 -35 31 -44 4 -10 16 -18
27 -18 12 0 28 -7 37 -15 12 -12 35 -15 106 -13 77 3 91 6 101 23 18 32 34 45
54 45 11 0 34 8 51 18 30 16 31 20 29 67 -3 45 -5 49 -28 50 -32 0 -42 19 -12
23 13 2 39 -6 58 -17 39 -23 54 -26 54 -11 0 5 -23 21 -50 35 -39 20 -55 23
-70 15 -28 -15 -50 -13 -44 4 3 8 29 23 57 32 65 21 72 27 56 52 -12 19 -10
25 12 49 47 51 120 174 133 225 7 28 21 57 31 64 16 12 16 14 1 29 -35 35 -6
218 41 252 28 21 5 28 -28 9 -17 -10 -32 -16 -33 -14 -2 1 -6 20 -9 40 -6 41
4 56 23 33 7 -8 19 -15 27 -15 12 0 12 3 -1 22 -10 14 -16 44 -16 78 -1 30
-12 111 -25 180 -30 152 -31 157 -42 194 -10 34 -33 47 -33 18 0 -10 -8 -26
-18 -35 -18 -16 -18 -14 -18 68 1 72 4 85 17 85 22 0 49 -42 49 -76 0 -20 4
-25 16 -20 9 3 18 6 20 6 2 0 4 23 4 50 0 28 -4 50 -10 50 -5 0 -10 11 -10 25
0 16 6 25 16 25 14 0 16 8 10 49 -4 30 -2 52 4 56 5 3 10 1 10 -4 0 -6 5 -11
10 -11 7 0 7 6 0 20 -9 17 -2 28 54 84 36 36 79 72 95 81 17 8 31 17 31 19 0
2 -16 4 -35 4 -24 0 -39 -6 -45 -18 -15 -27 -67 -50 -116 -50 -38 0 -43 3 -54
33 -17 45 -24 17 -11 -43 14 -63 14 -83 1 -75 -5 3 -10 18 -10 33 0 15 -9 38
-19 51 l-18 23 -43 -31 c-24 -17 -47 -31 -52 -31 -11 0 -10 28 2 32 13 4 32
200 21 211 -13 13 -41 -34 -41 -70 0 -40 -12 -48 -50 -31 -27 12 -30 16 -25
48 3 19 10 39 15 44 6 6 10 17 10 26 0 9 -12 2 -31 -20 -46 -54 -49 -58 -49
-74 0 -17 -13 -26 -57 -42 -27 -10 -34 -8 -51 8 -16 17 -23 18 -42 8 -12 -6
-31 -10 -41 -7 -27 7 -24 -11 4 -23 21 -8 80 -21 119 -25 28 -3 34 -15 12 -21
-17 -4 -23 -18 -30 -62 -8 -52 -11 -57 -34 -55 -109 7 -121 6 -143 -15 -25
-26 -7 -29 29 -6 40 27 41 6 1 -34 -21 -20 -46 -47 -56 -59 -10 -13 -31 -29
-47 -38 l-29 -15 28 0 c18 0 27 -5 27 -16 0 -8 -4 -13 -10 -9 -5 3 -18 0 -29
-7 -15 -9 -23 -9 -35 1 -9 8 -16 18 -16 24 0 5 -24 33 -52 62 -29 29 -78 80
-108 114 -84 95 -120 131 -130 131 -6 0 -10 5 -10 11 0 13 -41 47 -87 71 -28
15 -294 88 -319 88 -16 0 -314 -298 -314 -314 0 -9 12 -19 26 -22 21 -5 33 1
67 32 23 22 43 43 45 47 3 5 18 17 36 28 17 10 25 19 19 19 -7 0 -13 9 -13 19
0 14 16 27 54 45 30 14 61 26 68 26 7 0 31 9 53 21 l40 21 80 -37 c151 -71
186 -85 205 -85 12 0 20 -7 20 -16 0 -10 36 -53 81 -97 75 -74 80 -81 69 -103
-7 -12 -10 -29 -7 -38 7 -17 100 -48 121 -40 19 7 27 -19 16 -53 -5 -15 -19
-60 -30 -99 -13 -43 -31 -80 -45 -94 -14 -13 -25 -29 -25 -36 0 -7 -3 -14 -7
-16 -5 -1 -21 -23 -37 -48 -27 -41 -48 -68 -98 -121 -16 -17 -75 -38 -128 -44
-14 -2 -32 -5 -40 -6 -45 -7 -60 1 -60 30 0 25 4 29 38 34 20 4 51 19 67 34
29 27 45 48 130 171 20 28 40 52 45 52 5 0 16 13 24 29 15 27 14 30 -14 55
-37 32 -40 32 -74 1 l-27 -25 -39 38 c-46 43 -53 72 -16 65 38 -8 40 14 5 51
-27 29 -181 116 -205 116 -4 0 -29 14 -55 30 -45 30 -49 30 -105 21 -33 -6
-77 -13 -99 -16 -51 -8 -97 -25 -110 -39 -5 -7 -38 -31 -72 -55 -71 -50 -99
-89 -109 -157 -9 -60 4 -53 42 23 16 32 32 60 37 61 4 2 7 10 7 18 0 8 7 14
15 14 11 0 15 -12 15 -46 0 -26 4 -63 9 -83 5 -20 15 -63 21 -96 13 -64 31
-128 61 -213 21 -59 13 -92 -20 -92 -23 0 -108 67 -139 109 -33 45 -72 161
-72 217 -2 153 0 212 6 239 7 29 6 29 -12 13 -18 -15 -21 -15 -47 6 -28 22
-28 24 -14 52 8 17 39 52 69 78 29 27 76 70 103 95 28 26 58 50 68 54 21 8 22
26 1 34 -22 8 -52 -8 -121 -66 -66 -54 -96 -92 -168 -214 -39 -65 -46 -88 -51
-144 -3 -37 -3 -65 1 -61 4 3 17 37 29 74 13 37 27 69 32 71 5 2 17 -12 26
-29 14 -26 18 -65 20 -183 l3 -150 44 -70 c24 -38 59 -89 79 -112 38 -48 29
-55 -34 -28 -74 31 -117 84 -230 282 -24 42 -31 103 -19 163 35 176 44 218 50
234 8 18 7 18 -18 1 -15 -9 -27 -24 -27 -31 0 -8 -9 -23 -20 -34 -12 -12 -18
-25 -15 -30 3 -5 0 -12 -6 -15 -20 -13 -58 37 -80 104 -12 36 -31 73 -42 82
l-21 16 22 23 c20 22 23 22 54 7 63 -29 78 -30 78 -8 0 11 8 25 18 30 27 16
-5 13 -37 -4 -36 -18 -45 -9 -60 62 -17 82 -2 100 64 77 42 -14 55 -11 55 12
0 9 -10 14 -29 14 -17 0 -33 5 -37 12 -4 7 -8 45 -8 86 -1 59 -5 77 -18 85
-22 14 -30 6 -37 -40 -8 -50 -32 -54 -56 -8 -36 65 -60 35 -69 -88 -4 -51 -12
-86 -23 -102 -18 -25 -43 -33 -43 -15 0 6 -20 20 -45 32 -25 12 -45 26 -45 31
0 5 -7 4 -15 -3 -20 -17 -19 -22 10 -56 24 -28 32 -63 18 -77 -12 -13 -33 15
-33 44 0 36 -14 37 -36 4 -9 -14 -25 -25 -35 -25 -21 0 -24 11 -10 38 5 9 25
64 45 122 34 99 92 228 108 240 4 3 13 19 20 35 23 51 58 103 73 109 8 3 15
10 15 16 0 10 -12 11 -41 3z m-602 -729 c-3 -3 -12 -4 -19 -1 -8 3 -5 6 6 6
11 1 17 -2 13 -5z m2957 -69 c3 -11 6 -28 6 -38 0 -15 -3 -16 -20 -7 -26 14
-45 53 -37 75 5 13 10 13 26 3 11 -7 22 -21 25 -33z m-356 5 c12 0 9 -4 -8
-13 -35 -18 -31 -40 8 -48 37 -8 46 -13 41 -28 -3 -6 -28 -2 -64 11 -70 23
-72 25 -57 40 7 7 12 19 12 28 0 27 21 41 37 24 8 -8 22 -14 31 -14z m-114
-35 c3 -9 0 -15 -9 -15 -10 0 -15 -10 -15 -30 0 -40 -21 -88 -54 -122 -14 -15
-26 -32 -26 -37 0 -10 -10 -13 -77 -27 -26 -5 -40 11 -20 23 8 4 38 44 66 89
29 44 66 89 82 98 16 9 29 21 29 27 0 15 17 10 24 -6z m-1074 -365 c36 -11 75
-20 87 -20 16 0 21 -4 16 -16 -3 -9 0 -20 8 -24 11 -7 11 -10 -2 -15 -18 -7
-179 70 -179 85 0 12 -7 13 70 -10z m890 -164 c0 -2 3 -12 7 -22 5 -15 2 -16
-29 -10 -27 5 -41 2 -59 -13 -13 -11 -21 -23 -17 -27 5 -4 17 1 28 11 14 13
24 15 31 8 7 -7 -5 -20 -43 -41 -63 -37 -81 -60 -63 -85 11 -15 15 -15 51 3
21 11 46 20 56 20 9 0 20 5 23 10 3 6 12 10 18 10 7 0 -3 -10 -22 -22 -19 -12
-44 -31 -55 -42 -12 -12 -34 -31 -49 -44 l-28 -22 -17 31 c-9 18 -26 41 -37
53 l-19 20 -9 -39 c-5 -22 -11 -47 -15 -55 -3 -8 -6 -24 -6 -35 -1 -13 -7 -19
-16 -16 -8 2 -30 3 -49 2 -28 0 -32 3 -28 18 2 10 1 25 -4 32 -6 11 -13 9 -31
-7 -13 -12 -30 -24 -38 -28 -8 -4 4 10 28 31 24 22 47 54 52 73 6 19 18 44 28
55 17 20 104 66 152 80 14 4 43 16 65 26 48 21 95 34 95 25z m-1372 -60 c39
-20 94 -86 87 -104 -4 -12 1 -14 31 -9 55 9 263 -39 275 -64 10 -21 26 -118
21 -124 -3 -3 -22 -5 -43 -5 -21 0 -101 -9 -179 -21 -118 -17 -144 -18 -157
-7 -13 10 -17 10 -20 1 -3 -7 -10 -13 -16 -13 -6 0 -1 10 10 23 11 12 24 32
27 44 6 20 2 24 -39 34 -50 13 -62 23 -46 43 6 7 8 16 4 20 -4 4 -1 11 7 16
19 12 60 -14 89 -56 13 -19 32 -34 42 -34 23 0 25 16 4 24 -9 3 -15 18 -15 39
0 31 -7 39 -76 88 -53 38 -74 59 -71 71 3 9 0 19 -6 21 -17 5 2 27 24 27 11 0
32 -6 47 -14z m-878 -56 c0 -5 -7 -10 -15 -10 -8 0 -15 5 -15 10 0 6 7 10 15
10 8 0 15 -4 15 -10z m1727 -191 c15 -6 80 -13 143 -15 63 -2 124 -8 135 -13
29 -12 172 -51 190 -51 8 0 15 -4 15 -9 0 -5 20 -17 45 -27 25 -9 48 -21 51
-26 3 -4 -12 -2 -33 6 -65 24 -230 58 -523 108 -74 13 -74 13 -65 27 8 13 7
13 42 0z m-882 -99 c3 -6 -4 -10 -17 -10 -18 0 -20 2 -8 10 19 12 18 12 25 0z
m2074 -62 c10 -27 9 -35 -6 -50 -22 -21 -83 -36 -83 -19 0 6 11 11 25 11 30 0
46 26 35 56 -8 21 -4 34 11 34 4 0 12 -14 18 -32z m-731 -113 c1 -19 -4 -26
-23 -31 -28 -7 -45 -31 -45 -63 0 -36 -34 -44 -85 -21 -43 19 -52 20 -124 9
-81 -12 -130 -7 -101 11 8 6 25 10 37 10 12 0 37 8 55 18 18 10 44 21 58 24
14 4 61 20 105 36 101 39 120 40 123 7z m-631 -41 c-3 -3 -12 -4 -19 -1 -8 3
-5 6 6 6 11 1 17 -2 13 -5z m33 -14 c0 -5 -4 -10 -10 -10 -5 0 -10 5 -10 10 0
6 5 10 10 10 6 0 10 -4 10 -10z m200 -34 c0 -15 -49 -36 -82 -36 -13 0 -17 4
-12 13 6 8 3 8 -9 -2 -9 -7 -25 -10 -34 -6 -16 6 -15 8 7 20 31 18 72 19 89 3
10 -11 14 -10 22 5 12 21 19 22 19 3z m-386 -41 c-4 -8 -8 -15 -10 -15 -2 0
-4 7 -4 15 0 8 4 15 10 15 5 0 7 -7 4 -15z m-1527 -87 c-3 -8 -6 -5 -6 6 -1
11 2 17 5 13 3 -3 4 -12 1 -19z m567 -242 c3 -14 3 -32 0 -41 -6 -14 -8 -14
-20 3 -13 19 -9 62 6 62 4 0 11 -11 14 -24z m-321 -82 c20 -3 37 -9 37 -14 0
-10 -168 -25 -177 -16 -4 4 -8 16 -10 27 -3 20 0 21 54 15 32 -4 75 -9 96 -12z
m-318 -44 c3 -5 1 -10 -4 -10 -6 0 -11 5 -11 10 0 6 2 10 4 10 3 0 8 -4 11
-10z"/>
<path d="M5920 7160 c0 -5 4 -10 9 -10 6 0 13 5 16 10 3 6 -1 10 -9 10 -9 0
-16 -4 -16 -10z"/>
<path d="M8130 9180 c20 -13 33 -13 25 0 -3 6 -14 10 -23 10 -15 0 -15 -2 -2
-10z"/>
<path d="M7975 9030 c-3 -6 1 -7 9 -4 18 7 21 14 7 14 -6 0 -13 -4 -16 -10z"/>
<path d="M7815 9011 c-3 -6 10 -7 32 -4 50 8 55 13 10 13 -20 0 -38 -4 -42 -9z"/>
<path d="M7760 8992 c0 -7 -8 -12 -18 -12 -10 0 -29 -11 -42 -25 -25 -27 -12
-35 17 -10 10 8 27 21 38 29 11 8 17 18 12 22 -4 4 -7 2 -7 -4z"/>
<path d="M7840 8989 c0 -5 5 -7 10 -4 6 3 10 8 10 11 0 2 -4 4 -10 4 -5 0 -10
-5 -10 -11z"/>
<path d="M8203 8944 c16 -9 32 -13 35 -9 9 9 -19 25 -43 24 -16 0 -15 -2 8
-15z"/>
<path d="M3840 8736 c0 -12 10 -16 38 -15 34 1 35 1 10 9 -14 4 -31 11 -37 15
-6 3 -11 -1 -11 -9z"/>
<path d="M7060 8735 c0 -8 5 -15 10 -15 6 0 10 7 10 15 0 8 -4 15 -10 15 -5 0
-10 -7 -10 -15z"/>
<path d="M3766 8567 c-4 -42 -12 -75 -17 -71 -5 3 -9 0 -9 -5 0 -6 4 -11 9
-11 5 0 7 -9 4 -19 -4 -17 -9 -18 -35 -9 -21 8 -32 8 -37 0 -10 -16 -25 -2
-41 38 -16 40 -27 50 -46 43 -8 -3 -27 6 -44 20 -16 14 -47 28 -70 32 -22 4
-40 11 -40 16 0 5 -18 9 -40 9 -22 0 -40 5 -40 10 0 6 -7 10 -15 10 -14 0 -20
-17 -16 -47 2 -17 -15 -16 -43 2 -21 14 -24 13 -54 -21 -38 -42 -45 -107 -14
-131 15 -13 15 -13 -5 -3 -13 6 -23 15 -23 20 0 13 -27 13 -34 1 -10 -15 5
-41 23 -42 9 0 4 -5 -11 -11 -17 -6 -28 -17 -28 -28 0 -19 -25 -34 -41 -24 -5
3 -9 -1 -9 -9 0 -10 7 -14 23 -11 22 5 22 4 -1 -6 -27 -12 -25 -32 5 -40 11
-3 34 -22 52 -42 21 -24 42 -38 57 -38 12 0 64 -18 114 -40 109 -47 143 -49
235 -16 77 28 105 32 105 15 0 -7 -8 -18 -17 -25 -17 -13 -17 -13 0 -14 9 0
17 5 17 10 0 6 9 10 19 10 11 0 22 4 26 10 3 5 12 7 20 3 11 -4 15 2 15 20 0
14 -4 27 -9 29 -13 4 -16 47 -6 88 8 34 9 34 16 10 6 -18 7 -14 3 13 -7 48 6
240 17 258 14 23 18 5 10 -36 -11 -51 -22 -180 -15 -173 6 7 34 215 33 248 -1
17 -3 19 -6 8 -6 -25 -21 -22 -25 5 -2 12 -7 -13 -12 -56z"/>
<path d="M3862 8599 c2 -7 10 -15 17 -17 8 -3 12 1 9 9 -2 7 -10 15 -17 17 -8
3 -12 -1 -9 -9z"/>
<path d="M4988 8498 c-3 -21 -4 -21 -20 -4 -14 13 -18 14 -18 3 0 -8 9 -22 20
-32 11 -10 20 -24 20 -32 0 -7 7 -13 16 -13 11 0 14 6 8 22 -4 13 -7 35 -6 50
1 33 -15 38 -20 6z"/>
<path d="M2890 8446 c0 -22 40 -56 66 -56 12 0 30 7 39 16 15 15 14 17 -8 29
-13 7 -40 15 -60 19 -29 5 -37 4 -37 -8z"/>
<path d="M6149 8333 c-12 -15 -12 -16 4 -10 10 4 23 7 28 7 6 0 7 5 4 10 -9
15 -21 12 -36 -7z"/>
<path d="M4080 8069 c-14 -4 -37 -11 -52 -14 -22 -4 -28 -11 -28 -30 0 -17 6
-25 18 -25 30 0 142 52 142 67 0 15 -40 16 -80 2z"/>
<path d="M4088 7973 c7 -3 16 -2 19 1 4 3 -2 6 -13 5 -11 0 -14 -3 -6 -6z"/>
<path d="M5750 7080 c-9 -6 -10 -10 -3 -10 6 0 15 5 18 10 8 12 4 12 -15 0z"/>
<path d="M5938 6803 c-10 -2 -18 -10 -18 -17 0 -11 -68 -51 -115 -67 -12 -4
-1 -6 27 -5 32 1 55 9 72 23 36 32 85 55 98 47 6 -4 8 -3 4 4 -3 5 0 13 6 15
16 7 -50 6 -74 0z"/>
<path d="M5450 6750 c8 -5 22 -9 30 -9 10 0 8 3 -5 9 -27 12 -43 12 -25 0z"/>
<path d="M5745 6750 c3 -5 8 -10 11 -10 2 0 4 5 4 10 0 6 -5 10 -11 10 -5 0
-7 -4 -4 -10z"/>
<path d="M4377 6503 c-18 -10 -2 -12 93 -11 63 0 147 4 185 7 59 6 45 8 -93
12 -117 3 -170 1 -185 -8z"/>
<path d="M3579 6488 c-5 -10 -16 -72 -24 -138 -7 -66 -16 -124 -20 -129 -3 -6
-10 -61 -15 -123 -11 -131 -35 -332 -55 -468 -8 -52 -17 -121 -21 -152 l-6
-58 31 16 c17 8 36 12 42 8 6 -3 15 -1 19 7 7 10 12 10 25 -1 15 -12 19 -12
31 5 14 18 14 18 14 -1 0 -15 2 -16 9 -5 5 7 14 10 20 7 6 -4 9 -11 6 -16 -11
-18 24 -28 95 -26 45 2 65 0 50 -4 -29 -9 -28 -10 20 -15 61 -8 120 -27 113
-38 -3 -5 -2 -8 3 -5 17 11 56 -11 50 -28 -9 -24 12 -56 33 -49 13 4 29 -6 54
-34 19 -22 38 -37 41 -34 3 3 10 -7 16 -22 8 -22 8 -30 -2 -36 -9 -6 -5 -11
12 -17 14 -5 28 -8 33 -5 4 2 7 -16 7 -41 0 -42 2 -46 24 -46 32 0 44 -19 23
-35 -24 -17 -21 -25 8 -25 32 0 33 -18 2 -22 -21 -3 -23 -6 -15 -34 4 -17 18
-35 30 -41 l22 -10 -28 -18 c-27 -18 -28 -18 -79 9 -59 31 -123 69 -150 88
-10 7 -50 51 -89 98 -39 47 -88 101 -109 121 -22 20 -39 40 -39 46 0 5 -8 17
-18 27 -17 15 -31 15 -180 1 -154 -14 -232 -32 -232 -54 0 -6 -6 -11 -12 -11
-7 0 -24 -9 -38 -21 -14 -11 -47 -35 -75 -54 -27 -19 -65 -48 -84 -65 -18 -16
-38 -30 -42 -30 -5 0 -9 -33 -9 -73 0 -64 3 -76 23 -95 28 -26 39 -20 80 46
16 23 38 47 51 51 12 5 30 20 39 34 9 14 30 28 46 32 17 4 58 20 91 36 58 28
65 29 208 29 167 0 155 5 206 -91 16 -30 35 -61 43 -70 13 -16 83 -128 83
-134 0 -10 75 -112 90 -122 15 -11 17 -19 10 -37 -14 -39 57 -123 83 -97 5 5
4 11 -2 15 -29 18 -13 23 104 29 17 1 35 7 40 13 14 16 92 27 100 14 4 -7 12
-7 25 0 10 5 25 8 32 5 7 -3 18 5 23 17 6 13 17 23 26 22 9 -1 15 7 15 20 -1
14 6 21 19 23 104 9 143 21 215 68 41 27 85 60 98 74 19 21 22 22 16 6 -4 -11
-12 -58 -17 -104 -9 -74 -8 -86 7 -96 9 -7 16 -15 16 -19 0 -12 -22 -6 -47 14
-31 24 -83 27 -83 5 0 -8 15 -21 34 -29 19 -8 59 -30 90 -50 31 -20 60 -36 64
-36 4 0 20 -24 36 -53 16 -28 32 -54 36 -57 14 -11 70 -99 70 -110 0 -14 349
-364 399 -400 19 -14 39 -30 45 -35 42 -39 187 -145 199 -145 21 0 58 62 96
160 19 47 44 107 57 134 13 28 24 55 24 63 0 7 32 48 71 93 l71 80 -26 31
c-28 33 -33 61 -13 77 11 8 105 36 267 77 95 24 250 98 250 119 0 5 19 28 42
50 46 45 50 66 30 146 -46 190 -51 224 -33 243 14 14 15 27 8 80 -5 34 -11
146 -14 248 l-4 187 41 128 c71 220 78 229 198 255 48 10 52 13 58 47 7 38 52
159 98 267 39 92 34 146 -17 163 -19 6 -24 10 -14 11 10 1 17 6 15 13 -7 19
-76 30 -143 24 -33 -4 -96 -9 -140 -13 -76 -5 -145 -21 -102 -22 32 -2 17 -21
-16 -21 -22 0 -44 -9 -63 -26 -34 -29 -87 -54 -118 -54 -12 0 -32 -7 -44 -16
-12 -8 -22 -12 -23 -7 -1 4 -4 -3 -8 -16 -4 -17 -17 -28 -39 -33 -18 -5 -32
-13 -32 -18 0 -27 -45 -17 -146 34 -59 30 -111 53 -116 50 -13 -9 -9 -106 8
-164 8 -30 18 -66 21 -80 l6 -25 -28 25 c-15 14 -35 40 -44 59 -15 29 -23 34
-62 36 -24 2 -66 -3 -93 -12 l-49 -16 -21 26 c-12 15 -31 27 -42 27 -21 0 -72
-51 -67 -67 2 -5 -6 -18 -17 -28 -20 -18 -20 -18 -4 31 9 27 23 56 31 65 18
22 29 114 14 123 -6 4 -17 4 -23 -1 -7 -4 -25 -6 -39 -5 -21 3 -29 -4 -49 -45
-13 -26 -34 -61 -45 -78 -12 -16 -25 -40 -29 -52 -6 -19 -10 -21 -26 -11 -11
7 -23 9 -27 5 -4 -5 -1 -12 6 -17 9 -5 11 -14 6 -26 -8 -18 -9 -17 -12 3 -5
24 -33 54 -33 34 0 -6 -7 -11 -15 -11 -8 0 -15 5 -15 10 0 6 -14 10 -32 10
-35 0 -34 -8 3 -13 13 -2 25 -11 27 -20 3 -13 -4 -17 -27 -17 -17 0 -31 4 -31
9 0 5 -16 26 -35 45 -19 20 -35 40 -35 45 0 28 -115 182 -141 188 -11 3 -19 9
-19 14 0 5 -5 9 -12 9 -6 0 -20 8 -30 17 -27 24 -86 43 -138 43 -25 0 -56 3
-69 7 -22 6 -22 6 9 19 18 8 53 15 79 15 76 3 -96 17 -254 21 -156 4 -335 -12
-278 -26 18 -4 41 -5 50 -2 10 3 24 2 32 -3 26 -16 -23 -30 -113 -32 -47 -1
-88 0 -91 3 -3 3 -2 13 1 23 6 14 14 16 45 11 22 -3 39 -2 39 2 0 20 -216 29
-223 10 -4 -9 -6 -7 -6 3 -1 14 -7 15 -45 6 -59 -13 -98 -3 -94 25 2 12 -3 23
-9 25 -8 3 -13 -4 -13 -16 0 -18 -6 -21 -39 -21 -23 0 -41 5 -43 13 -3 8 -34
14 -87 17 -72 4 -84 3 -92 -12z m8 -75 c-3 -10 -5 -4 -5 12 0 17 2 24 5 18 2
-7 2 -21 0 -30z m493 8 c0 -5 -9 -7 -20 -4 -11 3 -20 7 -20 9 0 2 9 4 20 4 11
0 20 -4 20 -9z m45 -11 c3 -5 -1 -10 -9 -10 -9 0 -16 5 -16 10 0 6 4 10 9 10
6 0 13 -4 16 -10z m-38 -92 c-3 -8 -6 -5 -6 6 -1 11 2 17 5 13 3 -3 4 -12 1
-19z m-490 -70 c-3 -8 -6 -5 -6 6 -1 11 2 17 5 13 3 -3 4 -12 1 -19z m2073
-818 c-8 -5 -11 -12 -7 -16 3 -4 13 -2 20 4 8 7 29 9 52 5 31 -5 35 -8 20 -14
-11 -4 -30 -5 -42 -2 -13 3 -23 1 -23 -5 0 -9 -22 -15 -112 -28 -21 -4 -38
-10 -38 -15 0 -16 -27 -10 -64 14 -38 24 -46 37 -18 31 9 -2 53 5 97 15 92 21
138 26 115 11z m-85 -1153 c11 0 39 3 63 6 23 3 42 5 43 4 0 -1 3 -23 5 -49
l5 -48 -50 0 c-27 0 -52 4 -55 9 -3 5 -22 12 -41 15 -19 4 -35 11 -35 16 0 6
-6 10 -14 10 -7 0 -19 7 -26 15 -11 13 -8 15 13 15 14 0 29 5 32 11 4 6 14 7
24 3 9 -4 25 -7 36 -7z"/>
<path d="M5558 5401 c-27 -4 -54 -13 -60 -20 -11 -11 -9 -13 12 -7 14 3 42 9
63 12 20 4 40 11 43 15 3 5 2 8 -3 8 -4 -1 -29 -5 -55 -8z"/>
<path d="M3905 6500 c-3 -5 -1 -10 4 -10 6 0 11 5 11 10 0 6 -2 10 -4 10 -3 0
-8 -4 -11 -10z"/>
<path d="M6755 6500 c3 -5 13 -10 21 -10 8 0 14 5 14 10 0 6 -9 10 -21 10 -11
0 -17 -4 -14 -10z"/>
<path d="M6660 6451 l-65 -6 105 -8 c106 -8 155 -3 128 14 -14 9 -63 9 -168 0z"/>
<path d="M3887 5293 c-9 -8 12 -33 28 -33 8 0 11 8 8 20 -5 20 -23 26 -36 13z"/>
<path d="M2967 4798 c3 -29 20 -85 38 -124 28 -62 43 -81 109 -135 74 -60 146
-155 146 -192 0 -17 -72 -81 -163 -144 -109 -76 -239 -255 -395 -543 -19 -36
-54 -97 -77 -135 -23 -39 -57 -99 -75 -135 -18 -36 -38 -72 -45 -80 -15 -17
-128 -240 -145 -286 -6 -16 -28 -58 -49 -94 -80 -137 -151 -271 -151 -285 0
-10 11 -15 35 -15 19 0 37 -1 40 -2 54 -17 250 -15 239 3 -3 5 2 6 10 3 9 -3
30 3 48 14 51 31 313 52 658 52 188 0 280 -4 270 -10 -8 -5 -94 -10 -190 -11
-96 0 -215 -5 -265 -10 -49 -5 -135 -13 -190 -18 -108 -11 -199 -28 -155 -30
14 0 79 6 145 13 141 17 800 23 791 7 -12 -18 95 -22 474 -17 418 6 490 11
490 31 0 8 10 17 23 21 12 3 33 15 47 24 14 10 99 55 188 100 90 45 162 84
159 86 -3 3 -34 -8 -69 -24 -34 -17 -92 -44 -128 -61 -36 -16 -87 -44 -115
-61 -46 -27 -131 -70 -141 -70 -2 0 -4 4 -4 8 0 19 109 88 274 173 l178 92 23
-26 c13 -14 30 -27 37 -30 10 -3 9 -9 -5 -25 -18 -19 -18 -22 -2 -46 14 -21
16 -39 10 -106 l-7 -80 28 -1 c16 0 214 0 439 1 377 1 411 3 425 19 8 9 35 25
60 35 25 10 53 22 62 27 10 5 23 9 29 9 23 0 249 116 254 130 3 8 1 29 -3 45
-11 39 -39 43 -94 12 -24 -14 -88 -51 -143 -83 -54 -31 -121 -65 -148 -75
l-49 -18 7 41 7 41 -38 -7 c-48 -8 -104 -37 -104 -52 0 -6 10 -19 23 -28 22
-16 22 -17 -13 -12 -51 5 -180 44 -220 65 -71 37 -105 56 -110 61 -3 3 -27 16
-53 30 -44 23 -48 27 -43 55 13 75 18 147 12 169 -8 34 -63 34 -76 0 -5 -13
-24 -30 -42 -40 -18 -9 -41 -26 -50 -38 -15 -17 -18 -18 -18 -4 0 19 85 108
104 108 13 0 95 62 100 75 3 10 -5 26 -23 43 -123 118 -188 169 -341 270 -150
99 -194 135 -309 249 -74 73 -140 133 -147 133 -6 0 -14 7 -18 15 -3 8 -10 15
-16 15 -5 0 -18 7 -27 15 -161 132 -237 197 -278 234 -83 77 -268 254 -296
283 -49 52 -114 66 -319 71 -138 3 -195 8 -225 20 -22 9 -58 18 -80 21 -22 3
-53 8 -70 11 -16 3 -40 8 -51 10 -14 3 -52 50 -109 135 -48 71 -91 130 -96
130 -4 0 -5 -24 -2 -52z m617 -854 c22 -9 20 -51 -3 -64 -11 -5 -38 -10 -61
-10 -29 0 -40 -4 -38 -12 4 -12 78 -21 363 -44 96 -8 103 -11 200 -84 33 -25
103 -75 155 -110 52 -35 129 -88 170 -119 41 -30 100 -73 130 -95 80 -59 169
-133 215 -177 127 -123 245 -249 245 -260 0 -5 -21 -20 -47 -33 -105 -52 -317
-167 -357 -194 -42 -28 -96 -49 -96 -36 0 10 63 63 83 70 9 3 17 9 17 13 0 4
19 16 43 27 36 16 90 46 162 91 11 7 34 19 51 27 17 8 35 19 38 25 13 20 -19
10 -74 -24 -30 -18 -86 -50 -125 -71 -38 -20 -88 -49 -110 -63 -97 -62 -123
-76 -132 -68 -9 10 20 39 85 82 31 22 59 40 61 42 2 2 2 6 -2 9 -6 7 -110 -48
-139 -73 -23 -20 -31 0 -10 25 10 11 38 33 63 49 98 61 149 95 149 100 0 13
-131 -60 -215 -120 -37 -26 -40 -27 -52 -11 -7 10 -13 26 -13 36 0 11 -7 18
-20 18 -30 0 -25 10 27 57 55 50 44 56 -25 13 -27 -16 -51 -30 -53 -30 -2 0
-1 37 2 82 3 46 4 84 3 86 -1 2 -15 -11 -32 -28 -37 -37 -52 -38 -52 -5 0 14
-7 42 -15 61 -17 42 -21 81 -10 108 8 18 6 18 -23 -3 -32 -23 -40 -15 -22 20
13 23 -2 26 -21 3 -7 -8 -25 -22 -41 -30 -23 -12 -28 -12 -28 -1 0 8 12 20 26
27 14 8 35 27 46 43 l21 29 -22 -12 c-34 -18 -36 -5 -5 24 16 14 25 28 21 32
-4 4 -17 -2 -30 -13 -26 -24 -113 -73 -129 -73 -7 0 -7 4 0 13 7 8 8 39 3 87
l-7 75 -18 -34 c-20 -38 -33 -32 -38 19 -3 40 21 38 -203 19 -308 -26 -341
-32 -348 -60 -4 -15 -12 -19 -34 -17 -28 3 -28 3 -31 -59 l-3 -63 -39 0 c-47
0 -49 5 -15 32 14 11 25 28 25 39 0 20 -15 26 -25 9 -3 -5 -25 -18 -48 -28
-33 -15 -55 -17 -95 -12 -51 6 -78 -4 -52 -20 38 -24 -108 -36 -193 -16 -38 9
-83 16 -102 16 -19 0 -37 5 -40 10 -8 13 2 13 110 -5 50 -8 99 -16 110 -17 37
-5 29 29 -9 42 -20 6 -38 15 -41 20 -2 4 4 34 14 66 18 58 44 147 75 254 9 30
23 89 31 130 30 145 41 161 87 119 25 -22 205 -139 214 -139 4 0 -1 11 -10 25
-13 20 -14 25 -3 25 8 0 49 17 93 39 43 21 100 48 126 60 26 11 50 25 53 31 7
12 17 12 39 4z m471 -664 c-3 -5 -11 -10 -16 -10 -6 0 -7 5 -4 10 3 6 11 10
16 10 6 0 7 -4 4 -10z m-1150 -62 c22 -5 60 -13 85 -18 25 -5 72 -16 105 -25
33 -9 70 -19 83 -22 26 -6 29 -18 6 -27 -16 -6 -35 -3 -274 56 -136 33 -143
35 -135 48 5 9 67 3 130 -12z m-110 -37 c33 -5 127 -24 210 -41 82 -18 164
-30 181 -27 25 4 36 0 53 -19 11 -13 32 -24 45 -24 14 0 28 -4 31 -10 3 -5 -3
-10 -14 -10 -31 0 -16 -26 22 -38 60 -19 -7 -13 -136 12 -67 13 -194 34 -282
46 -88 12 -169 25 -180 30 -11 5 -31 11 -45 13 -14 2 24 4 84 5 60 1 111 4
113 6 2 2 -39 13 -91 25 -142 33 -136 53 9 32z m513 -68 c-10 -2 -26 -2 -35 0
-10 3 -2 5 17 5 19 0 27 -2 18 -5z m-378 -72 c96 -12 182 -23 190 -26 8 -2 35
-9 60 -15 75 -20 24 -30 -75 -15 -50 8 -156 21 -235 30 -118 13 -200 22 -217
25 -2 0 -3 4 -3 9 0 10 49 18 85 15 11 -1 99 -12 195 -23z m457 3 c-3 -3 -12
-4 -19 -1 -8 3 -5 6 6 6 11 1 17 -2 13 -5z m-463 -61 c4 -3 49 -9 100 -13 101
-9 354 -47 369 -57 20 -12 -16 -20 -56 -12 -23 4 -51 8 -62 8 -17 0 -17 -2 6
-14 14 -7 59 -16 100 -19 88 -6 79 -4 79 -16 0 -13 -51 -13 -85 0 -14 5 -90
12 -168 15 -221 8 -285 11 -387 21 -52 5 -150 8 -218 7 -124 -2 -156 9 -60 21
130 16 261 15 461 -4 241 -23 243 -23 233 -13 -4 4 -107 18 -229 31 -207 23
-302 29 -436 31 -92 1 -45 20 59 24 105 4 280 -2 294 -10z m356 -13 c0 -5 -7
-10 -15 -10 -8 0 -15 5 -15 10 0 6 7 10 15 10 8 0 15 -4 15 -10z m-270 -110
c91 -5 181 -11 200 -14 19 -3 68 -8 108 -12 39 -4 72 -11 72 -15 0 -5 -33 -9
-72 -9 -109 0 -539 19 -647 29 -52 5 -108 5 -125 1 -52 -13 -106 -19 -106 -12
0 4 28 14 63 23 73 20 257 23 507 9z m538 -45 c-10 -8 -131 -14 -123 -6 10 10
91 19 113 12 7 -2 12 -5 10 -6z m-286 -26 c26 -6 62 -9 82 -8 19 2 37 1 41 -2
3 -3 -155 -7 -352 -8 -196 -1 -360 -4 -364 -7 -17 -10 -214 -23 -223 -14 -16
15 -2 21 76 32 180 24 646 29 740 7z m136 -44 c7 -3 10 -9 7 -15 -4 -6 -77
-10 -190 -10 -227 0 -486 -15 -709 -41 -93 -10 -171 -17 -174 -14 -14 14 139
53 263 67 175 20 757 29 803 13z"/>
<path d="M2910 3110 c14 -4 32 -8 40 -9 13 -1 13 0 0 9 -8 5 -26 9 -40 9 l-25
-1 25 -8z"/>
<path d="M3180 3060 c0 -5 5 -10 11 -10 5 0 7 5 4 10 -3 6 -8 10 -11 10 -2 0
-4 -4 -4 -10z"/>
<path d="M8310 3720 c0 -5 5 -10 11 -10 5 0 7 5 4 10 -3 6 -8 10 -11 10 -2 0
-4 -4 -4 -10z"/>
<path d="M8340 3716 c0 -2 7 -6 15 -10 8 -3 15 -1 15 4 0 6 -7 10 -15 10 -8 0
-15 -2 -15 -4z"/>
<path d="M8382 3705 c7 -8 116 -34 138 -34 8 0 2 6 -15 14 -33 14 -134 31
-123 20z"/>
<path d="M8245 3650 c-3 -5 -3 -11 2 -11 4 -1 17 -3 28 -4 11 -2 40 -8 65 -15
25 -6 63 -15 85 -20 22 -4 61 -15 87 -24 47 -15 63 -10 53 16 -7 17 -64 34
-180 53 -107 17 -132 18 -140 5z"/>
<path d="M6255 3620 c-3 -5 -62 -44 -131 -87 -68 -42 -124 -80 -124 -84 0 -10
110 -89 124 -89 7 0 18 10 26 21 8 12 26 36 40 55 98 132 114 159 106 180 -6
16 -32 19 -41 4z"/>
<path d="M8265 3549 c22 -4 76 -16 120 -25 44 -10 85 -21 90 -25 6 -4 34 -14
63 -22 50 -15 52 -15 52 4 0 14 -12 25 -37 36 -37 15 -238 43 -298 42 -27 -1
-26 -2 10 -10z"/>
<path d="M8245 3491 c-8 -14 19 -26 90 -40 33 -7 102 -26 153 -42 51 -16 97
-29 103 -29 6 0 9 12 7 28 -3 24 -8 28 -48 33 -25 3 -98 18 -163 33 -134 29
-134 29 -142 17z"/>
<path d="M7838 3445 c-4 -4 -138 -22 -218 -29 -31 -3 -78 -11 -105 -16 -28 -6
-83 -16 -122 -22 -40 -6 -73 -14 -73 -18 0 -4 21 -3 48 2 59 11 178 26 259 33
34 3 74 10 88 15 15 6 31 8 36 5 11 -8 120 12 132 24 5 5 -2 9 -17 9 -14 0
-26 -2 -28 -3z"/>
<path d="M8210 3423 c0 -11 -3 -40 -6 -65 l-6 -44 43 -11 c173 -43 299 -83
299 -94 0 -12 -27 -11 -50 1 -16 8 -108 31 -185 45 -118 22 -175 17 -175 -15
0 -11 -4 -20 -10 -20 -5 0 -10 5 -10 10 0 13 -27 13 -32 0 -2 -6 -8 -6 -18 0
-13 8 -12 10 3 10 10 0 16 4 12 10 -6 10 16 36 55 63 l24 17 -26 0 c-15 0 -33
6 -40 13 -7 7 -20 16 -28 20 -8 4 -25 14 -37 23 -23 16 -23 16 -23 -15 0 -27
-5 -33 -39 -47 -22 -8 -42 -22 -45 -30 -6 -16 10 -19 19 -4 11 17 42 11 48 -9
8 -32 -56 -44 -363 -66 -189 -14 -298 -30 -285 -43 3 -3 51 -4 107 -3 80 1
479 -12 703 -23 46 -3 175 -39 175 -49 0 -5 -8 -6 -17 -2 -56 24 -183 35 -489
41 -182 4 -340 4 -350 -1 -11 -4 -39 -9 -64 -12 -25 -2 -74 -8 -110 -13 -61
-8 -59 -9 28 -4 98 5 341 -13 356 -27 5 -4 -61 -7 -147 -6 -85 1 -159 -2 -163
-6 -17 -17 24 -27 113 -27 93 0 123 -5 123 -21 0 -5 -56 -9 -124 -9 -67 0
-152 -3 -187 -7 l-64 -8 85 -7 c150 -12 210 -20 216 -30 4 -7 -41 -8 -130 -3
-118 6 -136 5 -136 -8 0 -11 14 -16 53 -20 66 -6 157 -26 177 -38 10 -6 -10
-7 -55 -2 -78 8 -96 8 -175 4 -69 -3 -44 -12 89 -31 108 -15 97 -31 -12 -18
-39 5 -77 6 -84 3 -23 -8 -5 -23 37 -30 22 -4 40 -11 40 -16 0 -10 -46 -13
-119 -9 -64 3 -42 -17 27 -25 87 -10 95 -22 21 -30 -56 -7 -61 -9 -39 -17 41
-17 94 -36 114 -42 37 -12 6 -18 -41 -8 -80 18 -143 23 -143 11 0 -5 8 -12 18
-16 50 -17 91 -37 86 -44 -8 -13 46 -18 196 -18 96 0 168 -5 210 -16 36 -8
137 -18 225 -21 137 -5 181 -3 305 17 80 12 163 23 185 24 174 10 226 18 236
37 6 11 9 98 7 218 l-3 200 -30 24 c-16 13 -27 28 -23 32 4 4 10 0 14 -9 3 -9
12 -13 20 -10 17 6 19 59 2 66 -10 4 -10 6 0 6 8 1 12 23 12 74 0 85 -8 125
-21 105 -6 -9 -11 -10 -16 -2 -5 6 -26 14 -48 18 -22 4 -83 20 -135 36 -52 16
-104 29 -115 29 -11 0 -30 2 -42 6 -19 6 -23 3 -23 -12z m136 -57 c38 -13 85
-30 104 -38 19 -8 56 -23 83 -32 67 -25 49 -37 -20 -14 -32 11 -107 32 -167
48 -117 31 -121 33 -111 49 10 16 35 13 111 -13z m-316 -126 c-19 -13 -30 -13
-30 0 0 6 10 10 23 10 18 0 19 -2 7 -10z m217 -36 c-3 -3 -12 -4 -19 -1 -8 3
-5 6 6 6 11 1 17 -2 13 -5z m99 -20 c27 -15 27 -15 4 -10 -14 3 -31 6 -37 6
-7 0 -13 5 -13 10 0 14 13 12 46 -6z m29 -94 c7 -12 -2 -12 -30 0 -19 8 -19 9
2 9 12 1 25 -3 28 -9z m-295 -30 c148 -13 216 -24 320 -54 84 -24 72 -37 -15
-16 -40 10 -233 37 -440 62 -84 10 -102 14 -75 19 19 3 49 4 65 2 17 -2 82 -8
145 -13z m363 13 c-7 -2 -21 -2 -30 0 -10 3 -4 5 12 5 17 0 24 -2 18 -5z
m-616 -9 c-3 -3 -12 -4 -19 -1 -8 3 -5 6 6 6 11 1 17 -2 13 -5z m335 -91 c7
-4 51 -18 98 -30 100 -25 66 -30 -60 -8 -47 8 -137 19 -199 24 -64 5 -118 14
-125 21 -9 10 20 11 131 7 78 -3 148 -9 155 -14z m-145 -63 c109 -6 173 -15
225 -31 80 -25 84 -26 76 -35 -3 -3 -33 2 -66 11 -34 8 -76 18 -94 21 -59 9
-312 24 -333 20 -11 -3 -31 -2 -45 1 -22 6 -23 7 -4 14 25 10 60 10 241 -1z
m425 -15 c23 -16 23 -16 -7 -9 -16 4 -43 13 -60 20 l-30 14 37 -4 c21 -3 48
-12 60 -21z m-441 -60 c225 -22 407 -63 418 -96 2 -8 -2 -10 -15 -5 -153 60
-283 79 -544 78 -154 -1 -167 4 -75 28 44 11 47 11 216 -5z m-613 -42 c-10 -2
-26 -2 -35 0 -10 3 -2 5 17 5 19 0 27 -2 18 -5z m737 -32 c17 -5 57 -17 90
-25 139 -36 219 -62 223 -74 5 -16 -44 -6 -123 24 -69 27 -185 41 -410 50
-216 9 -210 8 -210 19 0 23 365 28 430 6z m-41 -72 c17 -5 44 -9 61 -9 19 0
35 -7 42 -19 6 -10 26 -21 44 -25 18 -3 30 -8 27 -11 -2 -3 -27 2 -54 10 -27
8 -67 15 -89 15 -22 0 -56 5 -75 11 -20 6 -106 11 -197 10 -90 0 -163 3 -163
7 0 4 15 13 33 19 36 13 320 7 371 -8z m-44 -58 c31 -6 -9 -9 -132 -10 -113
-1 -178 3 -178 9 0 12 243 12 310 1z"/>
<path d="M8158 3405 c-2 -2 -2 -21 0 -41 3 -25 7 -32 13 -23 17 26 5 82 -13
64z"/>
<path d="M7828 3363 c7 -3 16 -2 19 1 4 3 -2 6 -13 5 -11 0 -14 -3 -6 -6z"/>
<path d="M7250 3350 c0 -12 8 -12 35 0 18 8 17 9 -7 9 -16 1 -28 -3 -28 -9z"/>
<path d="M7618 3333 c7 -3 16 -2 19 1 4 3 -2 6 -13 5 -11 0 -14 -3 -6 -6z"/>
<path d="M7688 3333 c7 -3 16 -2 19 1 4 3 -2 6 -13 5 -11 0 -14 -3 -6 -6z"/>
<path d="M7350 3310 c-13 -8 -12 -10 3 -10 9 0 17 5 17 10 0 12 -1 12 -20 0z"/>
<path d="M7463 3313 c9 -2 25 -2 35 0 9 3 1 5 -18 5 -19 0 -27 -2 -17 -5z"/>
<path d="M7720 3289 c-30 -4 -116 -13 -190 -19 -74 -6 -138 -14 -142 -18 -4
-4 55 -6 130 -4 133 2 282 25 282 43 0 10 0 10 -80 -2z"/>
<path d="M7163 3093 c9 -2 23 -2 30 0 6 3 -1 5 -18 5 -16 0 -22 -2 -12 -5z"/>
<path d="M4870 2779 c-8 -5 -31 -16 -50 -24 -54 -23 -118 -71 -108 -80 10 -10
178 90 178 105 0 12 0 12 -20 -1z"/>
<path d="M6357 2704 c-7 -7 -27 -10 -122 -19 -33 -4 -67 -9 -75 -12 -8 -3 -46
-12 -85 -19 l-70 -12 120 0 c66 -1 143 -5 170 -11 28 -5 63 -7 78 -4 25 5 27
8 21 37 -9 46 -20 57 -37 40z"/>
</g>
</svg>
