<?xml version="1.0" encoding="utf-8"?>
<!-- Generator: Adobe Illustrator 25.4.1, SVG Export Plug-In . SVG Version: 6.00 Build 0)  -->
<svg version="1.1" id="Layer_1" xmlns="http://www.w3.org/2000/svg" xmlns:xlink="http://www.w3.org/1999/xlink" x="0px" y="0px"
	 viewBox="0 0 268.6 167.2" style="enable-background:new 0 0 268.6 167.2;" xml:space="preserve">
<style type="text/css">
	.st0{fill:#FFFFFF;stroke:#000000;stroke-miterlimit:10;}
</style>
<path class="st0" d="M268.6,25c0,0-57.4,0.2-57.4,0.2c-0.3,0-0.6-0.2-0.7-0.5c-4-10.3-8.9-22.5-21.9-23.9
	c-17-1.8-27.9,20.9-30.6,33.7c-0.6,2.2-1.7,7.4,1.4,10.7c9.4,9.9,28.3,9.7,35,18.5c-5.1,7.9-25,4.4-32.6,2.1
	c-0.6-0.2-1.2,0.2-1.4,0.8c0,0.1,0,0.2,0,0.2c-0.2,6-0.7,14.1,2,18.1c2,3,12.3,6.6,12.3,6.6V102h63l-0.2-13c0,0-41.7-0.2-41.7-0.2
	c6.1-3.5,10.9-8.9,13.7-15.3c1-2.2,4.7-21.6,3.8-32.7l-0.2-4.7c0-0.3,0.1-0.5,0.4-0.6c0.1,0,0.1,0,0.2,0c14,0,31.2,0,45.2,0
	l-0.7,98.8c0,0-68.2-0.9-99.6-0.9c-0.4-13.4-8.5-33.2-25.7-27.5c-12.2,4.1-19.6,19.5-26.4,29.3c-1.1,1.6-2.5,2.9-4.2,4
	c-0.3,0.2-0.6,0.3-1,0.3c-24.6,0.4-49.6-0.1-75.8-0.1V46.6h118.9V21.2H0.2L0,164.8c0.1,0,0.2,0,0.2,0v0h25.4v0c23.5,0,47.8,0,70.3,0
	c8.2,0,13.3-1,17.9-7.4c0.2-0.3,0.5-0.5,0.8-0.5c0.9-0.2,1.9,0,2.8,0.4c10.6,4.4,18.2,7.6,22.8,9.6c1.2,0.5,2.6,0.2,3.5-0.8
	c4.6-4.4,14-20.3,14.2-21.6l110.6,0.6L268.6,25z M196,40.2c-6.1-0.6-15.7-3.1-20.1-7.6c4.1-10.8,13.5-8.7,18.4-0.3
	c1.2,2.3,1.9,4.8,2.2,7.3C196.6,40.1,196.4,40.2,196,40.2z M141.6,144.3c-0.1,0.3-0.5,0.4-0.8,0.3c-1.9-0.8-14.7-5.9-14.7-7.5
	c2.1-3.5,5-7,8.4-7.3c0.4,0,0.8,0,1.2,0c1.6,0.2,3,1,4.2,2.1C143.2,135.4,143.7,139.6,141.6,144.3z"/>
</svg>
