<?xml version="1.0" encoding="utf-8"?>
<!-- Generator: Adobe Illustrator 25.4.1, SVG Export Plug-In . SVG Version: 6.00 Build 0)  -->
<svg version="1.1" id="Layer_1" xmlns="http://www.w3.org/2000/svg" xmlns:xlink="http://www.w3.org/1999/xlink" x="0px" y="0px"
	 viewBox="0 0 807 807" style="enable-background:new 0 0 807 807;" xml:space="preserve">
<g>
	<path d="M3.5,637.8c0-200.5,0-400.8,0-601.4c10.9-26.3,20.4-32.8,49-32.8c235.2,0,470.1,0,705.3,0c30,0,45.7,15.6,45.7,45.7
		c0,191.5,0,383.1,0,574.6c0,30.5-15.6,46.1-46.1,46.1c-83,0-166.1,0-249.1,0c-3.1,0-6.1,0-9.6,0c0.4,2.5,0.4,4.2,0.8,5.6
		c6.7,24,30.7,44.9,55.3,48c21.5,2.7,36.7,13.8,44.9,33.8c8.8,21.3,3.3,35.3-16.7,45.7c-119.8,0-239.5,0-359.3,0
		c-20-10.4-25.2-24.4-16.7-45.7c7.9-19.8,23.2-30.3,44-34c24-4.2,42.1-16.9,53-39.2c2.1-4.2,2.9-9,4.8-14.4c-4.8,0-7.9,0-11.1,0
		c-83.3,0-166.5,0-249.8,0c-23.4,0-35.9-9-43.6-31.3C4.3,638.4,3.9,638,3.5,637.8z M776.8,562.9c0-3.8,0-6.7,0-9.6
		c0-168,0-335.7,0-503.7C776.8,34,773,30,757.6,30c-236.2,0-472.2,0-708.4,0c-15,0-19,4-19,18.8c0,168.4,0,336.8,0,505.2
		c0,2.7,0,5.6,0,8.6C279.3,562.9,527.6,562.9,776.8,562.9z M30.2,590.4c0,13.8-0.2,26.5,0,39.2c0.2,8.1,5,12.9,13.1,13.8
		c2.5,0.2,5.2,0.2,7.7,0.2c235,0,469.7,0,704.6,0c3.3,0,6.9,0,10-0.6c6.1-1,10.2-5,10.6-11.1c0.6-13.8,0.2-27.3,0.2-41.5
		C527.6,590.4,279.3,590.4,30.2,590.4z M576.5,776.4c-1.5-17.3-11.7-26.3-29.2-26.3c-95.8,0-191.5,0-287.5,0c-2.1,0-4.2,0-6.3,0.2
		c-13.1,1.5-23.2,12.9-22.5,26.1C345.9,776.4,460.9,776.4,576.5,776.4z M497.2,722.9c-13.6-14.6-22.3-30.3-25.7-48.8
		c-0.2-1.7-4-4-5.8-4c-41.3-0.2-82.6-0.2-124.2-0.2c-4.6,0-6.1,1.9-6.9,6.1c-1.7,7.3-3.8,14.8-7.1,21.3
		c-4.6,8.8-10.6,16.9-16.3,25.5C372.6,722.9,434.2,722.9,497.2,722.9z"/>
	<path d="M403.5,536.6c-104.5,0-209.3,0-313.8,0c-23.6,0-33-9.4-33-33.2c0-137.9,0-275.8,0-413.8c0-23,9.8-32.8,32.8-32.8
		c209.3,0,418.6,0,627.9,0c23.2,0,33,9.8,33,32.6c0,138.1,0,276.3,0,414.6c0,23.2-9.6,32.6-32.8,32.6
		C612.8,536.6,508.2,536.6,403.5,536.6z M722.9,509.5c0-142.3,0-283.8,0-425.7c-213.2,0-426.1,0-639.1,0c0,142.1,0,283.8,0,425.7
		c22.3,0,44,0,66.8,0c-1.3-20.9,11.7-29.8,29-35.3c1.3-0.4,2.3-1,3.5-1.5c12.5-2.7,19.6-9.8,23-22.7c2.7-10.6,11.7-20.4,11.7-30.7
		s-7.7-20.7-12.1-30.9c-4.4-10.6-2.9-20.7,4.8-29c9-9.8,18.6-19,28-28.2c9.4-9,20-10,31.7-4.8c8.3,3.8,16.7,7.5,25,10.6
		c2.9,1,6.9,0.8,10-0.4c11.9-4.6,23.6-9.4,35.3-14.6c2.9-1.3,5.8-4,7.3-6.9c4-8.1,6.9-16.9,10.2-25.2c4.8-12.1,13.8-18.6,26.9-19
		c12.3-0.4,24.4-0.4,36.7,0c12.9,0.4,22.1,6.9,26.9,19c3.3,8.8,6.7,17.5,10.6,26.1c1,2.5,3.8,4.8,6.3,6.1
		c12.1,5.4,24.4,10.4,36.7,15.2c2.5,1,6.1,1.3,8.6,0.2c8.1-2.9,15.9-6.5,23.6-10c13.4-6.3,25.2-5,35.9,5.4c4.8,4.8,10,9.2,14.8,14
		c22.1,23,23.6,26.9,10.2,55.3c-5.8,12.5-7.3,23,0.4,35.3c5.4,8.8,6.1,21.7,12.9,28.4c7.1,6.9,19.2,8.6,29,12.5
		c10.9,4.4,17.1,12.3,18.6,24c0.2,2.3,0.6,4.6,0.8,7.1C678.9,509.5,700.6,509.5,722.9,509.5z M271.2,509.3c88.5,0,176.5,0,264.6,0
		c-7.1-68-64.9-119.6-132.7-119.1C335,390.6,277.2,442.3,271.2,509.3z M628.6,509.5c0.6-0.8,1-1.5,1.7-2.3c-2.1-1.7-3.8-4.2-6.1-5.2
		c-10.4-4.6-21.1-8.8-31.7-12.9c-5.8-2.3-9-6.3-11.1-12.1c-6.1-15.6-12.3-31.3-19.2-46.7c-2.7-6.1-3.3-11.3-0.6-17.1
		c4.4-9.8,8.1-19.6,12.7-29.4c2.1-4.4,2.1-7.5-1.5-11.1c-6.5-6.3-12.9-12.7-19.2-19.4c-3.1-3.3-5.8-2.9-9.6-1.3
		c-10,4.4-20.2,8.3-30,12.9c-6.5,2.9-12.1,1.9-18.6-1c-14.6-6.7-29.4-12.9-44.4-18.4c-6.7-2.5-11.5-5.6-13.6-12.5
		c-1-3.1-2.3-6.3-3.8-9.4c-4.2-8.8-6.3-20.9-13.1-25c-7.3-4.6-19.2-1.5-29-1.7c-0.4,0-1.3-0.2-1.5,0c-2.5,1.7-6.1,2.9-7.3,5.2
		c-4.8,10.6-8.3,21.9-13.8,32.3c-2.3,4.4-6.9,8.3-11.5,10.2c-15.2,6.9-31.3,12.7-46.5,19.6c-6.1,2.7-11.3,3.5-17.1,0.8
		c-3.3-1.7-6.7-2.9-10-4.4c-29.2-12.5-29.2-12.5-49.7,12.1c-0.2,0.2-0.4,0.4-0.4,0.6c-0.4,2.7-1.9,5.8-1,8.1
		c4,10.4,8.3,20.7,12.9,30.9c2.9,6.5,2.1,12.1-0.8,18.6c-6.9,14.8-13.1,29.8-18.8,45.3c-2.3,6.1-5.2,10.4-11.5,12.7
		c-10.4,4-20.9,8.1-31.1,12.5c-2.5,1-4.2,4-7.5,7.5c24.8,0,46.5,0,68,0c9-85.1,77-143.8,155.2-146.1
		c83.3-2.5,157.1,61.1,164.4,146.3C585.2,509.5,606.9,509.5,628.6,509.5z"/>
	<path d="M404.3,140.2c4.8-6.5,9.8-13.4,15-20c6.9-9,14.6-11.7,23.8-8.8c9,2.9,13.6,10.2,13.6,21.3c0,31.5,0,63,0,94.5
		c0,10.4-5.2,16.5-13.6,16.3c-8.1-0.2-12.9-6.3-12.9-16.3c0-24.6,0-49.5,0-76.4c-8.6,9.6-13.4,21.3-26.7,21.3
		c-13.4,0-17.9-11.5-26.1-20.9c-0.2,4-0.4,6.3-0.4,8.8c0,22.3,0,44.7,0,67.2c0,10-5,16.1-12.9,16.3c-8.3,0.2-13.6-6.1-13.6-16.3
		c0-31.5,0-63,0-94.5c0-11.3,4.6-18.4,13.6-21.3c9-2.9,16.9-0.2,23.8,8.8c5,6.5,10,13.1,15.2,19.8C402.9,140,403.1,140,404.3,140.2z
		"/>
	<path d="M523.5,243.4c-13.6-0.6-24.6-5.8-32.6-16.9c-5-7.1-4.6-14.8,1.3-19.6c6.3-5,13.8-4,19.6,3.3c4.4,5.6,9.8,7.9,16.5,5.4
		c6.1-2.3,8.8-7.1,8.1-13.6c-0.6-6.5-4.6-10.2-10.9-11.5c-5-1-10.4-1.3-15.2-2.9c-16.3-5.4-27.1-21.3-26.9-38.2
		c0.4-16.9,11.3-31.7,27.3-37.1c16.3-5.4,34.2,0,44.7,13.8c5.8,7.9,5.6,15.6-0.8,20.7c-6.3,4.8-13.6,3.5-19.6-3.8
		c-4.8-5.8-10.4-7.9-17.1-4.8c-5.4,2.5-8.1,7.5-7.1,13.6c1.3,7.5,6.1,11.5,13.6,11.5c25.7,0.4,45.9,25.2,37.4,52.6
		C556,232.4,540.6,243.4,523.5,243.4z"/>
	<path d="M243.7,177.1c0-9.8-0.4-19.8,0-29.6c1-21.1,18.8-37.4,39.9-37.4c20.9,0.2,38.6,16.7,39.9,37.6c0.6,8.3-4.4,14.8-11.9,15.6
		c-7.9,0.8-13.1-3.5-14.6-12.7c-1-6.1-3.1-11.9-9.6-12.5c-4.4-0.4-9.6,1-13.4,3.5c-2.3,1.5-3.5,6.3-3.5,9.6
		c-0.4,16.9-0.2,33.8-0.2,50.7c0,8.8,4.6,14,11.9,14.6c7.7,0.6,12.9-4,14.6-12.9c1.7-9.8,7.5-14.4,15.9-12.9
		c7.7,1.5,11.9,8.1,10.6,17.3c-2.9,21.1-20.4,36.3-40.7,35.7c-21.5-0.8-38-17.3-38.8-39C243.4,195.2,243.7,186.1,243.7,177.1
		L243.7,177.1z"/>
	<path d="M644.1,216.9c8.3,0,16.7-0.2,25,0c9,0.2,14.2,5.4,14.2,13.1c0,7.7-5.2,13.1-14.2,13.4c-17.1,0.2-34.4,0.2-51.5,0
		c-8.6-0.2-14.2-6.1-14-13.8c0.2-7.3,5.6-12.5,14-12.7C626.3,216.7,635.1,216.9,644.1,216.9z"/>
	<path d="M163.5,243.7c-8.3,0-16.7,0.2-25,0c-9.4-0.2-15-5.4-14.8-13.6c0-7.9,5.6-12.9,15.2-13.1c16.5-0.2,32.8-0.2,49.2,0
		c9.6,0,15.2,5.2,15.4,12.9c0.2,8.1-5.8,13.4-15.6,13.6c-0.4,0-1,0-1.5,0C178.6,243.7,171,243.7,163.5,243.7z"/>
</g>
</svg>
