<?xml version="1.0" encoding="utf-8"?>
<!-- Generator: Adobe Illustrator 25.4.1, SVG Export Plug-In . SVG Version: 6.00 Build 0)  -->
<svg version="1.1" id="Layer_1" xmlns="http://www.w3.org/2000/svg" xmlns:xlink="http://www.w3.org/1999/xlink" x="0px" y="0px"
	 viewBox="0 0 2000 2000" style="enable-background:new 0 0 2000 2000;" xml:space="preserve">
<g>
	<path d="M808,1112.7c0-96.1,0-192.1,0-288.2c5.2-12.6,9.8-15.7,23.5-15.7c112.7,0,225.3,0,338,0c14.4,0,21.9,7.5,21.9,21.9
		c0,91.8,0,183.6,0,275.4c0,14.6-7.5,22.1-22.1,22.1c-39.8,0-79.6,0-119.4,0c-1.5,0-2.9,0-4.6,0c0.2,1.2,0.2,2,0.4,2.7
		c3.2,11.5,14.7,21.5,26.5,23c10.3,1.3,17.6,6.6,21.5,16.2c4.2,10.2,1.6,16.9-8,21.9c-57.4,0-114.8,0-172.2,0
		c-9.6-5-12.1-11.7-8-21.9c3.8-9.5,11.1-14.5,21.1-16.3c11.5-2,20.2-8.1,25.4-18.8c1-2,1.4-4.3,2.3-6.9c-2.3,0-3.8,0-5.3,0
		c-39.9,0-79.8,0-119.7,0c-11.2,0-17.2-4.3-20.9-15C808.4,1113,808.2,1112.8,808,1112.7z M1178.6,1076.8c0-1.8,0-3.2,0-4.6
		c0-80.5,0-160.9,0-241.4c0-7.5-1.8-9.4-9.2-9.4c-113.2,0-226.3,0-339.5,0c-7.2,0-9.1,1.9-9.1,9c0,80.7,0,161.4,0,242.1
		c0,1.3,0,2.7,0,4.1C940.2,1076.8,1059.2,1076.8,1178.6,1076.8z M820.8,1090c0,6.6-0.1,12.7,0,18.8c0.1,3.9,2.4,6.2,6.3,6.6
		c1.2,0.1,2.5,0.1,3.7,0.1c112.6,0,225.1,0,337.7,0c1.6,0,3.3,0,4.8-0.3c2.9-0.5,4.9-2.4,5.1-5.3c0.3-6.6,0.1-13.1,0.1-19.9
		C1059.2,1090,940.2,1090,820.8,1090z M1082.6,1179.1c-0.7-8.3-5.6-12.6-14-12.6c-45.9,0-91.8,0-137.8,0c-1,0-2,0-3,0.1
		c-6.3,0.7-11.1,6.2-10.8,12.5C972.1,1179.1,1027.2,1179.1,1082.6,1179.1z M1044.6,1153.5c-6.5-7-10.7-14.5-12.3-23.4
		c-0.1-0.8-1.9-1.9-2.8-1.9c-19.8-0.1-39.6-0.1-59.5-0.1c-2.2,0-2.9,0.9-3.3,2.9c-0.8,3.5-1.8,7.1-3.4,10.2
		c-2.2,4.2-5.1,8.1-7.8,12.2C984.9,1153.5,1014.4,1153.5,1044.6,1153.5z"/>
	<path d="M999.7,1064.2c-50.1,0-100.3,0-150.4,0c-11.3,0-15.8-4.5-15.8-15.9c0-66.1,0-132.2,0-198.3c0-11,4.7-15.7,15.7-15.7
		c100.3,0,200.6,0,300.9,0c11.1,0,15.8,4.7,15.8,15.6c0,66.2,0,132.4,0,198.7c0,11.1-4.6,15.6-15.7,15.6
		C1100,1064.2,1049.9,1064.2,999.7,1064.2z M1152.8,1051.2c0-68.2,0-136,0-204c-102.2,0-204.2,0-306.3,0c0,68.1,0,136,0,204
		c10.7,0,21.1,0,32,0c-0.6-10,5.6-14.3,13.9-16.9c0.6-0.2,1.1-0.5,1.7-0.7c6-1.3,9.4-4.7,11-10.9c1.3-5.1,5.6-9.8,5.6-14.7
		c0-4.9-3.7-9.9-5.8-14.8c-2.1-5.1-1.4-9.9,2.3-13.9c4.3-4.7,8.9-9.1,13.4-13.5c4.5-4.3,9.6-4.8,15.2-2.3c4,1.8,8,3.6,12,5.1
		c1.4,0.5,3.3,0.4,4.8-0.2c5.7-2.2,11.3-4.5,16.9-7c1.4-0.6,2.8-1.9,3.5-3.3c1.9-3.9,3.3-8.1,4.9-12.1c2.3-5.8,6.6-8.9,12.9-9.1
		c5.9-0.2,11.7-0.2,17.6,0c6.2,0.2,10.6,3.3,12.9,9.1c1.6,4.2,3.2,8.4,5.1,12.5c0.5,1.2,1.8,2.3,3,2.9c5.8,2.6,11.7,5,17.6,7.3
		c1.2,0.5,2.9,0.6,4.1,0.1c3.9-1.4,7.6-3.1,11.3-4.8c6.4-3,12.1-2.4,17.2,2.6c2.3,2.3,4.8,4.4,7.1,6.7c10.6,11,11.3,12.9,4.9,26.5
		c-2.8,6-3.5,11,0.2,16.9c2.6,4.2,2.9,10.4,6.2,13.6c3.4,3.3,9.2,4.1,13.9,6c5.2,2.1,8.2,5.9,8.9,11.5c0.1,1.1,0.3,2.2,0.4,3.4
		C1131.7,1051.2,1142.1,1051.2,1152.8,1051.2z M936.3,1051.1c42.4,0,84.6,0,126.8,0c-3.4-32.6-31.1-57.3-63.6-57.1
		C966.9,994.2,939.2,1019,936.3,1051.1z M1107.6,1051.2c0.3-0.4,0.5-0.7,0.8-1.1c-1-0.8-1.8-2-2.9-2.5c-5-2.2-10.1-4.2-15.2-6.2
		c-2.8-1.1-4.3-3-5.3-5.8c-2.9-7.5-5.9-15-9.2-22.4c-1.3-2.9-1.6-5.4-0.3-8.2c2.1-4.7,3.9-9.4,6.1-14.1c1-2.1,1-3.6-0.7-5.3
		c-3.1-3-6.2-6.1-9.2-9.3c-1.5-1.6-2.8-1.4-4.6-0.6c-4.8,2.1-9.7,4-14.4,6.2c-3.1,1.4-5.8,0.9-8.9-0.5c-7-3.2-14.1-6.2-21.3-8.8
		c-3.2-1.2-5.5-2.7-6.5-6c-0.5-1.5-1.1-3-1.8-4.5c-2-4.2-3-10-6.3-12c-3.5-2.2-9.2-0.7-13.9-0.8c-0.2,0-0.6-0.1-0.7,0
		c-1.2,0.8-2.9,1.4-3.5,2.5c-2.3,5.1-4,10.5-6.6,15.5c-1.1,2.1-3.3,4-5.5,4.9c-7.3,3.3-15,6.1-22.3,9.4c-2.9,1.3-5.4,1.7-8.2,0.4
		c-1.6-0.8-3.2-1.4-4.8-2.1c-14-6-14-6-23.8,5.8c-0.1,0.1-0.2,0.2-0.2,0.3c-0.2,1.3-0.9,2.8-0.5,3.9c1.9,5,4,9.9,6.2,14.8
		c1.4,3.1,1,5.8-0.4,8.9c-3.3,7.1-6.3,14.3-9,21.7c-1.1,2.9-2.5,5-5.5,6.1c-5,1.9-10,3.9-14.9,6c-1.2,0.5-2,1.9-3.6,3.6
		c11.9,0,22.3,0,32.6,0c4.3-40.8,36.9-68.9,74.4-70c39.9-1.2,75.3,29.3,78.8,70.1C1086.8,1051.2,1097.2,1051.2,1107.6,1051.2z"/>
	<path d="M1000.1,874.2c2.3-3.1,4.7-6.4,7.2-9.6c3.3-4.3,7-5.6,11.4-4.2c4.3,1.4,6.5,4.9,6.5,10.2c0,15.1,0,30.2,0,45.3
		c0,5-2.5,7.9-6.5,7.8c-3.9-0.1-6.2-3-6.2-7.8c0-11.8,0-23.7,0-36.6c-4.1,4.6-6.4,10.2-12.8,10.2c-6.4,0-8.6-5.5-12.5-10
		c-0.1,1.9-0.2,3-0.2,4.2c0,10.7,0,21.4,0,32.2c0,4.8-2.4,7.7-6.2,7.8c-4,0.1-6.5-2.9-6.5-7.8c0-15.1,0-30.2,0-45.3
		c0-5.4,2.2-8.8,6.5-10.2c4.3-1.4,8.1-0.1,11.4,4.2c2.4,3.1,4.8,6.3,7.3,9.5C999.4,874.1,999.5,874.1,1000.1,874.2z"/>
	<path d="M1057.2,923.7c-6.5-0.3-11.8-2.8-15.6-8.1c-2.4-3.4-2.2-7.1,0.6-9.4c3-2.4,6.6-1.9,9.4,1.6c2.1,2.7,4.7,3.8,7.9,2.6
		c2.9-1.1,4.2-3.4,3.9-6.5c-0.3-3.1-2.2-4.9-5.2-5.5c-2.4-0.5-5-0.6-7.3-1.4c-7.8-2.6-13-10.2-12.9-18.3c0.2-8.1,5.4-15.2,13.1-17.8
		c7.8-2.6,16.4,0,21.4,6.6c2.8,3.8,2.7,7.5-0.4,9.9c-3,2.3-6.5,1.7-9.4-1.8c-2.3-2.8-5-3.8-8.2-2.3c-2.6,1.2-3.9,3.6-3.4,6.5
		c0.6,3.6,2.9,5.5,6.5,5.5c12.3,0.2,22,12.1,17.9,25.2C1072.8,918.4,1065.4,923.7,1057.2,923.7z"/>
	<path d="M923.1,891.9c0-4.7-0.2-9.5,0-14.2c0.5-10.1,9-17.9,19.1-17.9c10,0.1,18.5,8,19.1,18c0.3,4-2.1,7.1-5.7,7.5
		c-3.8,0.4-6.3-1.7-7-6.1c-0.5-2.9-1.5-5.7-4.6-6c-2.1-0.2-4.6,0.5-6.4,1.7c-1.1,0.7-1.7,3-1.7,4.6c-0.2,8.1-0.1,16.2-0.1,24.3
		c0,4.2,2.2,6.7,5.7,7c3.7,0.3,6.2-1.9,7-6.2c0.8-4.7,3.6-6.9,7.6-6.2c3.7,0.7,5.7,3.9,5.1,8.3c-1.4,10.1-9.8,17.4-19.5,17.1
		c-10.3-0.4-18.2-8.3-18.6-18.7C923,900.6,923.1,896.2,923.1,891.9C923.1,891.9,923.1,891.9,923.1,891.9z"/>
	<path d="M1115,911c4,0,8-0.1,12,0c4.3,0.1,6.8,2.6,6.8,6.3c0,3.7-2.5,6.3-6.8,6.4c-8.2,0.1-16.5,0.1-24.7,0
		c-4.1-0.1-6.8-2.9-6.7-6.6c0.1-3.5,2.7-6,6.7-6.1C1106.5,910.9,1110.7,911,1115,911z"/>
	<path d="M884.7,923.8c-4,0-8,0.1-12,0c-4.5-0.1-7.2-2.6-7.1-6.5c0-3.8,2.7-6.2,7.3-6.3c7.9-0.1,15.7-0.1,23.6,0
		c4.6,0,7.3,2.5,7.4,6.2c0.1,3.9-2.8,6.4-7.5,6.5c-0.2,0-0.5,0-0.7,0C891.9,923.8,888.3,923.8,884.7,923.8z"/>
</g>
</svg>
