<?xml version="1.0" encoding="utf-8"?>
<!-- Generator: Adobe Illustrator 25.4.1, SVG Export Plug-In . SVG Version: 6.00 Build 0)  -->
<svg version="1.1" id="Layer_1" xmlns="http://www.w3.org/2000/svg" xmlns:xlink="http://www.w3.org/1999/xlink" x="0px" y="0px"
	 viewBox="0 0 816.3 816.3" style="enable-background:new 0 0 816.3 816.3;" xml:space="preserve">
<g>
	<path d="M8.1,623.4c0-192.7,0-385.4,0-578.4c0.8-2.7,1.7-5.4,2.5-8.1c4.4-13.8,13.2-23,27.1-26.7c5.8-1.7,12.3-1.9,18.6-1.9
		c234.7,0,469.4,0,704.1,0c2.3,0,4.6,0,7.1,0c19,1,33.6,11.5,38.2,28.2c1.7,6.5,2.3,13.4,2.3,20c0.2,185.2,0,370.4,0,555.6
		c0,2.5,0,5.2,0,7.7c-1,21.9-13.8,36.7-34.7,40.1c-3.8,0.6-7.7,0.4-11.7,0.4c-91.9,0-184,0-275.8,0c-11.5,0-11.7,0.4-11.9,11.9
		c0,10.4,0,20.9,0,31.3c0,11.7,0.6,12.3,12.5,12.3c24,0.2,48-0.2,71.8,0.4c19.2,0.4,34.9,16.7,35.5,35.9c0.4,10.2,0.4,20.3,0,30.5
		c-0.4,10.2-5.8,17.5-15,21.9c-2.5,1.3-5.2,2.3-7.9,3.3c-108.4,0-216.7,0-325.1,0c-1.3-0.6-2.3-1.3-3.5-1.7
		c-14.4-5.6-19.4-12.7-19.6-28.4c0-6.3,0-12.5,0-18.8c0-28,14.8-43,42.8-43.2c21.7-0.2,43.2,0,64.9,0c11.9,0,12.5-0.6,12.5-12.3
		c0-10.4,0-20.9,0-31.3c0-11.7-0.4-11.9-11.7-11.9c-62.8,0-125.5,0-188.3,0c-30.7,0-61.4,0-92.3,0c-21.1,0-35.5-11.5-40.7-31.7
		C9.6,626.8,8.8,625.1,8.1,623.4z M409.2,33.6c-117.6,0-234.9,0-352.5,0c-3.3,0-6.9-0.2-10.2,0.2c-7.1,1-11.3,5.2-12.3,12.1
		c-0.4,2.7-0.2,5.6-0.2,8.6c0,186.5,0,372.9,0,559.4c0,2.5,0,5.2,0.2,7.7c0.6,7.5,5.4,12.3,12.9,13.2c3.1,0.2,6.3,0.2,9.4,0.2
		c234.5,0,469,0,703.2,0c3.3,0,6.9,0.2,10.2-0.2c7.1-0.8,11.3-5.2,12.3-12.1c0.4-3.3,0.2-6.7,0.2-10.2c0-185.4,0-370.8,0-556.2
		c0-3.1,0.2-6.3-0.2-9.4c-0.6-7.5-5.4-12.5-12.9-13.2c-3.3-0.2-6.7-0.2-10.2-0.2C642.5,33.6,525.8,33.6,409.2,33.6z M407.6,781.9
		c47.6,0,95.2,0.2,143,0c20.3,0,19.2,3.5,19.2-19.2c0-18.2-4.4-22.6-22.8-22.6c-92.5,0-184.8,0-277.3,0c-2.3,0-4.6,0-7.1,0
		c-9.2,0.6-14.4,5.4-15.5,14.6c-0.6,4.8-0.4,9.8-0.4,14.8c0,12.1,0.2,12.3,12.1,12.3C308.6,781.9,358.1,781.9,407.6,781.9z
		 M409,660.4c-11.5,0-23,0.2-34.5,0c-5.2,0-7.5,2.3-7.5,7.5c0,13.6,0,27.1,0,40.5c0,5,2.3,7.1,7.1,7.1c22.6,0,45.3,0,67.9,0
		c4.8,0,7.1-2.3,7.1-7.1c0-13.6,0-27.1,0-40.5c0-5.2-2.1-7.5-7.5-7.5C431,660.4,420.1,660.4,409,660.4z"/>
	<path d="M408.8,62.2c102.3,0,204.8,0,307.1,0c3.3,0,6.7,0,10.2,0c18.6,0.4,27.4,9.4,27.8,28.2c0,2.1,0,4.2,0,6.3
		c0,158.3,0,316.7,0,475c0,3.1,0,6.3-0.2,9.4c-0.8,14.4-8.4,23-22.8,25.5c-4.2,0.6-8.4,0.6-12.5,0.6c-206.9,0-413.6,0-620.5,0
		c-5.4,0-11.1-0.2-16.3-1.5C71,603.4,64.1,595,63.1,584.2c-0.4-4.2-0.4-8.4-0.4-12.5c0-158.3,0-316.7,0-475c0-3.3,0-6.7,0.2-10.2
		c1-14.2,9.6-23,23.8-24c4.4-0.4,8.8-0.2,13.4-0.2C202.9,62.2,305.9,62.2,408.8,62.2z M726.8,534.7c0.6-0.4,1.5-0.6,2.1-1
		c0.2-2.7,0.4-5.6,0.4-8.4c0-142.2,0-284.4,0-426.6c0-11.9,0-11.9-12.3-11.9c-205.9,0-411.5,0-617.4,0c-12.3,0-12.3,0-12.3,11.9
		c0,157,0,314,0,471.3c0,11.9,0,11.9,11.5,11.9c68.7,0,137.6-0.2,206.3,0.2c8.6,0,11.7-2.5,13.2-10.9
		c9.4-54.7,52.6-97.3,107.5-106.9c3.5-0.6,6.9-1.5,11.5-2.3c-2.1-3.1-3.3-5.4-5-7.3c-11.5-15.2-19-32.4-21.5-51.4
		c-1-7.5-4-10-11.3-10.2c-23.2-0.8-41.3-18.2-43.6-41.1c-2.3-22.3,12.9-43,35.5-48.7c3.1-0.8,6.3-1.5,10.2-2.5c-1-3.5-2.1-6.3-2.7-9
		c-3.3-12.3-7.7-24.4-9.4-37c-5-33.8,4.6-61.8,34.7-80.8c3.5-2.3,6.7-5.8,9.4-9.2c20.5-25.7,46.1-42.8,78.9-47.8
		c28.8-4.4,56.6,0.8,83.3,11.7c19.2,7.9,22.1,18.4,9.6,34.7c-0.2,0.4-0.2,1-0.4,2.1c57.2,29,88.3,69.3,55.5,136.1
		c3.1,1,6.1,2.1,8.8,3.1c21.7,7.3,34,27.6,30.7,50.9c-2.9,20.5-21.1,37-42.8,37.4c-7.7,0.2-10.4,3.1-11.5,10.2
		c-2.5,19-10.2,35.9-21.5,51.4c-1.5,1.9-2.7,4.2-4.6,7.5C667.9,468.5,703.6,492.5,726.8,534.7z M621.6,349.9c0.4,0,0.8,0,1.3,0
		c0-10.2,0-20.3,0-30.5c0-20.9-0.6-21.9-21.7-19.6c-29.9,3.3-57.8-2.3-84.6-15.9c-13.4-6.9-27.4-12.5-41.6-18
		c-15.7-6.1-26.3-2.5-34.5,11.9c-3.5,6.3-6.1,14-6.3,21.3c-0.6,29.4-0.2,58.9-0.2,88.3c0,16.1,4.2,30.9,12.7,44.5
		c21.3,33.8,52.8,45.9,91.5,43.4c42.8-2.9,77.7-34.7,82.9-77C623.3,382.2,621.6,366,621.6,349.9z M639.3,285.2
		c8.6-12.9,11.5-25.1,9.6-38.2c-2.5-18.4-12.5-32.8-27.6-42.6c-12.1-7.9-25.5-14-38.4-20.3c-11.3-5.4-15.2-16.3-8.8-27.1
		c1.5-2.3,2.7-4.6,4.2-6.9c-1.5-1-2.1-1.7-2.7-2.1c-45.3-16.5-94.2-7.9-124.7,34.5c-3.1,4.4-7.1,8.4-11.5,11.3
		c-21.3,13.8-29.6,31.9-25.7,57.2c0.8,4.8,2.1,9.6,3.5,16.3c2.9-4,4.4-5.8,5.8-7.7c13.6-18.8,33.8-26.1,55.7-18.4
		c15.9,5.6,31.9,11.7,46.8,19.6c24,12.7,49.1,16.9,75.6,14.4C614.7,273.9,628.7,270.1,639.3,285.2z M614.1,580.6
		c2.1,0.4,3.3,1,4.6,1c29.9,0,59.9,0,89.8,0.2c6.5,0,6.3-3.8,5.4-8.4c-9-40.3-33.4-67.2-72-81.2c-5.4-2.1-8.1-0.2-8.6,5.8
		c-1.7,25.9-7.7,50.7-16.9,75.2C615.3,575.4,614.9,577.9,614.1,580.6z M420.5,491.2c-2.3,0.6-5.4,0.8-8.4,2.1
		c-36.7,14.2-59.7,40.3-68.9,78.5c-2.1,9-1.3,10,8.1,10c27.6,0,55.1,0,82.7,0c2.7,0,5.4-0.6,6.9-0.8
		C434.1,551,427.4,521.7,420.5,491.2z M528.3,512.3c-5.8,9.4-10.2,16.9-15,24.2c-11.7,18-33,21.5-50.1,8.6c-1.5-1-3.1-2.1-4.8-3.1
		c-0.8,0.4-1.5,0.8-2.3,1.3c4.6,11.7,9,23.4,14.2,34.9c0.8,1.9,4.6,3.1,7.1,3.1c33.8,0.2,67.7,0.2,101.5,0c2.3,0,6.3-0.8,6.9-2.3
		c5.2-11.9,10-24,14.8-36.1c-0.8-0.4-1.5-0.8-2.3-1.3c-0.8,0.4-1.9,0.6-2.5,1.3c-22.1,16.1-41.1,12.3-55.3-11.1
		C537,526.1,533.3,520.3,528.3,512.3z M506.5,500c-10.2-3.3-18.6-6.7-27.4-9c-8.1-2.1-16.5-3.5-24.8-4.2c-6.1-0.4-7.9,3.5-3.8,8.4
		c9.2,10.2,18.6,20.3,28.2,30.1c3.5,3.5,8.6,4.2,11.7,0C496.1,517.6,500.9,509,506.5,500z M596.5,485.8c0,0.2-0.2,0.4-0.2,0.8
		c-3.1,0.2-6.5-0.2-9.4,0.6c-10.9,3.3-21.7,7.1-32.4,11.1c-1,0.4-2.3,4.4-1.5,5.8c3.1,6.3,6.9,12.3,10.6,18.2
		c4.8,7.3,9.8,7.7,15.9,1.7c7.7-7.7,15.2-15.7,22.3-24c2.7-3.1,4-7.3,5.8-10.9C604.1,488.1,600.3,486.9,596.5,485.8z M647.3,347.2
		L647.3,347.2c0.2,5,0,9.8,0.2,14.8c0,4.4,2.3,6.5,6.9,6.7c10.9,0.2,20.7-8.6,21.7-19.4c1-10.2-6.7-20-17.1-21.9
		c-9.6-1.7-11.5-0.2-11.7,9.8C647.1,340.5,647.3,343.8,647.3,347.2z M408.8,347.6c0-5,0-9.8,0-14.8c0.2-4.4-2.3-5.8-6.3-5.8
		c-11.7-0.2-21.1,8.6-21.5,20.3c-0.2,12.1,9,21.5,20.9,21.7c4.4,0,7.1-1.5,6.9-6.3C408.8,357.4,408.8,352.6,408.8,347.6z"/>
</g>
</svg>
