<?xml version="1.0" encoding="utf-8"?>
<!-- Generator: Adobe Illustrator 25.4.1, SVG Export Plug-In . SVG Version: 6.00 Build 0)  -->
<svg version="1.1" id="Layer_1" xmlns="http://www.w3.org/2000/svg" xmlns:xlink="http://www.w3.org/1999/xlink" x="0px" y="0px"
	 viewBox="0 0 2000 2000" style="enable-background:new 0 0 2000 2000;" xml:space="preserve">
<g>
	<path d="M808,1103.7c0-92.3,0-184.6,0-277c0.4-1.3,0.8-2.6,1.2-3.9c2.1-6.6,6.3-11,13-12.8c2.8-0.8,5.9-0.9,8.9-0.9
		c112.4,0,224.8,0,337.2,0c1.1,0,2.2,0,3.4,0c9.1,0.5,16.1,5.5,18.3,13.5c0.8,3.1,1.1,6.4,1.1,9.6c0.1,88.7,0,177.4,0,266.1
		c0,1.2,0,2.5,0,3.7c-0.5,10.5-6.6,17.6-16.6,19.2c-1.8,0.3-3.7,0.2-5.6,0.2c-44,0-88.1,0-132.1,0c-5.5,0-5.6,0.2-5.7,5.7
		c0,5,0,10,0,15c0,5.6,0.3,5.9,6,5.9c11.5,0.1,23-0.1,34.4,0.2c9.2,0.2,16.7,8,17,17.2c0.2,4.9,0.2,9.7,0,14.6
		c-0.2,4.9-2.8,8.4-7.2,10.5c-1.2,0.6-2.5,1.1-3.8,1.6c-51.9,0-103.8,0-155.7,0c-0.6-0.3-1.1-0.6-1.7-0.8c-6.9-2.7-9.3-6.1-9.4-13.6
		c0-3,0-6,0-9c0-13.4,7.1-20.6,20.5-20.7c10.4-0.1,20.7,0,31.1,0c5.7,0,6-0.3,6-5.9c0-5,0-10,0-15c0-5.6-0.2-5.7-5.6-5.7
		c-30.1,0-60.1,0-90.2,0c-14.7,0-29.4,0-44.2,0c-10.1,0-17-5.5-19.5-15.2C808.7,1105.3,808.3,1104.5,808,1103.7z M1000.1,821.2
		c-56.3,0-112.5,0-168.8,0c-1.6,0-3.3-0.1-4.9,0.1c-3.4,0.5-5.4,2.5-5.9,5.8c-0.2,1.3-0.1,2.7-0.1,4.1c0,89.3,0,178.6,0,267.9
		c0,1.2,0,2.5,0.1,3.7c0.3,3.6,2.6,5.9,6.2,6.3c1.5,0.1,3,0.1,4.5,0.1c112.3,0,224.6,0,336.8,0c1.6,0,3.3,0.1,4.9-0.1
		c3.4-0.4,5.4-2.5,5.9-5.8c0.2-1.6,0.1-3.2,0.1-4.9c0-88.8,0-177.6,0-266.4c0-1.5,0.1-3-0.1-4.5c-0.3-3.6-2.6-6-6.2-6.3
		c-1.6-0.1-3.2-0.1-4.9-0.1C1111.8,821.2,1055.9,821.2,1000.1,821.2z M999.3,1179.6c22.8,0,45.6,0.1,68.5,0c9.7,0,9.2,1.7,9.2-9.2
		c0-8.7-2.1-10.8-10.9-10.8c-44.3,0-88.5,0-132.8,0c-1.1,0-2.2,0-3.4,0c-4.4,0.3-6.9,2.6-7.4,7c-0.3,2.3-0.2,4.7-0.2,7.1
		c0,5.8,0.1,5.9,5.8,5.9C951.9,1179.6,975.6,1179.6,999.3,1179.6z M1000,1121.4c-5.5,0-11,0.1-16.5,0c-2.5,0-3.6,1.1-3.6,3.6
		c0,6.5,0,13,0,19.4c0,2.4,1.1,3.4,3.4,3.4c10.8,0,21.7,0,32.5,0c2.3,0,3.4-1.1,3.4-3.4c0-6.5,0-13,0-19.4c0-2.5-1-3.6-3.6-3.6
		C1010.5,1121.4,1005.3,1121.4,1000,1121.4z"/>
	<path d="M999.9,834.9c49,0,98.1,0,147.1,0c1.6,0,3.2,0,4.9,0c8.9,0.2,13.1,4.5,13.3,13.5c0,1,0,2,0,3c0,75.8,0,151.7,0,227.5
		c0,1.5,0,3-0.1,4.5c-0.4,6.9-4,11-10.9,12.2c-2,0.3-4,0.3-6,0.3c-99.1,0-198.1,0-297.2,0c-2.6,0-5.3-0.1-7.8-0.7
		c-5.1-1.1-8.4-5.1-8.9-10.3c-0.2-2-0.2-4-0.2-6c0-75.8,0-151.7,0-227.5c0-1.6,0-3.2,0.1-4.9c0.5-6.8,4.6-11,11.4-11.5
		c2.1-0.2,4.2-0.1,6.4-0.1C901.3,834.9,950.6,834.9,999.9,834.9z M1152.2,1061.2c0.3-0.2,0.7-0.3,1-0.5c0.1-1.3,0.2-2.7,0.2-4
		c0-68.1,0-136.2,0-204.3c0-5.7,0-5.7-5.9-5.7c-98.6,0-197.1,0-295.7,0c-5.9,0-5.9,0-5.9,5.7c0,75.2,0,150.4,0,225.7
		c0,5.7,0,5.7,5.5,5.7c32.9,0,65.9-0.1,98.8,0.1c4.1,0,5.6-1.2,6.3-5.2c4.5-26.2,25.2-46.6,51.5-51.2c1.7-0.3,3.3-0.7,5.5-1.1
		c-1-1.5-1.6-2.6-2.4-3.5c-5.5-7.3-9.1-15.5-10.3-24.6c-0.5-3.6-1.9-4.8-5.4-4.9c-11.1-0.4-19.8-8.7-20.9-19.7
		c-1.1-10.7,6.2-20.6,17-23.3c1.5-0.4,3-0.7,4.9-1.2c-0.5-1.7-1-3-1.3-4.3c-1.6-5.9-3.7-11.7-4.5-17.7c-2.4-16.2,2.2-29.6,16.6-38.7
		c1.7-1.1,3.2-2.8,4.5-4.4c9.8-12.3,22.1-20.5,37.8-22.9c13.8-2.1,27.1,0.4,39.9,5.6c9.2,3.8,10.6,8.8,4.6,16.6
		c-0.1,0.2-0.1,0.5-0.2,1c27.4,13.9,42.3,33.2,26.6,65.2c1.5,0.5,2.9,1,4.2,1.5c10.4,3.5,16.3,13.2,14.7,24.4
		c-1.4,9.8-10.1,17.7-20.5,17.9c-3.7,0.1-5,1.5-5.5,4.9c-1.2,9.1-4.9,17.2-10.3,24.6c-0.7,0.9-1.3,2-2.2,3.6
		C1124,1029.5,1141.1,1041,1152.2,1061.2z M1101.8,972.7c0.2,0,0.4,0,0.6,0c0-4.9,0-9.7,0-14.6c0-10-0.3-10.5-10.4-9.4
		c-14.3,1.6-27.7-1.1-40.5-7.6c-6.4-3.3-13.1-6-19.9-8.6c-7.5-2.9-12.6-1.2-16.5,5.7c-1.7,3-2.9,6.7-3,10.2
		c-0.3,14.1-0.1,28.2-0.1,42.3c0,7.7,2,14.8,6.1,21.3c10.2,16.2,25.3,22,43.8,20.8c20.5-1.4,37.2-16.6,39.7-36.9
		C1102.6,988.2,1101.8,980.4,1101.8,972.7z M1110.3,941.7c4.1-6.2,5.5-12,4.6-18.3c-1.2-8.8-6-15.7-13.2-20.4
		c-5.8-3.8-12.2-6.7-18.4-9.7c-5.4-2.6-7.3-7.8-4.2-13c0.7-1.1,1.3-2.2,2-3.3c-0.7-0.5-1-0.8-1.3-1c-21.7-7.9-45.1-3.8-59.7,16.5
		c-1.5,2.1-3.4,4-5.5,5.4c-10.2,6.6-14.2,15.3-12.3,27.4c0.4,2.3,1,4.6,1.7,7.8c1.4-1.9,2.1-2.8,2.8-3.7c6.5-9,16.2-12.5,26.7-8.8
		c7.6,2.7,15.3,5.6,22.4,9.4c11.5,6.1,23.5,8.1,36.2,6.9C1098.5,936.3,1105.2,934.5,1110.3,941.7z M1098.2,1083.2
		c1,0.2,1.6,0.5,2.2,0.5c14.3,0,28.7,0,43,0.1c3.1,0,3-1.8,2.6-4c-4.3-19.3-16-32.2-34.5-38.9c-2.6-1-3.9-0.1-4.1,2.8
		c-0.8,12.4-3.7,24.3-8.1,36C1098.8,1080.7,1098.6,1081.9,1098.2,1083.2z M1005.5,1040.4c-1.1,0.3-2.6,0.4-4,1
		c-17.6,6.8-28.6,19.3-33,37.6c-1,4.3-0.6,4.8,3.9,4.8c13.2,0,26.4,0,39.6,0c1.3,0,2.6-0.3,3.3-0.4
		C1012,1069,1008.8,1055,1005.5,1040.4z M1057.1,1050.5c-2.8,4.5-4.9,8.1-7.2,11.6c-5.6,8.6-15.8,10.3-24,4.1
		c-0.7-0.5-1.5-1-2.3-1.5c-0.4,0.2-0.7,0.4-1.1,0.6c2.2,5.6,4.3,11.2,6.8,16.7c0.4,0.9,2.2,1.5,3.4,1.5c16.2,0.1,32.4,0.1,48.6,0
		c1.1,0,3-0.4,3.3-1.1c2.5-5.7,4.8-11.5,7.1-17.3c-0.4-0.2-0.7-0.4-1.1-0.6c-0.4,0.2-0.9,0.3-1.2,0.6c-10.6,7.7-19.7,5.9-26.5-5.3
		C1061.3,1057.1,1059.5,1054.3,1057.1,1050.5z M1046.7,1044.6c-4.9-1.6-8.9-3.2-13.1-4.3c-3.9-1-7.9-1.7-11.9-2
		c-2.9-0.2-3.8,1.7-1.8,4c4.4,4.9,8.9,9.7,13.5,14.4c1.7,1.7,4.1,2,5.6,0C1041.7,1053,1044,1048.9,1046.7,1044.6z M1089.8,1037.8
		c0,0.1-0.1,0.2-0.1,0.4c-1.5,0.1-3.1-0.1-4.5,0.3c-5.2,1.6-10.4,3.4-15.5,5.3c-0.5,0.2-1.1,2.1-0.7,2.8c1.5,3,3.3,5.9,5.1,8.7
		c2.3,3.5,4.7,3.7,7.6,0.8c3.7-3.7,7.3-7.5,10.7-11.5c1.3-1.5,1.9-3.5,2.8-5.2C1093.4,1038.9,1091.6,1038.3,1089.8,1037.8z
		 M1114.1,971.4C1114.1,971.4,1114.1,971.4,1114.1,971.4c0.1,2.4,0,4.7,0.1,7.1c0,2.1,1.1,3.1,3.3,3.2c5.2,0.1,9.9-4.1,10.4-9.3
		c0.5-4.9-3.2-9.6-8.2-10.5c-4.6-0.8-5.5-0.1-5.6,4.7C1114,968.2,1114.1,969.8,1114.1,971.4z M999.9,971.6c0-2.4,0-4.7,0-7.1
		c0.1-2.1-1.1-2.8-3-2.8c-5.6-0.1-10.1,4.1-10.3,9.7c-0.1,5.8,4.3,10.3,10,10.4c2.1,0,3.4-0.7,3.3-3
		C999.9,976.3,999.9,974,999.9,971.6z"/>
	<path d="M973.4,917.4c0,31.8-25.3,56.9-57.2,56.7c-31.4-0.1-56.5-25.4-56.4-56.8c0.1-31.8,25.1-56.9,56.7-56.9
		C948.4,860.5,973.5,885.5,973.4,917.4z M916.7,923.2C916.7,923.1,916.7,923.1,916.7,923.2c-1-0.1-2,0-3-0.1
		c-12.5-0.1-10.4-0.1-9.2,10.2c1,9.1,3,18,8.1,25.8c2.8,4.2,5.1,4.1,8,0.1c0.5-0.7,1-1.4,1.4-2.2c4.9-9.5,6.6-19.7,7.5-30.2
		c0.2-2.6-1-3.6-3.5-3.6C922.9,923.2,919.8,923.2,916.7,923.2z M916.6,911.5C916.6,911.5,916.6,911.5,916.6,911.5c3,0,6-0.1,9,0.1
		c3.2,0.1,4.5-1.4,3.9-4.3c-1.9-8.8-3.8-17.7-6-26.4c-0.6-2.3-2.2-4.5-3.7-6.4c-2.1-2.6-3.9-2.5-6.1,0c-1,1.1-1.8,2.4-2.5,3.7
		c-4.8,9.4-6.4,19.6-7.3,29.9c-0.2,2.3,0.8,3.5,3.2,3.5C910.1,911.4,913.4,911.5,916.6,911.5z M935.2,957.3c1,0,1.4,0.1,1.8,0
		c10.2-3.5,23.1-20.3,23.9-31.1c0.2-2.2-0.9-3-2.8-3c-3.6-0.1-7.2-0.1-10.8-0.1c-5.4,0-5.5,0.3-6.1,5.5c-0.6,5.4-1.4,10.8-2.4,16.2
		C937.8,949,936.4,952.9,935.2,957.3z M898,877.1c-1.2,0.2-1.7,0.1-2.1,0.3c-12.7,6.6-20.4,17.1-23.4,31c-0.5,2.2,0.8,2.9,2.7,3
		c4.1,0,8.2-0.1,12.3,0.1c3.2,0.1,4.3-1.4,4.6-4.4c0.6-5.5,1.3-11.1,2.4-16.6C895.2,886.2,896.7,882,898,877.1z M897.4,957.7
		c0.2-0.8,0.4-1.2,0.3-1.5c-2-10.1-3.8-20.2-6-30.2c-0.3-1.1-2.3-2.6-3.6-2.7c-4.1-0.4-8.2-0.1-12.3-0.1c-3,0-3.9,1.3-3.1,4.2
		c3.1,12.6,10.2,22.2,21.3,28.9C895,956.9,896.1,957.2,897.4,957.7z M936.1,877c1.9,11,3.6,21.5,5.5,31.9c0.2,1,2.2,2.3,3.4,2.4
		c4,0.3,8,0.2,11.9,0.1c3.8-0.1,4.4-0.8,3.4-4.6c-3.1-12.5-10.2-22-21.2-28.5C938.2,877.8,937.1,877.4,936.1,877z"/>
</g>
</svg>
