<?xml version="1.0" encoding="iso-8859-1"?>
<!-- Uploaded to: SVG Repo, www.svgrepo.com, Generator: SVG Repo Mixer Tools -->
<!DOCTYPE svg PUBLIC "-//W3C//DTD SVG 1.1//EN" "http://www.w3.org/Graphics/SVG/1.1/DTD/svg11.dtd">
<svg fill="#000000" version="1.1" id="Capa_1" xmlns="http://www.w3.org/2000/svg" xmlns:xlink="http://www.w3.org/1999/xlink" 
	 viewBox="0 0 449.945 449.945" xml:space="preserve">
<g>
	<path d="M425.922,148.886h-31.668v-16.46c0-13.502-10.984-24.486-24.486-24.486h-33.805V6c0-3.314-2.687-6-6-6h-209.98
		c-3.313,0-6,2.686-6,6v101.939H79.688c-13.502,0-24.486,10.984-24.486,24.486v16.46H24.023c-3.313,0-6,2.687-6,6v64.349
		c0,3.313,2.687,6,6,6h31.255v6.516c0,10.033-3.819,19.551-10.755,26.801c-9.081,9.494-14.082,21.958-14.082,35.096v113.658
		c0,14.145,11.508,25.652,25.652,25.652h2.882v10.987c0,3.313,2.687,6,6,6s6-2.687,6-6v-10.987h306v10.987c0,3.313,2.687,6,6,6
		s6-2.687,6-6v-10.987h4.875c14.145,0,25.652-11.508,25.652-25.652V293.647c0-13.138-5.001-25.602-14.082-35.095
		c-6.935-7.25-10.754-16.769-10.754-26.801v-6.516h31.255c3.313,0,6-2.687,6-6v-64.349
		C431.922,151.573,429.235,148.886,425.922,148.886z M67.278,230.945v-26.031h315.389v26.031H67.278z M304.505,242.945
		c-9.752,9.666-38.258,19.75-79.532,19.75s-69.78-10.084-79.532-19.75H304.505z M323.963,12v157.945h-197.98V12H323.963z
		 M67.202,132.426c0-6.885,5.602-12.486,12.486-12.486h34.294v50.005h-13.007c-3.313,0-6,2.686-6,6s2.687,6,6,6h248
		c3.313,0,6-2.686,6-6s-2.687-6-6-6h-13.013v-50.005h33.805c6.885,0,12.486,5.602,12.486,12.486v60.412H67.202V132.426z
		 M30.023,213.235v-52.349h25.255v52.349H30.023z M396.749,266.846c6.935,7.25,10.754,16.768,10.754,26.801v113.658
		c0,7.528-6.124,13.652-13.652,13.652H56.094c-7.528,0-13.652-6.125-13.652-13.652V293.647c0-10.033,3.819-19.551,10.754-26.801
		c6.449-6.742,10.828-14.986,12.832-23.901h65.055c8.203,20.553,52.224,31.75,93.891,31.75s85.687-11.197,93.891-31.75h65.055
		C385.921,251.86,390.3,260.104,396.749,266.846z M419.922,213.235h-25.255v-52.349h25.255V213.235z"/>
	<path d="M95.125,322.323c10.467,0,18.982-8.516,18.982-18.983c0-10.467-8.516-18.982-18.982-18.982s-18.982,8.516-18.982,18.982
		C76.142,313.807,84.658,322.323,95.125,322.323z M95.125,296.357c3.851,0,6.982,3.132,6.982,6.982c0,3.851-3.132,6.983-6.982,6.983
		s-6.982-3.132-6.982-6.983C88.142,299.49,91.274,296.357,95.125,296.357z"/>
	<path d="M137.278,322.323c10.467,0,18.982-8.516,18.982-18.983c0-10.467-8.516-18.982-18.982-18.982s-18.982,8.516-18.982,18.982
		C118.296,313.807,126.811,322.323,137.278,322.323z M137.278,296.357c3.851,0,6.982,3.132,6.982,6.982
		c0,3.851-3.132,6.983-6.982,6.983s-6.982-3.132-6.982-6.983C130.296,299.49,133.427,296.357,137.278,296.357z"/>
	<path d="M179.431,322.323c10.468,0,18.983-8.516,18.983-18.983c0-10.467-8.516-18.982-18.983-18.982
		c-10.467,0-18.982,8.516-18.982,18.982C160.449,313.807,168.965,322.323,179.431,322.323z M179.431,296.357
		c3.851,0,6.983,3.132,6.983,6.982c0,3.851-3.133,6.983-6.983,6.983s-6.982-3.132-6.982-6.983
		C172.449,299.49,175.581,296.357,179.431,296.357z"/>
	<path d="M221.586,322.323c10.467,0,18.982-8.516,18.982-18.983c0-10.467-8.516-18.982-18.982-18.982s-18.982,8.516-18.982,18.982
		C202.603,313.807,211.119,322.323,221.586,322.323z M221.586,296.357c3.851,0,6.982,3.132,6.982,6.982
		c0,3.851-3.132,6.983-6.982,6.983s-6.982-3.132-6.982-6.983C214.603,299.49,217.735,296.357,221.586,296.357z"/>
	<path d="M263.739,322.323c10.467,0,18.982-8.516,18.982-18.983c0-10.467-8.516-18.982-18.982-18.982s-18.982,8.516-18.982,18.982
		C244.757,313.807,253.272,322.323,263.739,322.323z M263.739,296.357c3.851,0,6.982,3.132,6.982,6.982
		c0,3.851-3.132,6.983-6.982,6.983s-6.982-3.132-6.982-6.983C256.757,299.49,259.888,296.357,263.739,296.357z"/>
	<path d="M305.892,322.323c10.468,0,18.983-8.516,18.983-18.983c0-10.467-8.516-18.982-18.983-18.982
		c-10.467,0-18.982,8.516-18.982,18.982C286.91,313.807,295.426,322.323,305.892,322.323z M305.892,296.357
		c3.851,0,6.983,3.132,6.983,6.982c0,3.851-3.133,6.983-6.983,6.983s-6.982-3.132-6.982-6.983
		C298.91,299.49,302.042,296.357,305.892,296.357z"/>
	<path d="M348.047,322.323c10.467,0,18.982-8.516,18.982-18.983c0-10.467-8.516-18.982-18.982-18.982
		c-10.468,0-18.983,8.516-18.983,18.982C329.063,313.807,337.579,322.323,348.047,322.323z M348.047,296.357
		c3.851,0,6.982,3.132,6.982,6.982c0,3.851-3.132,6.983-6.982,6.983s-6.983-3.132-6.983-6.983
		C341.063,299.49,344.196,296.357,348.047,296.357z"/>
	<path d="M95.125,370.608c-10.467,0-18.982,8.516-18.982,18.982c0,10.467,8.516,18.983,18.982,18.983s18.982-8.516,18.982-18.983
		C114.107,379.124,105.592,370.608,95.125,370.608z M95.125,396.573c-3.851,0-6.982-3.132-6.982-6.983
		c0-3.85,3.132-6.982,6.982-6.982s6.982,3.132,6.982,6.982C102.107,393.441,98.975,396.573,95.125,396.573z"/>
	<path d="M137.278,370.608c-10.467,0-18.982,8.516-18.982,18.982c0,10.467,8.516,18.983,18.982,18.983s18.982-8.516,18.982-18.983
		C156.26,379.124,147.745,370.608,137.278,370.608z M137.278,396.573c-3.851,0-6.982-3.132-6.982-6.983
		c0-3.85,3.132-6.982,6.982-6.982s6.982,3.132,6.982,6.982C144.26,393.441,141.129,396.573,137.278,396.573z"/>
	<path d="M263.739,369.945h-84.308c-10.467,0-18.982,8.85-18.982,19.5s8.516,19.5,18.982,19.5c0.004,0,0.008,0,0.012,0l84.296-0.352
		c10.467,0,18.982-8.776,18.982-19.334C282.721,378.609,274.206,369.945,263.739,369.945z M263.727,396.407l-84.304,0.166
		c-3.781-0.005-6.975-3.353-6.975-7.314c0-3.964,3.197-7.314,6.982-7.314h84.308c3.785,0,6.982,3.35,6.982,7.314
		C270.721,393.134,267.524,396.407,263.727,396.407z"/>
	<path d="M305.892,370.608c-10.467,0-18.982,8.516-18.982,18.982c0,10.467,8.516,18.983,18.982,18.983
		c10.468,0,18.983-8.516,18.983-18.983C324.876,379.124,316.36,370.608,305.892,370.608z M305.892,396.573
		c-3.851,0-6.982-3.132-6.982-6.983c0-3.85,3.132-6.982,6.982-6.982s6.983,3.132,6.983,6.982
		C312.876,393.441,309.743,396.573,305.892,396.573z"/>
	<path d="M348.047,370.608c-10.468,0-18.983,8.516-18.983,18.982c0,10.467,8.516,18.983,18.983,18.983
		c10.467,0,18.982-8.516,18.982-18.983C367.029,379.124,358.513,370.608,348.047,370.608z M348.047,396.573
		c-3.851,0-6.983-3.132-6.983-6.983c0-3.85,3.133-6.982,6.983-6.982s6.982,3.132,6.982,6.982
		C355.029,393.441,351.897,396.573,348.047,396.573z"/>
	<path d="M96.045,346.401c0-10.467-8.516-18.983-18.982-18.983c-10.468,0-18.983,8.516-18.983,18.983
		c0,10.467,8.516,18.982,18.983,18.982C87.529,365.384,96.045,356.868,96.045,346.401z M70.079,346.401
		c0-3.851,3.133-6.983,6.983-6.983s6.982,3.132,6.982,6.983c0,3.85-3.132,6.982-6.982,6.982S70.079,350.251,70.079,346.401z"/>
	<path d="M119.216,327.418c-10.467,0-18.982,8.516-18.982,18.983c0,10.467,8.516,18.982,18.982,18.982s18.982-8.516,18.982-18.982
		C138.198,335.934,129.682,327.418,119.216,327.418z M119.216,353.384c-3.851,0-6.982-3.132-6.982-6.982
		c0-3.851,3.132-6.983,6.982-6.983s6.982,3.132,6.982,6.983C126.198,350.251,123.066,353.384,119.216,353.384z"/>
	<path d="M161.369,327.418c-10.467,0-18.982,8.516-18.982,18.983c0,10.467,8.516,18.982,18.982,18.982s18.982-8.516,18.982-18.982
		C180.351,335.934,171.836,327.418,161.369,327.418z M161.369,353.384c-3.851,0-6.982-3.132-6.982-6.982
		c0-3.851,3.132-6.983,6.982-6.983s6.982,3.132,6.982,6.983C168.351,350.251,165.219,353.384,161.369,353.384z"/>
	<path d="M203.522,327.418c-10.467,0-18.982,8.516-18.982,18.983c0,10.467,8.516,18.982,18.982,18.982
		c10.468,0,18.983-8.516,18.983-18.982C222.506,335.934,213.99,327.418,203.522,327.418z M203.522,353.384
		c-3.851,0-6.982-3.132-6.982-6.982c0-3.851,3.132-6.983,6.982-6.983s6.983,3.132,6.983,6.983
		C210.506,350.251,207.373,353.384,203.522,353.384z"/>
	<path d="M245.677,327.418c-10.468,0-18.983,8.516-18.983,18.983c0,10.467,8.516,18.982,18.983,18.982
		c10.467,0,18.982-8.516,18.982-18.982C264.659,335.934,256.143,327.418,245.677,327.418z M245.677,353.384
		c-3.851,0-6.983-3.132-6.983-6.982c0-3.851,3.133-6.983,6.983-6.983s6.982,3.132,6.982,6.983
		C252.659,350.251,249.527,353.384,245.677,353.384z"/>
	<path d="M287.83,327.418c-10.467,0-18.982,8.516-18.982,18.983c0,10.467,8.516,18.982,18.982,18.982s18.982-8.516,18.982-18.982
		C306.812,335.934,298.297,327.418,287.83,327.418z M287.83,353.384c-3.851,0-6.982-3.132-6.982-6.982
		c0-3.851,3.132-6.983,6.982-6.983s6.982,3.132,6.982,6.983C294.812,350.251,291.68,353.384,287.83,353.384z"/>
	<path d="M330.623,327.418c-10.468,0-18.983,8.516-18.983,18.983c0,10.467,8.516,18.982,18.983,18.982
		c10.467,0,18.982-8.516,18.982-18.982C349.605,335.934,341.09,327.418,330.623,327.418z M330.623,353.384
		c-3.851,0-6.983-3.132-6.983-6.982c0-3.851,3.133-6.983,6.983-6.983s6.982,3.132,6.982,6.983
		C337.605,350.251,334.473,353.384,330.623,353.384z"/>
	<path d="M372.883,327.418c-10.467,0-18.982,8.516-18.982,18.983c0,10.467,8.516,18.982,18.982,18.982s18.982-8.516,18.982-18.982
		C391.865,335.934,383.349,327.418,372.883,327.418z M372.883,353.384c-3.851,0-6.982-3.132-6.982-6.982
		c0-3.851,3.132-6.983,6.982-6.983s6.982,3.132,6.982,6.983C379.865,350.251,376.733,353.384,372.883,353.384z"/>
	<rect x="186.975" y="26.945" width="74" height="12"/>
	<rect x="260.975" y="63.945" width="46" height="12"/>
	<rect x="193.975" y="63.945" width="46" height="12"/>
	<rect x="152.975" y="63.945" width="20" height="12"/>
	<rect x="230.975" y="89.945" width="76" height="12"/>
	<rect x="141.975" y="89.945" width="73" height="12"/>
	<rect x="260.975" y="114.945" width="46" height="12"/>
	<rect x="191.975" y="114.945" width="48" height="12"/>
	<rect x="141.975" y="114.945" width="29" height="12"/>
	<rect x="291.975" y="141.945" width="15" height="12"/>
	<rect x="208.975" y="141.945" width="66" height="12"/>
	<rect x="141.975" y="141.945" width="51" height="12"/>
</g>
</svg>